<svg width="27" height="29" viewBox="0 0 27 29" fill="none" xmlns="http://www.w3.org/2000/svg">
<path d="M10.1351 9.02714L10.135 9.02681C10.0374 8.75261 9.99607 8.46907 10.011 8.177L10.011 8.17676L10.1168 6.14047L10.1168 6.14038C10.1283 5.92045 10.0975 5.70928 10.0242 5.5028L10.1351 9.02714ZM10.1351 9.02714C10.2328 9.30032 10.3797 9.54362 10.5746 9.75239L14.1795 13.6135L14.3622 13.4429M10.1351 9.02714L10.3706 8.94299M4.10626 11.0054L2.48345 9.26728C2.34157 9.11532 2.23387 8.9378 2.16047 8.73321L2.16035 8.73286C2.08711 8.52967 2.05534 8.31842 2.06596 8.09938L2.06597 8.09917L2.1484 6.37049C2.1484 6.37046 2.1484 6.37044 2.14841 6.37041C2.15037 6.33023 2.16106 6.29977 2.17995 6.27189C2.19911 6.24362 2.22062 6.2272 2.2454 6.2171L2.24541 6.21712L2.24838 6.21587C2.27024 6.20664 2.29162 6.20458 2.31759 6.21059L2.3183 6.21076C2.34504 6.21687 2.36721 6.22909 2.3887 6.25211L2.57144 6.0815L2.3887 6.25211L3.55811 7.50462C3.6524 7.60561 3.75653 7.69749 3.8696 7.77747M4.10626 11.0054L6.47611 7.50573L6.47613 7.50574L6.47818 7.50352C6.57106 7.40282 6.65631 7.29332 6.73072 7.17264M4.10626 11.0054C4.10636 11.0055 4.10646 11.0056 4.10656 11.0057M4.10626 11.0054L4.10656 11.0057M3.8696 7.77747C3.86935 7.77729 3.8691 7.77711 3.86885 7.77694L4.01463 7.57383L3.87035 7.778C3.8701 7.77782 3.86985 7.77765 3.8696 7.77747ZM3.8696 7.77747C3.98098 7.85734 4.09935 7.92588 4.22574 7.98115M4.22574 7.98115C4.2253 7.98095 4.22485 7.98075 4.2244 7.98055L4.32708 7.75261L4.22709 7.98174C4.22664 7.98155 4.22619 7.98135 4.22574 7.98115ZM4.22574 7.98115C4.35163 8.03774 4.48104 8.07873 4.61217 8.10707L4.61261 8.10716C4.7473 8.13601 4.88191 8.14977 5.01712 8.14977C5.15319 8.14977 5.28797 8.13605 5.42207 8.10707L5.36927 7.86271M5.36927 7.86271C5.48631 7.83764 5.59928 7.80166 5.70818 7.75261M5.36927 7.86271C5.25324 7.88778 5.1362 7.89977 5.01712 7.89977C4.89906 7.89977 4.78202 7.88778 4.66498 7.86271H5.36927ZM5.70818 7.75261L5.80817 7.98174C5.80862 7.98155 5.80906 7.98135 5.80951 7.98116C5.80996 7.98096 5.81041 7.98075 5.81086 7.98055L5.70818 7.75261ZM5.70818 7.75261C5.8181 7.70464 5.92191 7.64469 6.02064 7.57383M6.02064 7.57383L6.16492 7.778C6.16516 7.77782 6.16541 7.77765 6.16565 7.77748C6.16591 7.7773 6.16616 7.77712 6.16641 7.77694L6.02064 7.57383ZM6.02064 7.57383C6.11936 7.50407 6.20994 7.4234 6.29441 7.33401C6.37787 7.24354 6.45319 7.14652 6.51832 7.04078M6.51832 7.04078L6.73026 7.17338C6.73041 7.17313 6.73057 7.17289 6.73072 7.17264M6.51832 7.04078C6.58448 6.93504 6.64045 6.82385 6.68524 6.70612L6.73072 7.17264M6.51832 7.04078L6.73118 7.1719C6.73103 7.17215 6.73087 7.17239 6.73072 7.17264M4.10656 11.0057C4.25113 11.1596 4.41497 11.2735 4.60098 11.3497L4.5062 11.581L4.60061 11.3495C4.78841 11.4261 4.97905 11.4578 5.1772 11.4459L5.1773 11.4459L7.07848 11.3325L7.07876 11.3325C7.3587 11.3161 7.63003 11.3618 7.89113 11.4684L7.89149 11.4685C8.15155 11.5752 8.38081 11.7346 8.57578 11.9435L12.1807 15.8045L12.1807 15.8046L15.7856 19.6645L15.7861 19.6651C15.9806 19.8746 16.1274 20.1177 16.225 20.3909L16.2252 20.3912C16.3227 20.6654 16.3641 20.949 16.3492 21.2411L16.3492 21.2413L16.2434 23.2776L16.2434 23.2777C16.2318 23.4978 16.2627 23.7089 16.336 23.9142L16.3361 23.9145C16.4092 24.1201 16.5176 24.2977 16.6612 24.4526C16.6613 24.4527 16.6613 24.4527 16.6614 24.4528L18.2842 26.1909C18.426 26.3428 18.5897 26.456 18.7757 26.5326L18.7761 26.5328C18.9608 26.6092 19.1515 26.6418 19.3475 26.6308L19.3478 26.6308L20.9626 26.5425C20.9627 26.5425 20.9629 26.5425 20.963 26.5425C20.9874 26.5411 21.0109 26.5332 21.036 26.5144C21.0577 26.4972 21.0758 26.4736 21.0896 26.4369C21.1017 26.4022 21.1042 26.3678 21.0969 26.331C21.0893 26.2938 21.0743 26.2656 21.0524 26.2422L19.883 24.9897C19.7887 24.8887 19.7034 24.7776 19.6294 24.6577C19.5555 24.5394 19.4924 24.4143 19.4418 24.2813M4.10656 11.0057L20.9393 21.3105C20.939 21.3106 20.9387 21.3106 20.9384 21.3107M19.4418 24.2813C19.3904 24.1504 19.3515 24.0143 19.3263 23.8744C19.3 23.7337 19.2875 23.5932 19.2875 23.4521C19.2875 23.3102 19.3 23.1697 19.3263 23.0298C19.3515 22.8887 19.3905 22.7527 19.4418 22.6218M19.4418 24.2813C19.4419 24.2817 19.4421 24.2822 19.4422 24.2826L19.6749 24.1912L19.4413 24.2801C19.4414 24.2805 19.4416 24.2809 19.4418 24.2813ZM19.4418 22.6218C19.4924 22.4889 19.5555 22.3637 19.6295 22.2454C19.7039 22.1247 19.7891 22.0152 19.882 21.9145L19.8841 21.9123C19.978 21.8129 20.0807 21.7211 20.1945 21.6406C20.3059 21.5607 20.4243 21.4921 20.5507 21.4369C20.675 21.381 20.8046 21.3384 20.9384 21.3107M19.4418 22.6218C19.4416 22.6222 19.4414 22.6226 19.4413 22.6231L19.6749 22.7119L19.4422 22.6206C19.4421 22.621 19.4419 22.6214 19.4418 22.6218ZM20.9384 21.3107C21.0729 21.282 21.2072 21.2683 21.3431 21.2683C21.4779 21.2683 21.6122 21.282 21.7465 21.3107M20.9384 21.3107L21.7465 21.3107M10.3706 8.94299C10.284 8.6999 10.2474 8.44918 10.2606 8.18974L10.3706 8.94299ZM10.3706 8.94299C10.4571 9.18499 10.5863 9.39865 10.7573 9.58178L14.3622 13.4429M14.3622 13.4429L14.1795 13.6135M14.3622 13.4429L17.9661 17.304C18.1381 17.4871 18.3376 17.6256 18.5636 17.7182C18.7905 17.8109 19.0246 17.8501 19.2668 17.836L14.1795 13.6135M14.1795 13.6135L17.7834 17.4746L17.7839 17.4751C17.9796 17.6835 18.2086 17.8429 18.4687 17.9495L18.4691 17.9497C18.7302 18.0563 19.0015 18.1019 19.2814 18.0855L19.2817 18.0855L21.1829 17.9721L21.183 17.9721C21.3812 17.9602 21.5717 17.992 21.7582 18.0684L21.7586 18.0685C21.9453 18.1447 22.109 18.2585 22.2535 18.4122C22.2537 18.4124 22.2538 18.4125 22.2539 18.4126L23.8757 20.1507L23.8762 20.1513C24.0187 20.303 24.1263 20.4803 24.1997 20.6848L24.1998 20.6852C24.2731 20.8885 24.3048 21.0997 24.2942 21.3175L24.2942 21.3178L24.2118 23.0474C24.2099 23.0849 24.199 23.1169 24.1792 23.1462L24.1778 23.1483C24.1618 23.1724 24.1419 23.1891 24.1138 23.2013C24.0872 23.2116 24.0654 23.2128 24.0412 23.2074C24.0155 23.2014 23.9931 23.1891 23.9715 23.1659L22.8021 21.9134C22.7078 21.8124 22.6037 21.7206 22.4906 21.6406C22.4908 21.6408 22.4911 21.6409 22.4913 21.6411L14.1795 13.6135ZM21.7465 21.3107C21.8804 21.3384 22.0101 21.381 22.1344 21.4369L21.7476 21.3109C21.7472 21.3108 21.7468 21.3107 21.7465 21.3107ZM7.58444 2.88544L7.58406 2.88528C7.39933 2.8089 7.20873 2.77626 7.01266 2.78722L7.01235 2.78724L5.39741 2.87552C5.39737 2.87552 5.39734 2.87553 5.39731 2.87553C5.36995 2.87707 5.34838 2.88488 5.32526 2.90286C5.30211 2.92085 5.28427 2.94385 5.27074 2.98072C5.25842 3.01585 5.25608 3.05026 5.2632 3.08551L5.26332 3.08615C5.27097 3.12452 5.28603 3.1526 5.30774 3.17585L5.12501 3.34646L5.30774 3.17585L6.47715 4.42836C6.57148 4.52939 6.65679 4.64045 6.73074 4.76038C6.80479 4.87884 6.86783 5.00396 6.91843 5.13565M7.58444 2.88544L6.78803 6.34312L7.03371 6.3894C7.06013 6.24915 7.07263 6.10827 7.07263 5.96595C7.07263 5.82479 7.06014 5.68281 7.03371 5.5425C7.00773 5.40458 6.97018 5.26879 6.91843 5.13565M7.58444 2.88544C7.7705 2.96201 7.93415 3.07521 8.07596 3.22711L9.69878 4.96525C9.69886 4.96534 9.69895 4.96543 9.69903 4.96551M7.58444 2.88544L9.69903 4.96551M6.91843 5.13565C6.91836 5.13548 6.91829 5.13531 6.91823 5.13514L6.68524 5.22578L6.91863 5.13617C6.91856 5.136 6.91849 5.13583 6.91843 5.13565ZM9.69903 4.96551C9.84262 5.12032 9.95098 5.29796 10.0241 5.50246L9.69903 4.96551ZM2.37399 5.96704C2.29868 5.9496 2.22336 5.95505 2.1511 5.98557C2.07884 6.015 2.01879 6.06406 1.97299 6.13164C1.92719 6.19923 1.90277 6.27444 1.8987 6.35838L1.81626 8.08727C1.80404 8.33908 1.84068 8.58326 1.92516 8.81763C2.00963 9.05309 2.13482 9.26021 2.30071 9.43789L2.37399 5.96704Z" fill="#1A1A1A" stroke="#0D9BBF" stroke-width="0.5"/>
<path d="M9.99156 20.4787L9.99197 20.479C10.4323 20.7612 10.8981 20.9814 11.3891 21.1403C11.8787 21.298 12.3791 21.3893 12.8915 21.4155L9.99156 20.4787ZM9.99156 20.4787C9.55021 20.1965 9.14778 19.8605 8.78289 19.4697C8.418 19.0789 8.10292 18.6463 7.83741 18.17L7.83719 18.1696C7.57162 17.6942 7.36373 17.1901 7.21448 16.6575L7.21418 16.6565C7.06413 16.1255 6.97748 15.5818 6.95267 15.0243L9.99156 20.4787ZM6.65262 13.0764C6.68723 13.0131 6.73099 12.9565 6.7829 12.9085C6.8348 12.8605 6.89282 12.8224 6.95592 12.7951C7.02004 12.7668 7.08619 12.7515 7.15438 12.7472C7.3386 12.7363 7.49431 12.8006 7.62459 12.939L8.28817 13.6508C8.39096 13.762 8.46831 13.8918 8.52022 14.0378C8.57212 14.1839 8.59452 14.3354 8.58637 14.4924L6.65262 13.0764ZM6.65262 13.0764L7.09123 13.3164C7.0915 13.3159 7.09178 13.3154 7.09205 13.3149C7.09234 13.3144 7.09264 13.3138 7.09294 13.3133L6.65262 13.0764ZM7.12223 13.2757L6.78663 12.9125L7.12223 13.2757L7.12223 13.2757ZM7.12223 13.2757C7.13447 13.2644 7.14519 13.258 7.15416 13.2541L7.15417 13.2542L7.15806 13.2524C7.16478 13.2495 7.17263 13.2471 7.18518 13.2462C7.20812 13.245 7.21728 13.2486 7.22032 13.2498C7.22403 13.2513 7.23749 13.2574 7.25985 13.281L7.92161 13.9909C7.97622 14.0501 8.01896 14.1205 8.04908 14.2052C8.07903 14.2895 8.09177 14.3754 8.08704 14.4665L8.08698 14.4665L8.0867 14.4744C8.08009 14.6584 8.08115 14.8435 8.09117 15.0294C8.1013 15.2175 8.12145 15.4025 8.14894 15.585L8.14893 15.585L8.14947 15.5884C8.17819 15.7706 8.21479 15.9514 8.26048 16.1316L8.74514 16.0087L8.26048 16.1316C8.30642 16.3128 8.36129 16.4903 8.42499 16.665L8.42537 16.6661C8.48843 16.8379 8.55953 17.0082 8.63886 17.1745C8.71898 17.3425 8.80747 17.5043 8.90169 17.6598L8.90258 17.6613C8.99694 17.8159 9.10005 17.9685 9.21217 18.1154M7.12223 13.2757L12.8915 21.4155C13.4024 21.4405 13.9076 21.3993 14.4082 21.2901L14.4116 21.2893L14.4116 21.2893C14.4197 21.2876 14.4289 21.2842 14.4393 21.2777C14.4547 21.268 14.4649 21.2585 14.4725 21.2491C14.4839 21.235 14.4924 21.22 14.4989 21.2026L14.5011 21.1965L14.5012 21.1965C14.5073 21.1807 14.5118 21.1618 14.5132 21.1369C14.5164 21.0724 14.5014 21.0377 14.4672 21.0006C14.467 21.0003 14.4668 21.0001 14.4666 20.9999L13.805 20.2924C13.8048 20.2922 13.8046 20.292 13.8044 20.2918C13.7486 20.2328 13.6883 20.192 13.62 20.1643L13.6188 20.1639C13.5502 20.1359 13.4832 20.1249 13.4128 20.1291L13.4071 20.1294L13.4071 20.1294C13.2278 20.138 13.0506 20.1355 12.8759 20.1247C12.6966 20.1136 12.5204 20.0916 12.3479 20.0616C12.1693 20.0307 11.9965 19.9891 11.8278 19.94C11.6563 19.8902 11.4882 19.8306 11.3235 19.7614C11.1577 19.6932 10.997 19.6155 10.8403 19.5287C10.6813 19.4422 10.5297 19.3476 10.3822 19.244C10.2338 19.1408 10.0917 19.0296 9.95499 18.9107C9.81799 18.7919 9.68799 18.6657 9.56488 18.535L9.56178 18.5317L9.5618 18.5317C9.43995 18.4 9.32256 18.2613 9.21217 18.1154M9.21217 18.1154C9.21192 18.115 9.21167 18.1147 9.21143 18.1144L9.61021 17.8128L9.21291 18.1163C9.21266 18.116 9.21241 18.1157 9.21217 18.1154Z" fill="#1A1A1A" stroke="#0D9BBF"/>
<mask id="mask0_2625_8163" style="mask-type:luminance" maskUnits="userSpaceOnUse" x="0" y="11" width="16" height="18">
<path d="M0.535797 12.2198H15.3236V28.2751H0.535797V12.2198Z" fill="white" stroke="white" stroke-width="0.5"/>
</mask>
<g mask="url(#mask0_2625_8163)">
<path d="M7.46378 20.8064L7.46417 20.8069C7.92867 21.3032 8.44211 21.7341 9.00641 22.0976C9.56937 22.461 10.1656 22.7471 10.7958 22.9545C11.4246 23.1617 12.0677 23.2858 12.7256 23.3252L12.7257 23.3252C13.3753 23.3641 14.0191 23.3197 14.6575 23.192C14.6236 23.8669 14.7767 24.4937 15.1157 25.066C15.2455 25.2858 15.2907 25.5201 15.2498 25.7794L15.2498 25.7794L14.917 27.8893C14.917 27.8894 14.917 27.8894 14.917 27.8894C14.908 27.9459 14.8911 27.9966 14.8651 28.0451L14.8646 28.0461C14.8399 28.0927 14.8083 28.1331 14.7689 28.1688C14.7306 28.2036 14.6909 28.228 14.6473 28.2446L14.6473 28.2445L14.6433 28.2462C14.6007 28.2633 14.5561 28.2718 14.5085 28.2718H11.8541C11.8068 28.2718 11.7617 28.2634 11.7172 28.2457L11.7153 28.245C11.6711 28.2279 11.6303 28.2029 11.5927 28.1688C11.5551 28.1347 11.5236 28.0946 11.4967 28.0456C11.4713 27.9963 11.4546 27.9454 11.4456 27.8896C11.4456 27.8895 11.4456 27.8894 11.4456 27.8893L10.9551 24.7841L10.93 24.6253L10.7751 24.5822C9.93271 24.3479 9.1366 23.9948 8.38421 23.5224L8.23759 23.4303L8.09984 23.5352L5.70402 25.3589L5.70354 25.3592C5.66514 25.3886 5.62275 25.4101 5.5751 25.4248C5.52861 25.4379 5.48372 25.4422 5.43724 25.4385C5.3882 25.4336 5.34373 25.4209 5.30251 25.4L5.30252 25.4L5.29977 25.3987C5.25829 25.3784 5.21901 25.3494 5.18142 25.31C5.18117 25.3097 5.18092 25.3095 5.18067 25.3092L4.24396 24.3059L4.24386 24.3058L3.3066 23.3009L3.30661 23.3008L3.30493 23.2991C3.27019 23.2625 3.24164 23.2192 3.22037 23.1694L3.22039 23.1694L3.21926 23.1668C3.19777 23.118 3.18469 23.066 3.17963 23.0081C3.17565 22.9512 3.1805 22.896 3.19391 22.8424C3.20897 22.7852 3.2306 22.7371 3.25847 22.6959L3.25848 22.6959L3.25982 22.6939L4.96254 20.1278L5.04602 20.002L4.97352 19.8696C4.53128 19.0617 4.20026 18.2047 3.98044 17.2981L3.9421 17.14L3.78197 17.111L0.882925 16.5868C0.882851 16.5868 0.882776 16.5868 0.882702 16.5868C0.837305 16.5784 0.79364 16.5617 0.749868 16.5351C0.707901 16.5096 0.67007 16.4763 0.636999 16.4345C0.603912 16.3927 0.579298 16.3476 0.562148 16.296L0.562178 16.296L0.560877 16.2923C0.543235 16.2419 0.53421 16.1882 0.53421 16.1296V13.2877C0.53421 13.2306 0.543118 13.1765 0.561228 13.1241L0.561234 13.1241L0.561819 13.1223C0.579362 13.0703 0.604463 13.024 0.636999 12.9828L0.636999 12.9828C0.66958 12.9417 0.706375 12.909 0.750394 12.8819C0.794146 12.8554 0.836614 12.8395 0.87956 12.8322L0.879563 12.8322L0.882378 12.8317L2.85277 12.4753L2.85293 12.4752C3.08137 12.4337 3.28966 12.4776 3.48868 12.6134L3.48908 12.6137C4.02349 12.9769 4.61191 13.1432 5.24656 13.1112C5.1255 13.7995 5.08272 14.4936 5.1193 15.1932C5.15591 15.8934 5.27101 16.5793 5.46352 17.2495C5.6561 17.9198 5.92207 18.5558 6.26034 19.1571C6.59877 19.7597 7.00033 20.3089 7.46378 20.8064Z" fill="#1A1A1A" stroke="#0D9BBF" stroke-width="0.5"/>
</g>
<path d="M16.3701 8.93872L16.3697 8.93846C15.9293 8.65624 15.4635 8.43603 14.9724 8.27711C14.4822 8.11922 13.9821 8.02706 13.4711 8.002L13.471 8.002C12.9598 7.97688 12.4544 8.01805 11.9534 8.12737L11.95 8.12811L11.95 8.12809C11.942 8.12979 11.9327 8.13318 11.9223 8.13971L11.9191 8.14175L11.9191 8.14174C11.9076 8.14882 11.8985 8.1567 11.8891 8.16835L16.3701 8.93872ZM16.3701 8.93872C16.8114 9.22093 17.2138 9.55688 17.5787 9.9477C17.9436 10.3385 18.2587 10.7711 18.5242 11.2474L18.5244 11.2478C18.79 11.7232 18.9979 12.2273 19.1472 12.7599L19.1474 12.7609C19.2975 13.2921 19.3841 13.8357 19.4079 14.3916L19.408 14.3924C19.4327 14.9487 19.3928 15.4988 19.2899 16.0446L19.2895 16.0468C19.2863 16.0641 19.2804 16.082 19.2696 16.1024C19.262 16.1161 19.2519 16.1294 19.2375 16.1435C19.2265 16.1532 19.2169 16.1591 19.2086 16.1628C19.1942 16.1688 19.1838 16.1707 19.1748 16.1713L19.2062 16.6702L19.1765 16.1712C19.1536 16.1725 19.1448 16.169 19.1421 16.1679C19.1388 16.1665 19.1252 16.1604 19.1025 16.1361L19.1023 16.1358L18.4397 15.4273C18.3854 15.3675 18.3427 15.2968 18.3127 15.2127C18.2824 15.1264 18.2695 15.0393 18.2737 14.9479L18.2738 14.946C18.2816 14.76 18.2805 14.5739 18.2705 14.388L18.2705 14.388L18.2703 14.385C18.2593 14.2009 18.2405 14.017 18.2127 13.8324L18.2127 13.8324L18.2122 13.829C18.1834 13.6468 18.1468 13.4661 18.1012 13.2858C18.0552 13.1046 18.0003 12.9271 17.9366 12.7524L17.9363 12.7514C17.8732 12.5795 17.8021 12.4093 17.7228 12.2429C17.6426 12.0749 17.5542 11.9131 17.4599 11.7576L17.4599 11.7576L17.4586 11.7554C17.3627 11.5989 17.2599 11.4481 17.1502 11.303L17.1502 11.303L17.1487 11.3011C17.039 11.1574 16.9226 11.0182 16.7973 10.884L16.4318 11.2253L16.7973 10.884C16.6742 10.7522 16.5436 10.6255 16.4066 10.5067C16.2699 10.3878 16.1278 10.2766 15.9794 10.1734C15.8309 10.0691 15.6783 9.97468 15.522 9.88907C15.365 9.80208 15.2041 9.72433 15.0381 9.65606C14.8729 9.58657 14.704 9.52718 14.5347 9.47763L14.5339 9.47738C14.365 9.42828 14.1918 9.38689 14.0154 9.35615C13.8395 9.32441 13.6634 9.30379 13.4874 9.29285C13.3087 9.28065 13.131 9.27953 12.9545 9.28801L12.9545 9.28798L12.9488 9.28831C12.8784 9.29251 12.8115 9.28153 12.7429 9.25357L12.7417 9.25308C12.6733 9.22542 12.613 9.18466 12.5572 9.12567L11.8944 8.41685C11.8602 8.37968 11.8452 8.34499 11.8484 8.28058M16.3701 8.93872L11.8484 8.28058M11.6565 7.71626C11.5964 7.75332 11.5445 7.79911 11.4997 7.8547C11.4549 7.91029 11.4193 7.97243 11.3929 8.04111L11.6565 7.71626ZM11.6565 7.71626C11.7155 7.6792 11.7796 7.65303 11.8468 7.63886L11.6565 7.71626ZM11.8484 8.28058C11.8498 8.2568 11.854 8.23648 11.8606 8.21779C11.8688 8.19746 11.8784 8.18168 11.8891 8.16835L11.8484 8.28058ZM19.6286 12.6249C19.4688 12.0548 19.2459 11.5141 18.9609 11.004C18.676 10.4927 18.3371 10.0273 17.9442 9.60648C17.5513 9.1857 17.1168 8.8227 16.6394 8.51748C16.1631 8.21225 15.6583 7.97352 15.126 7.80129L19.6286 12.6249Z" fill="#1A1A1A" stroke="#0D9BBF"/>
<mask id="mask1_2625_8163" style="mask-type:luminance" maskUnits="userSpaceOnUse" x="10" y="0" width="17" height="18">
<path d="M10.6234 0.897583H26.0802V17.2718H10.6234V0.897583Z" fill="white"/>
</mask>
<g mask="url(#mask1_2625_8163)">
<path d="M20.6574 4.05778L20.6569 4.05815L18.2611 5.88187L18.1233 5.9868L17.9766 5.89458C17.2254 5.42223 16.4282 5.06909 15.5855 4.83363L15.4309 4.79043L15.4059 4.63187L14.9154 1.5277C14.9154 1.52769 14.9154 1.52768 14.9154 1.52767C14.9063 1.47065 14.8893 1.419 14.8646 1.37208C14.8376 1.32274 14.806 1.2825 14.7683 1.24825C14.7313 1.2147 14.6903 1.18918 14.6447 1.17059C14.5991 1.15346 14.5536 1.14526 14.5068 1.14526H11.8535C11.8059 1.14526 11.7614 1.15339 11.7157 1.17058C11.67 1.18918 11.629 1.2147 11.592 1.24825L11.592 1.24825C11.5527 1.28395 11.521 1.32432 11.4963 1.3709M20.6574 4.05778L15.0299 6.56483C15.1836 6.60407 15.3363 6.64986 15.4879 6.7C15.6396 6.74905 15.7892 6.80465 15.9378 6.8646C16.0864 6.92456 16.2329 6.98887 16.3775 7.05755C16.522 7.12732 16.6645 7.20144 16.8049 7.27993C16.9454 7.35842 17.0838 7.44126 17.2202 7.52956M20.6574 4.05778C20.6979 4.02677 20.7403 4.00544 20.7842 3.99266C20.8313 3.97927 20.8767 3.97477 20.9237 3.9785M20.6574 4.05778L20.9237 3.9785M11.4963 1.3709L11.2754 1.2539M11.4963 1.3709L11.2754 1.2539M11.4963 1.3709C11.4704 1.41981 11.4528 1.47204 11.4439 1.52749C11.4439 1.52756 11.4439 1.52763 11.4439 1.5277L11.1113 3.637C11.1113 3.6371 11.1112 3.6372 11.1112 3.63729C11.0711 3.8964 11.1158 4.13167 11.246 4.35059L11.2462 4.35097C11.5853 4.92333 11.7371 5.54985 11.7046 6.22393C11.857 6.19359 12.0098 6.16833 12.162 6.14716L12.1639 6.14689L12.1639 6.1469C12.3262 6.1256 12.4885 6.10878 12.6508 6.09644L12.6526 6.0963L12.6526 6.09631C12.817 6.08502 12.9799 6.07941 13.1433 6.07829C13.3075 6.07716 13.4717 6.08166 13.6349 6.09179M11.2754 1.2539C11.2367 1.32694 11.2103 1.40543 11.197 1.48827L10.8642 3.59869C10.8154 3.91373 10.8703 4.20805 11.0311 4.47839C11.3456 5.00927 11.4861 5.5892 11.4545 6.21818C11.4525 6.25524 11.4576 6.29231 11.4718 6.32719C11.4851 6.36207 11.5054 6.39259 11.5319 6.41767C11.5594 6.44274 11.5889 6.46018 11.6235 6.46999M11.2754 1.2539C11.3141 1.18087 11.364 1.11764 11.424 1.06314C11.484 1.00863 11.5512 0.96721 11.6245 0.937777C11.6988 0.909435 11.7741 0.895264 11.8535 0.895264H14.5068C14.5852 0.895264 14.6615 0.909435 14.7358 0.937777L11.6235 6.46999M13.6349 6.09179C13.8003 6.10089 13.9636 6.11674 14.1246 6.1369M13.6349 6.09179C13.6346 6.09177 13.6343 6.09175 13.634 6.09174L13.6203 6.34136M13.6349 6.09179C13.6352 6.0918 13.6356 6.09182 13.6359 6.09184L13.6203 6.34136M14.1246 6.1369L14.0936 6.38496M14.1246 6.1369C14.1246 6.13689 14.1245 6.13688 14.1245 6.13688L14.0936 6.38496M14.1246 6.1369C14.2881 6.15723 14.4499 6.18314 14.611 6.21338L14.6129 6.21375L14.6129 6.21376C14.773 6.24515 14.9326 6.2811 15.0924 6.32276C15.2523 6.36359 15.4101 6.41096 15.5656 6.46239C15.7238 6.51356 15.8788 6.57121 16.0313 6.63276C16.1846 6.69459 16.3357 6.76092 16.4848 6.83175L16.4861 6.83241C16.6352 6.90435 16.7821 6.98078 16.9269 7.06169C17.0716 7.14256 17.2146 7.22814 17.3558 7.31955M14.0936 6.38496C13.9369 6.36534 13.7791 6.35008 13.6203 6.34136M14.0936 6.38496L11.6235 6.46999M17.3558 7.31955C17.3557 7.3195 17.3556 7.31945 17.3556 7.3194L17.2202 7.52956M17.3558 7.31955C17.4949 7.40917 17.6325 7.50367 17.7675 7.60417M17.3558 7.31955C17.3559 7.3196 17.356 7.31965 17.356 7.3197L17.2202 7.52956M17.2202 7.52956C17.3555 7.61677 17.4889 7.70833 17.6191 7.80535M11.6235 6.46999C11.6581 6.4798 11.6927 6.48198 11.7273 6.47435C11.883 6.44274 12.0397 6.41658 12.1965 6.39477C12.3542 6.37406 12.512 6.35771 12.6697 6.34572C12.8285 6.33482 12.9863 6.32937 13.145 6.32828C13.3038 6.32719 13.4626 6.33155 13.6203 6.34136M20.8719 16.3757C20.8811 16.4116 20.8973 16.4443 20.9207 16.4727M20.8719 16.3757L21.0922 16.3212L21.0934 16.3209L21.1005 16.3192L21.097 16.3271L21.0942 16.3337L21.0934 16.3353L21.0931 16.3361L21.0052 16.5381L21.0939 16.3488L21.0949 16.3467L21.1043 16.3267L21.1086 16.3176L21.1088 16.3171L21.1092 16.317L21.1146 16.3157L20.9207 16.4727M20.8719 16.3757L21.0921 16.3196L21.0933 16.3193L21.1013 16.3172L21.1045 16.3099L21.105 16.3088C21.1038 16.3083 21.0995 16.3068 21.0926 16.307C21.0922 16.3071 21.0917 16.3071 21.0913 16.3071L21.0926 16.307C21.0966 16.3068 21.1006 16.3066 21.1046 16.3064C21.1078 16.3062 21.1111 16.306 21.1144 16.3058M20.8719 16.3757C20.8627 16.3386 20.8607 16.3015 20.8678 16.2645C20.8973 16.0977 20.9218 15.9298 20.9421 15.7619C20.9615 15.593 20.9767 15.424 20.9879 15.255C20.9981 15.085 21.0032 14.916 21.0042 14.746C21.0052 14.5759 21.0012 14.4069 20.992 14.2369M20.9207 16.4727C20.9442 16.5021 20.9727 16.5228 21.0052 16.5381C21.0378 16.5522 21.0724 16.5588 21.107 16.5566C21.6942 16.5228 22.2357 16.6732 22.7313 17.0101C22.9838 17.1823 23.2586 17.2412 23.5527 17.1878L25.5231 16.8313C25.6004 16.8171 25.6737 16.7899 25.7419 16.7485M20.9207 16.4727L21.1143 16.3144M21.1143 16.3144C21.1138 16.3124 21.1137 16.3111 21.1136 16.3104L21.114 16.308C21.1141 16.3073 21.1143 16.3066 21.1144 16.3058M21.1143 16.3144L21.1164 16.317L21.1164 16.3171L21.1143 16.3144ZM21.1144 16.3058C21.749 16.2738 22.3375 16.4401 22.8719 16.8033L22.8723 16.8036C23.0713 16.9394 23.2796 16.9833 23.508 16.9418L23.5082 16.9418L25.478 16.5854L25.5231 16.8312L25.4786 16.5853L25.4781 16.5854C25.526 16.5766 25.57 16.5602 25.6109 16.5355M21.1144 16.3058C21.1446 16.1348 21.1696 15.9631 21.1903 15.792L21.1905 15.7904C21.2103 15.6175 21.2259 15.4445 21.2374 15.2716L21.2375 15.27C21.2479 15.095 21.2532 14.9215 21.2542 14.7475C21.2552 14.5727 21.2511 14.399 21.2417 14.2243M25.6109 16.5355C25.6105 16.5358 25.61 16.5361 25.6096 16.5363L25.7419 16.7485M25.6109 16.5355C25.6113 16.5353 25.6117 16.535 25.6121 16.5348L25.7419 16.7485M25.6109 16.5355C25.6545 16.5082 25.6914 16.4753 25.7239 16.4342C25.7561 16.3936 25.7816 16.3471 25.8004 16.2938M25.7419 16.7485C25.8101 16.7059 25.8691 16.6536 25.92 16.5893C25.9709 16.525 26.0096 16.453 26.037 16.3746C26.0635 16.295 26.0767 16.2132 26.0767 16.1293V13.2874C26.0767 13.2024 26.0635 13.1217 26.037 13.0422M26.037 13.0422L25.8011 13.1248C25.8009 13.1241 25.8006 13.1235 25.8004 13.1229M26.037 13.0422C26.0096 12.9637 25.9709 12.8917 25.92 12.8274C25.8691 12.7631 25.8101 12.7097 25.7419 12.6683C25.6737 12.6268 25.6004 12.5985 25.5231 12.5843L22.6245 12.06C22.3985 11.1323 22.0596 10.2548 21.6077 9.42741L23.3094 6.86242C23.3552 6.79375 23.3888 6.71853 23.4092 6.63678C23.4295 6.55611 23.4367 6.47326 23.4306 6.38932M26.037 13.0422L25.7998 13.121C25.8 13.1216 25.8002 13.1223 25.8004 13.1229M25.8004 16.2938C25.8002 16.2945 25.8 16.2951 25.7998 16.2957L26.037 16.3746L25.8011 16.2919C25.8009 16.2926 25.8006 16.2932 25.8004 16.2938ZM25.8004 16.2938C25.818 16.2403 25.8267 16.1858 25.8267 16.1293V13.2874C25.8267 13.23 25.8181 13.1765 25.8004 13.1229M25.8004 13.1229C25.7816 13.0696 25.7561 13.0231 25.7239 12.9825C25.69 12.9396 25.6529 12.9067 25.6121 12.8819C25.569 12.8557 25.5244 12.8387 25.4782 12.8303L25.4786 12.8303L25.5231 12.5844L25.478 12.8302L22.58 12.306L22.42 12.2771L22.3816 12.1191C22.1607 11.2124 21.8296 10.3553 21.3883 9.54724L21.316 9.41488L21.3994 9.2892L23.1011 6.72422L23.1014 6.72372C23.1315 6.67866 23.1533 6.62989 23.1666 6.57638L23.1668 6.57561C23.1804 6.5217 23.1853 6.46615 23.1813 6.40897M23.1813 6.40897C23.1814 6.40947 23.1814 6.40997 23.1814 6.41047L23.4306 6.38932M23.1813 6.40897C23.1813 6.40847 23.1812 6.40797 23.1812 6.40746L23.4306 6.38932M23.1813 6.40897C23.1763 6.35102 23.1632 6.29905 23.1417 6.25022L23.1406 6.24765L23.1406 6.24764C23.1199 6.1993 23.0914 6.15561 23.0546 6.11534L23.0555 6.11627L23.2382 5.94566M23.4306 6.38932C23.4234 6.30539 23.4041 6.22581 23.3705 6.1495C23.3379 6.0732 23.2932 6.00561 23.2382 5.94566M23.2382 5.94566L23.0539 6.11459M23.2382 5.94566L21.3614 3.93553C21.3055 3.87666 21.2424 3.8287 21.1711 3.79382L23.0539 6.11459M23.0539 6.11459L21.1803 4.10781C21.18 4.10756 21.1798 4.10732 21.1796 4.10707C21.142 4.06767 21.1027 4.03866 21.0612 4.01835L21.0584 4.017L21.0584 4.01698C21.0172 3.99616 20.9727 3.98346 20.9237 3.9785M23.0539 6.11459L20.9237 3.9785M21.2417 14.2243C21.2417 14.2245 21.2417 14.2247 21.2417 14.2249L20.992 14.2369M21.2417 14.2243C21.2332 14.0485 21.2186 13.8747 21.1998 13.7031M21.2417 14.2243C21.2417 14.224 21.2416 14.2237 21.2416 14.2234L20.992 14.2369M20.992 14.2369C20.9838 14.0668 20.9696 13.8979 20.9513 13.73M21.1998 13.7031L20.9513 13.73M21.1998 13.7031C21.1998 13.703 21.1998 13.7029 21.1998 13.7029L20.9513 13.73M21.1998 13.7031L20.8976 12.1681M20.9513 13.73C20.933 13.561 20.9096 13.3932 20.8821 13.2264C20.8536 13.0585 20.821 12.8928 20.7834 12.7271M20.7834 12.7271L21.0274 12.6728C21.0273 12.6726 21.0273 12.6724 21.0273 12.6723C21.0272 12.6721 21.0272 12.6719 21.0271 12.6717L20.7834 12.7271ZM20.7834 12.7271C20.7467 12.5625 20.704 12.399 20.6571 12.2366M20.6571 12.2366L20.8978 12.1687C20.8977 12.1685 20.8976 12.1683 20.8976 12.1681M20.6571 12.2366C20.6113 12.0742 20.5594 11.9139 20.5035 11.7548M20.6571 12.2366L20.8974 12.1673C20.8974 12.1676 20.8975 12.1678 20.8976 12.1681M20.8976 12.1681L19.8826 10.3812M20.5035 11.7548L20.7398 11.6732C20.7397 11.6729 20.7396 11.6727 20.7395 11.6725C20.7395 11.6722 20.7394 11.672 20.7393 11.6718L20.5035 11.7548ZM20.5035 11.7548C20.4485 11.5956 20.3874 11.4386 20.3233 11.2838C20.2582 11.129 20.189 10.9764 20.1157 10.826C20.0424 10.6756 19.9651 10.5273 19.8826 10.3812M19.8826 10.3812C19.8012 10.2363 19.7157 10.0935 19.6251 9.95392M19.8826 10.3812L20.1003 10.2584C20.1004 10.2584 20.1004 10.2585 20.1005 10.2586M19.8826 10.3812L20.1006 10.2588C20.1006 10.2587 20.1005 10.2587 20.1005 10.2586M19.8826 10.3812L20.1005 10.2586M17.6191 7.80535C17.7504 7.90128 17.8776 8.00157 18.0028 8.10622C18.127 8.21087 18.2491 8.31988 18.3682 8.43216C18.4863 8.54443 18.6023 8.66107 18.7142 8.78098C18.8262 8.90089 18.9351 9.02516 19.0399 9.15162C19.1448 9.27916 19.2465 9.40997 19.3442 9.54296C19.4419 9.67704 19.5356 9.81439 19.6251 9.95392M17.6191 7.80535L17.7684 7.60485C17.7681 7.60462 17.7678 7.60439 17.7675 7.60417M17.6191 7.80535L17.7666 7.60349C17.7669 7.60372 17.7672 7.60394 17.7675 7.60417M17.7675 7.60417C17.9034 7.70348 18.0346 7.80695 18.1632 7.91441L18.1639 7.91505C18.2917 8.02277 18.4173 8.13487 18.5397 8.25026L18.5405 8.251C18.6619 8.36647 18.7814 8.48662 18.897 8.61037C19.0125 8.73412 19.1246 8.8621 19.2324 8.99206L19.2331 8.99287C19.3407 9.12386 19.4453 9.25824 19.5457 9.39494L19.5463 9.39573C19.6469 9.53386 19.7432 9.67511 19.8352 9.81834M19.8352 9.81834C19.8351 9.81816 19.8349 9.81798 19.8348 9.8178L19.6251 9.95392M19.8352 9.81834C19.8353 9.81852 19.8354 9.8187 19.8355 9.81888L19.6251 9.95392M19.8352 9.81834C19.9289 9.96268 20.0169 10.1099 20.1005 10.2586M11.6871 6.24553L11.6863 6.24842M11.6871 6.24553L11.6863 6.24842M11.6871 6.24553L11.6863 6.24842M11.6871 6.24553L11.6863 6.24842M21.1123 16.3144L21.1097 16.3151L21.1112 16.3119C21.1119 16.3125 21.1126 16.313 21.1133 16.3137C21.1134 16.3138 21.1135 16.3139 21.1137 16.3141L21.1123 16.3144ZM21.1134 16.3117L21.1134 16.3115L21.1134 16.3117ZM21.114 16.314L21.1135 16.3135L21.1142 16.314L21.114 16.314ZM11.6835 6.25844L11.6838 6.25737L11.6835 6.25844Z" fill="#1A1A1A" stroke="#0D9BBF" stroke-width="0.5"/>
</g>
<mask id="path-8-inside-1_2625_8163" fill="white">
<ellipse cx="5.23274" cy="2.83856" rx="0.481124" ry="0.515316"/>
</mask>
<ellipse cx="5.23274" cy="2.83856" rx="0.481124" ry="0.515316" fill="black"/>
<path d="M5.21387 2.83856C5.21387 2.85379 5.20837 2.86077 5.20748 2.86172C5.20714 2.86209 5.20883 2.86014 5.21369 2.85793C5.21903 2.85552 5.22592 2.85387 5.23274 2.85387V3.85387C5.80638 3.85387 6.21387 3.36641 6.21387 2.83856H5.21387ZM5.23274 2.85387C5.23956 2.85387 5.24646 2.85552 5.25179 2.85793C5.25666 2.86014 5.25835 2.86209 5.25801 2.86172C5.25712 2.86077 5.25162 2.85379 5.25162 2.83856H4.25162C4.25162 3.36641 4.6591 3.85387 5.23274 3.85387V2.85387ZM5.25162 2.83856C5.25162 2.82333 5.25712 2.81635 5.25801 2.8154C5.25835 2.81503 5.25666 2.81698 5.25179 2.81918C5.24646 2.8216 5.23956 2.82324 5.23274 2.82324V1.82324C4.6591 1.82324 4.25162 2.3107 4.25162 2.83856H5.25162ZM5.23274 2.82324C5.22592 2.82324 5.21903 2.8216 5.21369 2.81918C5.20883 2.81698 5.20714 2.81503 5.20748 2.8154C5.20837 2.81635 5.21387 2.82333 5.21387 2.83856H6.21387C6.21387 2.3107 5.80638 1.82324 5.23274 1.82324V2.82324Z" fill="#0D9BBF" mask="url(#path-8-inside-1_2625_8163)"/>
<mask id="path-10-inside-2_2625_8163" fill="white">
<ellipse cx="2.10542" cy="6.18817" rx="0.481124" ry="0.515316"/>
</mask>
<ellipse cx="2.10542" cy="6.18817" rx="0.481124" ry="0.515316" fill="black"/>
<path d="M2.08655 6.18817C2.08655 6.2034 2.08105 6.21038 2.08016 6.21133C2.07982 6.2117 2.08151 6.20975 2.08637 6.20754C2.09171 6.20513 2.09861 6.20348 2.10542 6.20348V7.20348C2.67906 7.20348 3.08655 6.71602 3.08655 6.18817H2.08655ZM2.10542 6.20348C2.11224 6.20348 2.11914 6.20513 2.12447 6.20754C2.12934 6.20975 2.13103 6.2117 2.13069 6.21133C2.1298 6.21038 2.1243 6.2034 2.1243 6.18817H1.1243C1.1243 6.71602 1.53178 7.20348 2.10542 7.20348V6.20348ZM2.1243 6.18817C2.1243 6.17294 2.1298 6.16596 2.13069 6.165C2.13103 6.16464 2.12934 6.16659 2.12447 6.16879C2.11914 6.17121 2.11224 6.17285 2.10542 6.17285V5.17285C1.53178 5.17285 1.1243 5.66031 1.1243 6.18817H2.1243ZM2.10542 6.17285C2.09861 6.17285 2.09171 6.17121 2.08637 6.16879C2.08151 6.16659 2.07982 6.16464 2.08016 6.165C2.08105 6.16596 2.08655 6.17294 2.08655 6.18817H3.08655C3.08655 5.66031 2.67906 5.17285 2.10542 5.17285V6.17285Z" fill="#0D9BBF" mask="url(#path-10-inside-2_2625_8163)"/>
<mask id="path-12-inside-3_2625_8163" fill="white">
<ellipse cx="4.511" cy="11.3414" rx="0.481124" ry="0.515316"/>
</mask>
<ellipse cx="4.511" cy="11.3414" rx="0.481124" ry="0.515316" fill="black"/>
<path d="M4.49213 11.3414C4.49213 11.3566 4.48663 11.3636 4.48574 11.3645C4.48539 11.3649 4.48709 11.3629 4.49195 11.3607C4.49728 11.3583 4.50418 11.3567 4.511 11.3567V12.3567C5.08464 12.3567 5.49213 11.8692 5.49213 11.3414H4.49213ZM4.511 11.3567C4.51782 11.3567 4.52472 11.3583 4.53005 11.3607C4.53492 11.3629 4.53661 11.3649 4.53626 11.3645C4.53538 11.3636 4.52988 11.3566 4.52988 11.3414H3.52988C3.52988 11.8692 3.93736 12.3567 4.511 12.3567V11.3567ZM4.52988 11.3414C4.52988 11.3261 4.53538 11.3192 4.53626 11.3182C4.53661 11.3178 4.53492 11.3198 4.53005 11.322C4.52472 11.3244 4.51782 11.326 4.511 11.326V10.326C3.93736 10.326 3.52988 10.8135 3.52988 11.3414H4.52988ZM4.511 11.326C4.50418 11.326 4.49728 11.3244 4.49195 11.322C4.48709 11.3198 4.48539 11.3178 4.48574 11.3182C4.48663 11.3192 4.49213 11.3261 4.49213 11.3414H5.49213C5.49213 10.8135 5.08464 10.326 4.511 10.326V11.326Z" fill="#0D9BBF" mask="url(#path-12-inside-3_2625_8163)"/>
<mask id="path-14-inside-4_2625_8163" fill="white">
<ellipse cx="16.4811" cy="24.5153" rx="0.481124" ry="0.515316"/>
</mask>
<ellipse cx="16.4811" cy="24.5153" rx="0.481124" ry="0.515316" fill="black"/>
<path d="M16.4622 24.5153C16.4622 24.5305 16.4567 24.5375 16.4559 24.5385C16.4555 24.5388 16.4572 24.5369 16.4621 24.5347C16.4674 24.5323 16.4743 24.5306 16.4811 24.5306V25.5306C17.0548 25.5306 17.4622 25.0432 17.4622 24.5153H16.4622ZM16.4811 24.5306C16.4879 24.5306 16.4948 24.5323 16.5002 24.5347C16.505 24.5369 16.5067 24.5388 16.5064 24.5385C16.5055 24.5375 16.5 24.5305 16.5 24.5153H15.5C15.5 25.0432 15.9075 25.5306 16.4811 25.5306V24.5306ZM16.5 24.5153C16.5 24.5001 16.5055 24.4931 16.5064 24.4922C16.5067 24.4918 16.505 24.4937 16.5002 24.4959C16.4948 24.4984 16.4879 24.5 16.4811 24.5V23.5C15.9075 23.5 15.5 23.9875 15.5 24.5153H16.5ZM16.4811 24.5C16.4743 24.5 16.4674 24.4984 16.4621 24.4959C16.4572 24.4937 16.4555 24.4918 16.4559 24.4922C16.4567 24.4931 16.4622 24.5001 16.4622 24.5153H17.4622C17.4622 23.9875 17.0548 23.5 16.4811 23.5V24.5Z" fill="#0D9BBF" mask="url(#path-14-inside-4_2625_8163)"/>
<mask id="path-16-inside-5_2625_8163" fill="white">
<ellipse cx="21.4811" cy="17.5153" rx="0.481124" ry="0.515316"/>
</mask>
<ellipse cx="21.4811" cy="17.5153" rx="0.481124" ry="0.515316" fill="black"/>
<path d="M21.4622 17.5153C21.4622 17.5305 21.4567 17.5375 21.4559 17.5385C21.4555 17.5388 21.4572 17.5369 21.4621 17.5347C21.4674 17.5323 21.4743 17.5306 21.4811 17.5306V18.5306C22.0548 18.5306 22.4622 18.0432 22.4622 17.5153H21.4622ZM21.4811 17.5306C21.4879 17.5306 21.4948 17.5323 21.5002 17.5347C21.505 17.5369 21.5067 17.5388 21.5064 17.5385C21.5055 17.5375 21.5 17.5305 21.5 17.5153H20.5C20.5 18.0432 20.9075 18.5306 21.4811 18.5306V17.5306ZM21.5 17.5153C21.5 17.5001 21.5055 17.4931 21.5064 17.4922C21.5067 17.4918 21.505 17.4937 21.5002 17.4959C21.4948 17.4984 21.4879 17.5 21.4811 17.5V16.5C20.9075 16.5 20.5 16.9875 20.5 17.5153H21.5ZM21.4811 17.5C21.4743 17.5 21.4674 17.4984 21.4621 17.4959C21.4572 17.4937 21.4555 17.4918 21.4559 17.4922C21.4567 17.4931 21.4622 17.5001 21.4622 17.5153H22.4622C22.4622 16.9875 22.0548 16.5 21.4811 16.5V17.5Z" fill="#0D9BBF" mask="url(#path-16-inside-5_2625_8163)"/>
<mask id="path-18-inside-6_2625_8163" fill="white">
<ellipse cx="10.2845" cy="5.67291" rx="0.481124" ry="0.515316"/>
</mask>
<ellipse cx="10.2845" cy="5.67291" rx="0.481124" ry="0.515316" fill="black"/>
<path d="M10.2656 5.67291C10.2656 5.68814 10.2601 5.69512 10.2592 5.69607C10.2589 5.69644 10.2606 5.69449 10.2654 5.69228C10.2708 5.68987 10.2777 5.68822 10.2845 5.68822V6.68822C10.8581 6.68822 11.2656 6.20077 11.2656 5.67291H10.2656ZM10.2845 5.68822C10.2913 5.68822 10.2982 5.68987 10.3035 5.69228C10.3084 5.69449 10.3101 5.69644 10.3097 5.69607C10.3088 5.69512 10.3033 5.68814 10.3033 5.67291H9.30334C9.30334 6.20077 9.71083 6.68822 10.2845 6.68822V5.68822ZM10.3033 5.67291C10.3033 5.65768 10.3088 5.6507 10.3097 5.64975C10.3101 5.64938 10.3084 5.65133 10.3035 5.65353C10.2982 5.65595 10.2913 5.65759 10.2845 5.65759V4.65759C9.71083 4.65759 9.30334 5.14505 9.30334 5.67291H10.3033ZM10.2845 5.65759C10.2777 5.65759 10.2708 5.65595 10.2654 5.65353C10.2606 5.65133 10.2589 5.64938 10.2592 5.64975C10.2601 5.6507 10.2656 5.65768 10.2656 5.67291H11.2656C11.2656 5.14505 10.8581 4.65759 10.2845 4.65759V5.65759Z" fill="#0D9BBF" mask="url(#path-18-inside-6_2625_8163)"/>
<mask id="path-20-inside-7_2625_8163" fill="white">
<ellipse cx="24.2371" cy="23.4512" rx="0.481124" ry="0.515316"/>
</mask>
<ellipse cx="24.2371" cy="23.4512" rx="0.481124" ry="0.515316" fill="black"/>
<path d="M24.2182 23.4512C24.2182 23.4665 24.2127 23.4734 24.2118 23.4744C24.2115 23.4748 24.2132 23.4728 24.2181 23.4706C24.2234 23.4682 24.2303 23.4665 24.2371 23.4665V24.4665C24.8107 24.4665 25.2182 23.9791 25.2182 23.4512H24.2182ZM24.2371 23.4665C24.2439 23.4665 24.2508 23.4682 24.2562 23.4706C24.261 23.4728 24.2627 23.4748 24.2624 23.4744C24.2615 23.4734 24.256 23.4665 24.256 23.4512H23.256C23.256 23.9791 23.6635 24.4665 24.2371 24.4665V23.4665ZM24.256 23.4512C24.256 23.436 24.2615 23.429 24.2624 23.4281C24.2627 23.4277 24.261 23.4296 24.2562 23.4319C24.2508 23.4343 24.2439 23.4359 24.2371 23.4359V22.4359C23.6635 22.4359 23.256 22.9234 23.256 23.4512H24.256ZM24.2371 23.4359C24.2303 23.4359 24.2234 23.4343 24.2181 23.4319C24.2132 23.4296 24.2115 23.4277 24.2118 23.4281C24.2127 23.429 24.2182 23.436 24.2182 23.4512H25.2182C25.2182 22.9234 24.8107 22.4359 24.2371 22.4359V23.4359Z" fill="#0D9BBF" mask="url(#path-20-inside-7_2625_8163)"/>
<mask id="path-22-inside-8_2625_8163" fill="white">
<ellipse cx="21.4811" cy="26.5153" rx="0.481124" ry="0.515316"/>
</mask>
<ellipse cx="21.4811" cy="26.5153" rx="0.481124" ry="0.515316" fill="black"/>
<path d="M21.4622 26.5153C21.4622 26.5305 21.4567 26.5375 21.4559 26.5385C21.4555 26.5388 21.4572 26.5369 21.4621 26.5347C21.4674 26.5323 21.4743 26.5306 21.4811 26.5306V27.5306C22.0548 27.5306 22.4622 27.0432 22.4622 26.5153H21.4622ZM21.4811 26.5306C21.4879 26.5306 21.4948 26.5323 21.5002 26.5347C21.505 26.5369 21.5067 26.5388 21.5064 26.5385C21.5055 26.5375 21.5 26.5305 21.5 26.5153H20.5C20.5 27.0432 20.9075 27.5306 21.4811 27.5306V26.5306ZM21.5 26.5153C21.5 26.5001 21.5055 26.4931 21.5064 26.4922C21.5067 26.4918 21.505 26.4937 21.5002 26.4959C21.4948 26.4984 21.4879 26.5 21.4811 26.5V25.5C20.9075 25.5 20.5 25.9875 20.5 26.5153H21.5ZM21.4811 26.5C21.4743 26.5 21.4674 26.4984 21.4621 26.4959C21.4572 26.4937 21.4555 26.4918 21.4559 26.4922C21.4567 26.4931 21.4622 26.5001 21.4622 26.5153H22.4622C22.4622 25.9875 22.0548 25.5 21.4811 25.5V26.5Z" fill="#0D9BBF" mask="url(#path-22-inside-8_2625_8163)"/>
</svg>
