<svg xmlns="http://www.w3.org/2000/svg" xmlns:xlink="http://www.w3.org/1999/xlink" width="500" zoomAndPan="magnify" viewBox="0 0 375 374.999991" height="500" preserveAspectRatio="xMidYMid meet" version="1.0"><defs><clipPath id="debeab7d86"><path d="M 32.296875 27.636719 L 352.546875 27.636719 L 352.546875 347.886719 L 32.296875 347.886719 Z M 32.296875 27.636719 " clip-rule="nonzero"/></clipPath><clipPath id="0ad99508ec"><path d="M 289 180 L 314.851562 180 L 314.851562 189 L 289 189 Z M 289 180 " clip-rule="nonzero"/></clipPath><clipPath id="ecc283da4d"><path d="M 69.734375 180 L 96 180 L 96 189 L 69.734375 189 Z M 69.734375 180 " clip-rule="nonzero"/></clipPath></defs><g clip-path="url(#debeab7d86)"><path fill="#ffbf00" d="M 192.386719 347.816406 C 103.941406 347.816406 32.296875 275.679688 32.296875 187.726562 C 32.296875 99.777344 103.941406 27.636719 192.386719 27.636719 C 280.832031 27.636719 352.476562 99.285156 352.476562 187.726562 C 352.476562 276.171875 280.335938 347.816406 192.386719 347.816406 Z M 192.386719 37.519531 C 109.375 37.519531 42.179688 104.71875 42.179688 187.726562 C 42.179688 270.738281 109.375 337.9375 192.386719 337.9375 C 275.394531 337.9375 342.59375 270.738281 342.59375 187.726562 C 342.59375 104.71875 274.902344 37.519531 192.386719 37.519531 Z M 192.386719 37.519531 " fill-opacity="1" fill-rule="nonzero"/></g><path fill="#ffbf00" d="M 206.835938 333.007812 C 208.128906 327.421875 211.980469 324.007812 216.710938 324.007812 C 219.269531 324.007812 220.976562 321.863281 220.976562 319.71875 L 220.976562 300.015625 C 220.976562 297.433594 219.269531 295.726562 216.710938 295.726562 L 167.433594 295.726562 C 164.847656 295.726562 163.140625 297.433594 163.140625 300.015625 L 163.140625 319.71875 C 163.140625 321.863281 164.847656 324.007812 167.433594 324.007812 C 172.140625 324.007812 175.992188 327.421875 177.699219 333.007812 C 178.136719 334.714844 179.84375 336.421875 181.988281 336.421875 L 202.984375 336.421875 C 204.691406 335.980469 206.421875 334.714844 206.835938 333.007812 " fill-opacity="1" fill-rule="nonzero"/><path fill="#ffbf00" d="M 253.554688 290.140625 C 255.675781 288.875 256.113281 286.289062 255.261719 284.144531 L 246.675781 269.585938 C 245.410156 267.441406 242.824219 267.027344 240.679688 267.878906 C 238.558594 269.148438 238.117188 271.734375 238.972656 273.855469 L 247.554688 288.433594 C 248.824219 291.019531 251.40625 291.433594 253.554688 290.140625 " fill-opacity="1" fill-rule="nonzero"/><path fill="#ffbf00" d="M 298.539062 245.59375 C 299.832031 243.449219 298.976562 240.863281 296.832031 239.574219 L 282.25 231.015625 C 280.105469 229.722656 277.546875 230.574219 276.253906 232.746094 C 274.960938 234.867188 275.839844 237.449219 277.960938 238.71875 L 292.539062 247.300781 C 294.6875 248.15625 297.246094 247.714844 298.539062 245.59375 " fill-opacity="1" fill-rule="nonzero"/><g clip-path="url(#0ad99508ec)"><path fill="#ffbf00" d="M 314.828125 184.320312 C 314.828125 181.738281 313.09375 180.03125 310.535156 180.03125 L 293.832031 180.03125 C 291.25 180.03125 289.542969 181.738281 289.542969 184.320312 C 289.542969 186.882812 291.25 188.613281 293.832031 188.613281 L 310.535156 188.613281 C 312.679688 188.613281 314.828125 186.46875 314.828125 184.320312 " fill-opacity="1" fill-rule="nonzero"/></g><path fill="#ffbf00" d="M 282.25 137.191406 L 296.808594 128.605469 C 298.953125 127.339844 299.390625 124.753906 298.539062 122.609375 C 297.246094 120.488281 294.6875 120.050781 292.539062 120.902344 L 277.960938 129.460938 C 275.8125 130.753906 275.398438 133.335938 276.253906 135.457031 C 277.546875 137.628906 280.105469 138.480469 282.25 137.191406 " fill-opacity="1" fill-rule="nonzero"/><path fill="#ffbf00" d="M 246.703125 98.617188 L 255.261719 84.058594 C 256.550781 81.914062 255.699219 79.355469 253.554688 78.0625 C 251.40625 76.769531 248.824219 77.625 247.554688 79.769531 L 238.972656 94.347656 C 237.703125 96.472656 238.558594 99.054688 240.703125 100.324219 C 242.824219 101.199219 245.410156 100.761719 246.703125 98.617188 " fill-opacity="1" fill-rule="nonzero"/><path fill="#ffbf00" d="M 196.546875 82.769531 L 196.546875 66.066406 C 196.546875 63.480469 194.839844 61.773438 192.28125 61.773438 C 189.695312 61.773438 187.988281 63.480469 187.988281 66.066406 L 187.988281 82.769531 C 187.988281 85.351562 189.695312 87.058594 192.28125 87.058594 C 194.839844 87.058594 196.546875 85.351562 196.546875 82.769531 " fill-opacity="1" fill-rule="nonzero"/><path fill="#ffbf00" d="M 143.855469 100.324219 C 146 99.054688 146.414062 96.472656 145.585938 94.347656 L 137.003906 79.769531 C 135.710938 77.625 133.152344 77.207031 131.007812 78.0625 C 128.859375 79.355469 128.445312 81.914062 129.300781 84.058594 L 137.859375 98.617188 C 139.148438 100.761719 141.710938 101.199219 143.855469 100.324219 " fill-opacity="1" fill-rule="nonzero"/><path fill="#ffbf00" d="M 106.574219 129.898438 L 92.019531 121.316406 C 89.871094 120.050781 87.289062 120.902344 86.019531 123.046875 C 84.726562 125.195312 85.582031 127.753906 87.726562 129.046875 L 102.308594 137.605469 C 104.429688 138.898438 107.011719 138.042969 108.304688 135.898438 C 109.160156 133.75 108.71875 131.191406 106.574219 129.898438 " fill-opacity="1" fill-rule="nonzero"/><g clip-path="url(#ecc283da4d)"><path fill="#ffbf00" d="M 69.734375 184.320312 C 69.734375 186.882812 71.4375 188.613281 74.023438 188.613281 L 90.726562 188.613281 C 93.285156 188.613281 95.015625 186.882812 95.015625 184.320312 C 95.015625 181.738281 93.285156 180.03125 90.726562 180.03125 L 74.023438 180.03125 C 71.878906 180.03125 69.734375 181.738281 69.734375 184.320312 " fill-opacity="1" fill-rule="nonzero"/></g><path fill="#ffbf00" d="M 102.308594 231.453125 L 87.726562 240.011719 C 85.582031 241.304688 85.167969 243.863281 86.019531 246.007812 C 87.3125 248.15625 89.871094 248.570312 92.019531 247.714844 L 106.574219 239.15625 C 108.71875 237.867188 109.160156 235.304688 108.304688 233.160156 C 107.011719 230.574219 104.453125 230.160156 102.308594 231.453125 " fill-opacity="1" fill-rule="nonzero"/><path fill="#ffbf00" d="M 143.855469 268.296875 C 141.710938 267.003906 139.148438 267.878906 137.859375 270 L 129.300781 284.582031 C 128.007812 286.726562 128.859375 289.289062 131.007812 290.582031 C 133.152344 291.875 135.710938 290.996094 137.003906 288.875 L 145.585938 274.292969 C 146.414062 272.148438 145.585938 269.585938 143.855469 268.296875 " fill-opacity="1" fill-rule="nonzero"/><path fill="#ffbf00" d="M 198.691406 187.734375 C 198.691406 191.292969 195.816406 194.171875 192.28125 194.171875 C 188.71875 194.171875 185.84375 191.292969 185.84375 187.734375 C 185.84375 184.199219 188.71875 181.324219 192.28125 181.324219 C 195.816406 181.324219 198.691406 184.199219 198.691406 187.734375 " fill-opacity="1" fill-rule="nonzero"/><path fill="#ffbf00" d="M 229.976562 152.183594 C 229.976562 155.71875 227.097656 158.621094 223.5625 158.621094 C 220.003906 158.621094 217.125 155.71875 217.125 152.183594 C 217.125 148.625 220.003906 145.75 223.5625 145.75 C 227.097656 145.75 229.976562 148.625 229.976562 152.183594 " fill-opacity="1" fill-rule="nonzero"/><path fill="#ffbf00" d="M 163.140625 168.472656 C 163.140625 172.007812 160.265625 174.886719 156.707031 174.886719 C 153.167969 174.886719 150.292969 172.007812 150.292969 168.472656 C 150.292969 164.914062 153.167969 162.035156 156.707031 162.035156 C 160.265625 162.035156 163.140625 164.914062 163.140625 168.472656 " fill-opacity="1" fill-rule="nonzero"/><path fill="#ffbf00" d="M 137.859375 248.15625 C 152 260.152344 160.996094 273 165.289062 287.144531 L 187.988281 287.144531 L 187.988281 264.003906 L 153.707031 231.015625 C 152.851562 230.160156 152.4375 228.894531 152.4375 228.015625 L 152.4375 183.027344 C 146.414062 181.324219 141.710938 175.324219 141.710938 168.886719 C 141.710938 160.742188 148.5625 153.890625 156.707031 153.890625 C 164.847656 153.890625 171.699219 160.742188 171.699219 168.886719 C 171.699219 175.738281 166.996094 181.324219 160.996094 183.027344 L 160.996094 225.871094 L 187.988281 252.007812 L 187.988281 202.316406 C 181.988281 200.585938 177.285156 194.609375 177.285156 188.175781 C 177.285156 180.03125 184.136719 173.179688 192.28125 173.179688 C 200.421875 173.179688 207.273438 180.03125 207.273438 188.175781 C 207.273438 195.023438 202.542969 200.585938 196.546875 202.316406 L 196.546875 228.015625 L 219.269531 216.871094 L 219.269531 166.742188 C 213.273438 165.035156 208.566406 159.035156 208.566406 152.601562 C 208.566406 144.457031 215.417969 137.605469 223.5625 137.605469 C 231.683594 137.605469 238.558594 144.457031 238.558594 152.601562 C 238.558594 159.476562 233.828125 165.035156 227.828125 166.742188 L 227.828125 219.871094 C 227.828125 221.578125 226.976562 222.871094 225.269531 223.75 L 196.546875 237.449219 L 196.546875 286.726562 L 219.269531 286.726562 C 223.5625 272.585938 232.972656 259.738281 247.117188 247.714844 C 266.816406 230.160156 277.105469 204.4375 274.109375 177.882812 C 270.253906 139.75 239.824219 109.320312 201.691406 105.054688 C 198.691406 104.613281 195.277344 104.613281 192.28125 104.613281 C 146.855469 104.613281 110.425781 141.480469 110.425781 186.882812 C 110.011719 210.019531 120.300781 232.304688 137.859375 248.15625 " fill-opacity="1" fill-rule="nonzero"/></svg>