<svg xmlns="http://www.w3.org/2000/svg" xmlns:xlink="http://www.w3.org/1999/xlink" width="500" zoomAndPan="magnify" viewBox="0 0 375 374.999991" height="500" preserveAspectRatio="xMidYMid meet" version="1.0"><defs><clipPath id="1441a048b4"><path d="M 32.296875 27.636719 L 352.546875 27.636719 L 352.546875 347.886719 L 32.296875 347.886719 Z M 32.296875 27.636719 " clip-rule="nonzero"/></clipPath><clipPath id="8c3cde2b73"><path d="M 91.679688 66.855469 L 291 66.855469 L 291 317 L 91.679688 317 Z M 91.679688 66.855469 " clip-rule="nonzero"/></clipPath><clipPath id="4e03e6b653"><path d="M 137 321 L 245 321 L 245 327.855469 L 137 327.855469 Z M 137 321 " clip-rule="nonzero"/></clipPath></defs><g clip-path="url(#1441a048b4)"><path fill="#ffbf00" d="M 192.386719 347.816406 C 103.941406 347.816406 32.296875 275.679688 32.296875 187.726562 C 32.296875 99.777344 103.941406 27.636719 192.386719 27.636719 C 280.832031 27.636719 352.476562 99.285156 352.476562 187.726562 C 352.476562 276.171875 280.335938 347.816406 192.386719 347.816406 Z M 192.386719 37.519531 C 109.375 37.519531 42.179688 104.71875 42.179688 187.726562 C 42.179688 270.738281 109.375 337.9375 192.386719 337.9375 C 275.394531 337.9375 342.59375 270.738281 342.59375 187.726562 C 342.59375 104.71875 274.902344 37.519531 192.386719 37.519531 Z M 192.386719 37.519531 " fill-opacity="1" fill-rule="nonzero"/></g><g clip-path="url(#8c3cde2b73)"><path fill="#ffbf00" d="M 201.910156 248.625 C 199.570312 251.65625 200.316406 253.308594 204.09375 253.574219 C 229.269531 252.988281 253.007812 241.703125 269.347656 222.542969 C 285.691406 203.382812 293.035156 178.097656 289.574219 153.136719 C 263.335938 187.199219 200.742188 190.605469 193.714844 233.5625 C 191.800781 202.902344 190.839844 172.246094 193.929688 141.691406 C 217.507812 109.117188 236.507812 92.566406 274.035156 80.054688 C 230.175781 73.402344 202.976562 90.382812 192.492188 130.835938 C 195.472656 97.941406 181.472656 77.449219 149.164062 66.855469 C 172.636719 84.421875 179.714844 105.765625 188.285156 134.242188 C 186.050781 152.710938 184.773438 171.339844 184.132812 189.914062 C 180.992188 174.105469 172.265625 159.628906 159.648438 148.773438 C 141.660156 133.390625 114.566406 126.417969 91.734375 132.75 C 127.074219 151.378906 106.15625 211.949219 177.375 210.035156 C 169.921875 186.882812 154.488281 163.621094 130.75 152.019531 C 151.824219 156.808594 169.230469 174.53125 178.917969 194.492188 C 185.570312 208.117188 183.816406 223.980469 183.441406 238.988281 C 182.75 267.679688 184.878906 288.117188 185.835938 316.804688 L 198.824219 316.648438 C 198.078125 294.027344 187.964844 250.328125 201.699219 233.136719 C 213.566406 218.285156 233.261719 202.636719 254.925781 195.078125 C 237.308594 205.882812 213.515625 229.144531 201.910156 248.625 " fill-opacity="1" fill-rule="evenodd"/></g><g clip-path="url(#4e03e6b653)"><path fill="#ffbf00" d="M 191.105469 327.503906 C 220.539062 327.503906 244.441406 326.175781 244.441406 324.523438 C 244.441406 322.875 220.59375 321.542969 191.105469 321.542969 C 161.671875 321.542969 137.773438 322.875 137.773438 324.523438 C 137.773438 326.175781 161.671875 327.503906 191.105469 327.503906 " fill-opacity="1" fill-rule="evenodd"/></g><path fill="#ffbf00" d="M 191.105469 317.074219 C 243.695312 317.074219 286.273438 315.421875 286.273438 313.453125 C 286.273438 311.429688 243.640625 309.832031 191.105469 309.832031 C 138.574219 309.832031 95.9375 311.429688 95.9375 313.398438 C 95.9375 315.421875 138.519531 317.074219 191.105469 317.074219 " fill-opacity="1" fill-rule="evenodd"/></svg>