<svg width="44" height="39" viewBox="0 0 44 39" fill="none" xmlns="http://www.w3.org/2000/svg">
<mask id="mask0_74_73" style="mask-type:luminance" maskUnits="userSpaceOnUse" x="4" y="0" width="37" height="9">
<path d="M4.00281 0H40.495V8.94416H4.00281V0Z" fill="white"/>
</mask>
<g mask="url(#mask0_74_73)">
<path d="M22.2517 8.18671C16.8461 8.18671 12.4485 12.5805 12.4485 17.9806C12.4485 23.3815 16.8461 27.7754 22.2517 27.7754C27.6573 27.7754 32.0558 23.3815 32.0558 17.9806C32.0558 12.5805 27.6573 8.18671 22.2517 8.18671ZM22.2517 28.803C16.2787 28.803 11.42 23.948 11.42 17.9806C11.42 12.0141 16.2787 7.15907 22.2517 7.15907C28.2247 7.15907 33.0844 12.0141 33.0844 17.9806C33.0844 23.948 28.2247 28.803 22.2517 28.803ZM24.3247 32.485L25.8052 34.8114C27.0014 34.5608 28.166 34.1835 29.2747 33.6878L29.1033 30.9366L29.3865 30.7791C30.4067 30.2099 31.3608 29.5176 32.2198 28.721L32.4574 28.5012L35.0223 29.512C35.8459 28.6027 36.5689 27.6133 37.1754 26.5623L35.4192 24.4343L35.5552 24.1418C36.0499 23.0769 36.4142 21.957 36.6388 20.8138L36.7012 20.4961L39.3686 19.8067C39.4366 19.1778 39.4702 18.5778 39.4702 17.9806C39.4702 17.3843 39.4366 16.7843 39.3686 16.1554L36.7012 15.4669L36.6388 15.1492C36.4142 14.0041 36.0499 12.8843 35.5562 11.8212L35.4192 11.5268L37.1754 9.39977C36.5689 8.34883 35.8459 7.35938 35.0223 6.45006L32.4574 7.46093L32.2198 7.24105C31.3617 6.4454 30.4086 5.75222 29.3865 5.18296L29.1042 5.02551L29.2747 2.27425C28.166 1.77859 27.0014 1.40126 25.8061 1.15064L24.3247 3.47705L24.0033 3.43885C23.4033 3.36711 22.8135 3.33171 22.2517 3.33171C21.6825 3.33171 21.1095 3.36618 20.5001 3.43885L20.1787 3.47705L18.6973 1.15064C17.502 1.40126 16.3383 1.77859 15.2287 2.27425L15.4001 5.02551L15.1169 5.18296C14.0958 5.75222 13.1426 6.44446 12.2836 7.24105L12.046 7.46093L9.48112 6.45006C8.65751 7.35938 7.93546 8.34883 7.328 9.39977L9.08422 11.5268L8.9482 11.8212C8.45347 12.8843 8.08919 14.0041 7.86465 15.1492L7.80223 15.4669L5.13482 16.1554C5.06773 16.7787 5.03419 17.3918 5.03419 17.9806C5.03419 18.5703 5.06773 19.1834 5.13482 19.8067L7.80223 20.4952L7.86465 20.8129C8.08919 21.9579 8.45347 23.0778 8.9482 24.1409L9.08422 24.4343L7.328 26.5623C7.93546 27.6133 8.65751 28.6027 9.48112 29.512L12.046 28.5012L12.2836 28.721C13.1426 29.5176 14.0958 30.2099 15.1169 30.7791L15.4001 30.9366L15.2287 33.6878C16.3374 34.1835 17.5011 34.5608 18.6973 34.8114L20.1787 32.485L20.5001 32.5232C21.7188 32.6676 22.7837 32.6676 24.0033 32.5232L24.3247 32.485ZM19.1893 35.9537L18.8473 35.8885C17.3306 35.6024 15.8594 35.1264 14.474 34.4732L14.1591 34.3242L14.3333 31.5151C13.4408 30.9925 12.5985 30.3813 11.8243 29.6928L9.20721 30.7251L8.96776 30.4707C7.90658 29.3453 6.99353 28.0949 6.25656 26.7552L6.08793 26.4496L7.88049 24.2778C7.46309 23.3275 7.14166 22.339 6.92179 21.33L4.19847 20.6266L4.15468 20.2809C4.05593 19.4955 4.00562 18.7222 4.00562 17.9806C4.00562 17.2399 4.05593 16.4675 4.15468 15.6812L4.19847 15.3355L6.92179 14.6321C7.14166 13.6231 7.46309 12.6346 7.88049 11.6843L6.08793 9.5125L6.25656 9.20691C6.99353 7.86715 7.90658 6.61683 8.96776 5.49042L9.20721 5.237L11.8243 6.26838C12.5985 5.58079 13.4398 4.96961 14.3333 4.44693L14.1591 1.63791L14.474 1.48884C15.8604 0.835728 17.3315 0.359637 18.8473 0.0736102L19.1893 0.00839233L20.7014 2.38325C21.2334 2.32922 21.743 2.30406 22.2517 2.30406C22.752 2.30406 23.2728 2.33108 23.802 2.38325L25.3142 0.00839233L25.657 0.0736102C27.1719 0.359637 28.644 0.835728 30.0294 1.48884L30.3452 1.63791L30.1701 4.44693C31.0636 4.97054 31.9049 5.58079 32.6791 6.26931L35.2971 5.237L35.5357 5.49135C36.5978 6.61776 37.5099 7.86808 38.2478 9.20691L38.4155 9.5125L36.6229 11.6843C37.0403 12.6346 37.3618 13.6231 37.5826 14.6321L40.305 15.3355L40.3497 15.6821C40.4494 16.4806 40.4987 17.2324 40.4987 17.9806C40.4987 18.7287 40.4494 19.4815 40.3497 20.2809L40.305 20.6266L37.5826 21.33C37.3627 22.3381 37.0403 23.3275 36.622 24.2778L38.4146 26.4496L38.2469 26.7552C37.5099 28.0949 36.5978 29.3453 35.5357 30.4717L35.2971 30.7251L32.6782 29.6928C31.904 30.3813 31.0626 30.9925 30.1701 31.5151L30.3452 34.3242L30.0294 34.4732C28.644 35.1264 27.1719 35.6024 25.6561 35.8885L25.3132 35.9537L23.802 33.5788C22.7371 33.685 21.7654 33.685 20.7014 33.5788L19.1893 35.9537Z" fill="#FFBF00"/>
</g>
<mask id="mask1_74_73" style="mask-type:luminance" maskUnits="userSpaceOnUse" x="4" y="29" width="37" height="10">
<path d="M4.43652 29.6294H40.0343V38.3947H4.43652V29.6294Z" fill="white"/>
</mask>
<g mask="url(#mask1_74_73)">
<path d="M22.2382 30.3738C16.9649 30.3738 12.6754 26.0676 12.6754 20.7747C12.6754 15.4818 16.9649 11.1756 22.2382 11.1756C27.5116 11.1756 31.802 15.4818 31.802 20.7747C31.802 26.0676 27.5116 30.3738 22.2382 30.3738ZM22.2382 10.1684C16.4115 10.1684 11.672 14.9265 11.672 20.7747C11.672 26.6229 16.4115 31.381 22.2382 31.381C28.065 31.381 32.8054 26.6229 32.8054 20.7747C32.8054 14.9265 28.065 10.1684 22.2382 10.1684ZM24.2609 6.56092L25.705 4.28016C26.8715 4.52613 28.0072 4.89507 29.0889 5.38141L28.9221 8.0777L29.1979 8.23236C30.1939 8.79044 31.1237 9.46871 31.9622 10.2485L32.1933 10.4647L34.6958 9.47337C35.4989 10.365 36.2042 11.3349 36.7958 12.3644L35.0833 14.4495L35.2156 14.7374C35.6983 15.7809 36.0542 16.8784 36.2722 17.9992L36.3337 18.3104L38.9359 18.9849C39.002 19.6017 39.0346 20.1896 39.0346 20.7747C39.0346 21.3598 39.002 21.9477 38.9359 22.5645L36.3337 23.239L36.2722 23.5502C36.0542 24.6729 35.6983 25.7704 35.2156 26.812L35.0833 27.0999L36.7958 29.1841C36.2042 30.2145 35.4989 31.1844 34.6958 32.076L32.1933 31.0847L31.9622 31.3009C31.1246 32.0807 30.1948 32.7589 29.1979 33.317L28.9231 33.4717L29.0898 36.1689C28.0072 36.6543 26.8715 37.0233 25.705 37.2692L24.2609 34.9894L23.9469 35.0267C23.3609 35.0965 22.786 35.1319 22.2382 35.1319C21.6829 35.1319 21.1239 35.0975 20.5295 35.0267L20.2155 34.9894L18.7714 37.2692C17.605 37.0233 16.4692 36.6543 15.3875 36.1689L15.5543 33.4717L15.2785 33.317C14.2816 32.7589 13.3518 32.0807 12.5142 31.3009L12.2822 31.0847L9.78067 32.076C8.97756 31.1844 8.27228 30.2145 7.68066 29.185L9.39309 27.0999L9.2608 26.812C8.77818 25.7704 8.42321 24.6729 8.20427 23.5502L8.14277 23.239L5.54058 22.5645C5.47536 21.9533 5.44275 21.3523 5.44275 20.7747C5.44275 20.197 5.47536 19.597 5.54058 18.9849L8.14277 18.3113L8.20427 17.9992C8.42321 16.8765 8.77818 15.7799 9.2608 14.7374L9.39309 14.4495L7.68066 12.3644C8.27228 11.3349 8.97756 10.365 9.78067 9.47337L12.2822 10.4647L12.5142 10.2485C13.3518 9.46871 14.2826 8.79044 15.2785 8.23236L15.5543 8.0777L15.3875 5.38141C16.4692 4.89507 17.604 4.52613 18.7714 4.28016L20.2155 6.56092L20.5295 6.52272C21.7183 6.38111 22.7562 6.38111 23.9469 6.52272L24.2609 6.56092ZM19.2512 3.16121L18.9168 3.22456C17.4382 3.505 16.0025 3.97177 14.6506 4.61184L14.3431 4.75812L14.5136 7.51124C13.6425 8.02274 12.8217 8.62181 12.0661 9.29635L9.51328 8.28547L9.27943 8.53423C8.24433 9.63734 7.35457 10.8625 6.63438 12.1762L6.4704 12.4753L8.21917 14.6042C7.81203 15.5349 7.49805 16.5039 7.28376 17.4933L4.62753 18.1818L4.58467 18.5209C4.48778 19.2905 4.43933 20.0489 4.43933 20.7747C4.43933 21.5005 4.48778 22.2589 4.58467 23.0284L4.62753 23.3676L7.28376 24.057C7.49805 25.0455 7.81203 26.0145 8.21917 26.9462L6.4704 29.0751L6.63438 29.3741C7.35457 30.6869 8.24433 31.912 9.27943 33.0161L9.51328 33.2648L12.0661 32.253C12.8217 32.9276 13.6425 33.5266 14.5136 34.0381L14.3431 36.7922L14.6506 36.9375C16.0034 37.5776 17.4382 38.0453 18.9168 38.3248L19.2512 38.3882L20.7261 36.0608C21.245 36.1139 21.7426 36.1391 22.2382 36.1391C22.7264 36.1391 23.2342 36.1121 23.7503 36.0608L25.2252 38.3882L25.5597 38.3248C27.0383 38.0453 28.473 37.5776 29.8259 36.9375L30.1333 36.7913L29.9628 34.0381C30.8339 33.5257 31.6547 32.9276 32.4094 32.253L34.9632 33.2648L35.197 33.0161C36.2321 31.912 37.1228 30.6859 37.8421 29.3741L38.006 29.0741L36.2573 26.9462C36.6644 26.0145 36.9775 25.0455 37.1927 24.057L39.8489 23.3676L39.8918 23.0284C39.9896 22.2449 40.038 21.5079 40.038 20.7747C40.038 20.0424 39.9896 19.3045 39.8918 18.5209L39.8489 18.1818L37.1927 17.4933C36.9784 16.5048 36.6644 15.5349 36.2563 14.6042L38.0051 12.4753L37.8411 12.1762C37.1219 10.8625 36.2321 9.63734 35.1961 8.5333L34.9632 8.28547L32.4094 9.29635C31.6538 8.62181 30.833 8.02274 29.9619 7.51124L30.1333 4.75812L29.8249 4.61184C28.473 3.97177 27.0383 3.505 25.5597 3.22456L25.2252 3.16121L23.7503 5.48856C22.7115 5.38421 21.7631 5.38421 20.7261 5.48856L19.2512 3.16121Z" fill="white"/>
</g>
<path d="M5.02338 24.9416V14.1527H6.80848V24.9416H5.02338ZM8.58241 19.7018L12.3278 24.9416H10.293L7.41221 20.6968V18.5614L10.0321 14.1527H12.0371L8.58241 19.7018Z" fill="white"/>
<path d="M12.6933 19.4968C12.6933 18.6276 12.7976 17.8589 13.0063 17.19C13.2169 16.522 13.5104 15.9564 13.8859 15.4943C14.2632 15.0303 14.7076 14.6735 15.22 14.4247C15.7315 14.1769 16.2905 14.0325 16.8971 13.9924V15.4571C16.5635 15.4971 16.2505 15.6005 15.9579 15.7664C15.6644 15.9303 15.411 16.1745 15.1977 16.4968C14.9834 16.8173 14.8138 17.2273 14.6871 17.7266C14.5604 18.2242 14.4914 18.8139 14.4821 19.4968C14.4914 20.19 14.5604 20.7826 14.6871 21.2745C14.8138 21.7664 14.9862 22.1792 15.2051 22.5118C15.4231 22.8453 15.6793 23.0969 15.9728 23.2683C16.2654 23.4379 16.5738 23.5366 16.8971 23.5664V25.0161C16.3008 24.9761 15.7436 24.8326 15.2275 24.5838C14.7104 24.336 14.2632 23.9792 13.8859 23.5143C13.5104 23.0503 13.2169 22.481 13.0063 21.8074C12.7976 21.1347 12.6933 20.3642 12.6933 19.4968ZM17.4822 13.9924C18.0756 14.0223 18.6281 14.1639 19.1406 14.4173C19.6548 14.6707 20.0993 15.0303 20.4747 15.4943C20.8493 15.9564 21.1437 16.522 21.358 17.19C21.5741 17.8589 21.6822 18.6276 21.6822 19.4968C21.6822 20.3642 21.5741 21.1347 21.358 21.8074C21.1437 22.481 20.8493 23.0503 20.4747 23.5143C20.0993 23.9792 19.6567 24.336 19.148 24.5838C18.6412 24.8326 18.0859 24.9761 17.4822 25.0161V23.5664C17.812 23.5273 18.1241 23.423 18.4176 23.2534C18.7101 23.082 18.9635 22.8323 19.1778 22.5043C19.394 22.1764 19.5654 21.7664 19.6921 21.2745C19.8188 20.7826 19.8868 20.19 19.8971 19.4968C19.8868 18.8037 19.8188 18.2111 19.6921 17.7192C19.5654 17.2254 19.3912 16.8154 19.1704 16.4894C18.9514 16.1614 18.6952 15.9136 18.4027 15.744C18.1092 15.5726 17.8027 15.472 17.4822 15.4421V13.9924Z" fill="white"/>
<path d="M24.0966 24.9416H22.3115V14.1527H24.0966V24.9416Z" fill="white"/>
<path d="M24.6963 19.4968C24.6963 18.6276 24.8006 17.8589 25.0093 17.19C25.2199 16.522 25.5134 15.9564 25.8888 15.4943C26.2662 15.0303 26.7106 14.6735 27.223 14.4247C27.7345 14.1769 28.2935 14.0325 28.9 13.9924V15.457C28.5665 15.4971 28.2535 15.6005 27.9609 15.7664C27.6674 15.9303 27.414 16.1744 27.2007 16.4968C26.9864 16.8173 26.8168 17.2272 26.6901 17.7266C26.5634 18.2241 26.4944 18.8139 26.4851 19.4968C26.4944 20.19 26.5634 20.7825 26.6901 21.2745C26.8168 21.7664 26.9892 22.1791 27.2081 22.5117C27.4261 22.8453 27.6823 23.0968 27.9758 23.2683C28.2684 23.4378 28.5768 23.5366 28.9 23.5664V25.0161C28.3038 24.9761 27.7466 24.8326 27.2305 24.5838C26.7134 24.336 26.2662 23.9792 25.8888 23.5142C25.5134 23.0503 25.2199 22.481 25.0093 21.8074C24.8006 21.1347 24.6963 20.3642 24.6963 19.4968ZM29.4851 13.9924C30.0786 14.0222 30.6311 14.1639 31.1435 14.4173C31.6578 14.6707 32.1022 15.0303 32.4777 15.4943C32.8522 15.9564 33.1467 16.522 33.3609 17.19C33.5771 17.8589 33.6852 18.6276 33.6852 19.4968C33.6852 20.3642 33.5771 21.1347 33.3609 21.8074C33.1467 22.481 32.8522 23.0503 32.4777 23.5142C32.1022 23.9792 31.6597 24.336 31.151 24.5838C30.6442 24.8326 30.0889 24.9761 29.4851 25.0161V23.5664C29.815 23.5273 30.1271 23.4229 30.4206 23.2534C30.7131 23.0819 30.9665 22.8322 31.1808 22.5043C31.397 22.1763 31.5684 21.7664 31.6951 21.2745C31.8218 20.7825 31.8898 20.19 31.9001 19.4968C31.8898 18.8036 31.8218 18.2111 31.6951 17.7192C31.5684 17.2254 31.3942 16.8154 31.1734 16.4893C30.9544 16.1614 30.6982 15.9136 30.4056 15.744C30.1122 15.5726 29.8056 15.4719 29.4851 15.4421V13.9924Z" fill="white"/>
<path d="M39.2491 15.8223C39.1988 15.8027 39.1392 15.7692 39.0702 15.7217C39.0031 15.6723 38.9062 15.6266 38.7795 15.5838C38.6528 15.5391 38.4907 15.5018 38.2951 15.472C38.1013 15.4422 37.8525 15.4375 37.5497 15.4571V13.9776C37.9792 13.9878 38.4153 14.0353 38.8578 14.1192C39.3022 14.2012 39.6609 14.3307 39.9348 14.5068C39.8771 14.6335 39.8091 14.7732 39.7299 14.9241C39.6525 15.0732 39.5789 15.2139 39.51 15.3453C39.4429 15.4776 39.3842 15.5875 39.3348 15.6769C39.2873 15.7645 39.2584 15.813 39.2491 15.8223ZM34.1994 16.9925C34.1994 16.563 34.2721 16.1782 34.4193 15.8372C34.5655 15.4943 34.7631 15.1943 35.0118 14.9353C35.2596 14.6772 35.5522 14.4732 35.8876 14.3241C36.2249 14.1732 36.5789 14.0726 36.9497 14.0223V15.5577C36.6385 15.6676 36.3805 15.8558 36.1746 16.1242C35.9705 16.3925 35.869 16.6636 35.869 16.9366C35.869 17.3167 35.9705 17.6242 36.1746 17.8571C36.3805 18.0909 36.6385 18.2959 36.9497 18.472V20.1416C36.6292 19.9851 36.3069 19.8173 35.9845 19.6385C35.6612 19.4577 35.3677 19.2453 35.105 19.0012C34.8413 18.7552 34.6242 18.472 34.4528 18.1515C34.2832 17.8291 34.1994 17.4425 34.1994 16.9925ZM34.4342 22.9664C34.5702 23.0438 34.7435 23.1192 34.9522 23.1938C35.1627 23.2664 35.3808 23.3345 35.6044 23.3987C35.828 23.4612 36.0516 23.5124 36.2752 23.5515C36.5006 23.5916 36.7112 23.6112 36.905 23.6112H36.9497V25.0012H36.9199C36.686 25.0012 36.4447 24.9882 36.1969 24.964C35.9482 24.9397 35.6975 24.8988 35.4441 24.841C35.1907 24.7814 34.9485 24.7012 34.7174 24.5988C34.4882 24.4944 34.2907 24.3705 34.1248 24.2261L34.4342 22.9664ZM37.5497 18.7627C37.8721 18.9099 38.2019 19.0664 38.5373 19.2323C38.8746 19.399 39.1802 19.6012 39.4541 19.8397C39.7271 20.0782 39.9507 20.3689 40.1249 20.7118C40.301 21.0528 40.3895 21.4776 40.3895 21.9863C40.3895 22.3366 40.3233 22.6785 40.192 23.0112C40.0597 23.3419 39.8752 23.641 39.6367 23.9093C39.3982 24.1776 39.1019 24.405 38.7497 24.5913C38.3994 24.7758 37.9988 24.8969 37.5497 24.9565V23.5515C38.3491 23.3559 38.7497 22.8239 38.7497 21.9565C38.7497 21.6136 38.6379 21.3304 38.4143 21.1068C38.1907 20.8832 37.9019 20.6736 37.5497 20.477V18.7627Z" fill="white"/>
<path d="M6.0752 8.9982H44.0003" stroke="#FFBF00" stroke-width="0.715797"/>
<path d="M1.25 29.2716H38.9972" stroke="white" stroke-width="0.71617"/>
<path d="M43.6133 28.9931V8.77834" stroke="#FFBF00" stroke-width="0.714496"/>
<path d="M1.24902 29.6294L1.24902 8.69913" stroke="white" stroke-width="0.714532"/>
<path d="M40.5155 29.2716H43.9143" stroke="#FFBF00" stroke-width="0.709434"/>
<path d="M1 8.98424H4.39878" stroke="white" stroke-width="0.709434"/>
</svg>
