<svg xmlns="http://www.w3.org/2000/svg" xmlns:xlink="http://www.w3.org/1999/xlink" width="500" zoomAndPan="magnify" viewBox="0 0 375 374.999991" height="500" preserveAspectRatio="xMidYMid meet" version="1.0"><defs><clipPath id="ea28bb1dd6"><path d="M 32.296875 27.636719 L 352.546875 27.636719 L 352.546875 347.886719 L 32.296875 347.886719 Z M 32.296875 27.636719 " clip-rule="nonzero"/></clipPath><clipPath id="c200c04428"><path d="M 176 58.207031 L 210 58.207031 L 210 91 L 176 91 Z M 176 58.207031 " clip-rule="nonzero"/></clipPath><clipPath id="ff9b843744"><path d="M 261 269 L 295 269 L 295 301.957031 L 261 301.957031 Z M 261 269 " clip-rule="nonzero"/></clipPath></defs><g clip-path="url(#ea28bb1dd6)"><path fill="#ffbf00" d="M 192.386719 347.816406 C 103.941406 347.816406 32.296875 275.679688 32.296875 187.726562 C 32.296875 99.777344 103.941406 27.636719 192.386719 27.636719 C 280.832031 27.636719 352.476562 99.285156 352.476562 187.726562 C 352.476562 276.171875 280.335938 347.816406 192.386719 347.816406 Z M 192.386719 37.519531 C 109.375 37.519531 42.179688 104.71875 42.179688 187.726562 C 42.179688 270.738281 109.375 337.9375 192.386719 337.9375 C 275.394531 337.9375 342.59375 270.738281 342.59375 187.726562 C 342.59375 104.71875 274.902344 37.519531 192.386719 37.519531 Z M 192.386719 37.519531 " fill-opacity="1" fill-rule="nonzero"/></g><path fill="#000000" d="M 215.429688 195.121094 C 216.03125 193.445312 217.523438 192.257812 219.300781 192.257812 L 225.484375 192.257812 L 225.484375 176.023438 L 219.300781 176.023438 C 217.523438 176.023438 216.03125 174.832031 215.429688 173.15625 C 215.082031 172.1875 214.691406 171.242188 214.257812 170.320312 C 213.5 168.707031 213.714844 166.8125 214.976562 165.550781 L 219.34375 161.179688 L 207.875 149.699219 L 203.507812 154.070312 C 202.25 155.332031 200.351562 155.550781 198.742188 154.789062 C 197.820312 154.355469 196.871094 153.960938 195.90625 153.617188 C 194.226562 153.011719 193.039062 151.519531 193.039062 149.738281 L 193.039062 143.550781 L 176.820312 143.550781 L 176.820312 149.738281 C 176.820312 151.519531 175.628906 153.011719 173.957031 153.613281 C 172.988281 153.960938 172.042969 154.351562 171.121094 154.785156 C 169.511719 155.546875 167.617188 155.332031 166.355469 154.066406 L 161.988281 149.695312 L 150.519531 161.175781 L 154.886719 165.546875 C 156.144531 166.804688 156.363281 168.703125 155.605469 170.316406 C 155.171875 171.234375 154.777344 172.1875 154.433594 173.152344 C 153.828125 174.832031 152.335938 176.023438 150.558594 176.023438 L 144.375 176.023438 L 144.375 192.257812 L 150.558594 192.257812 C 152.335938 192.257812 153.828125 193.445312 154.429688 195.121094 C 154.777344 196.09375 155.167969 197.039062 155.601562 197.960938 C 156.359375 199.570312 156.144531 201.464844 154.882812 202.726562 L 150.515625 207.097656 L 161.984375 218.578125 L 166.351562 214.207031 C 167.609375 212.949219 169.507812 212.730469 171.117188 213.488281 C 172.039062 213.921875 172.988281 214.316406 173.953125 214.660156 C 175.628906 215.265625 176.820312 216.757812 176.820312 218.539062 L 176.820312 224.726562 L 193.039062 224.726562 L 193.039062 218.539062 C 193.039062 216.757812 194.226562 215.265625 195.902344 214.664062 C 196.871094 214.316406 197.816406 213.925781 198.738281 213.492188 C 200.347656 212.734375 202.242188 212.949219 203.503906 214.210938 L 207.871094 218.582031 L 219.339844 207.101562 L 214.972656 202.730469 C 213.714844 201.472656 213.496094 199.574219 214.253906 197.964844 C 214.691406 197.035156 215.082031 196.089844 215.429688 195.121094 Z M 184.929688 200.375 C 175.972656 200.375 168.707031 193.105469 168.707031 184.140625 C 168.707031 175.171875 175.972656 167.902344 184.929688 167.902344 C 193.886719 167.902344 201.152344 175.171875 201.152344 184.140625 C 201.152344 193.105469 193.886719 200.375 184.929688 200.375 Z M 184.929688 200.375 " fill-opacity="1" fill-rule="nonzero"/><path fill="#000000" d="M 275.300781 106.117188 C 259.550781 90.351562 239.855469 79.238281 218.332031 73.976562 L 216.40625 81.863281 C 236.484375 86.769531 254.863281 97.144531 269.5625 111.855469 C 304.351562 146.691406 315.660156 198.464844 298.933594 244.601562 L 289.152344 240.683594 L 294.59375 265.039062 L 316.359375 251.578125 L 306.460938 247.617188 C 324.402344 198.460938 312.382812 143.246094 275.300781 106.117188 Z M 275.300781 106.117188 " fill-opacity="1" fill-rule="nonzero"/><path fill="#000000" d="M 230.234375 211.34375 C 229.4375 213.925781 228.425781 216.457031 227.238281 218.875 L 234.519531 222.457031 C 235.890625 219.664062 237.054688 216.734375 237.980469 213.75 Z M 230.234375 211.34375 " fill-opacity="1" fill-rule="nonzero"/><path fill="#000000" d="M 186.414062 110.765625 C 164.75 110.765625 144.386719 119.210938 129.070312 134.546875 C 100.457031 163.195312 100.457031 209.8125 129.070312 238.464844 C 141.621094 251.03125 158.308594 257.953125 176.058594 257.953125 C 193.808594 257.953125 210.5 251.03125 223.050781 238.464844 L 217.316406 232.726562 C 206.292969 243.757812 191.644531 249.832031 176.058594 249.832031 C 160.476562 249.832031 145.828125 243.757812 134.804688 232.726562 C 109.355469 207.242188 109.355469 165.773438 134.804688 140.289062 C 148.589844 126.484375 166.914062 118.886719 186.414062 118.886719 C 205.90625 118.886719 224.230469 126.488281 238.015625 140.289062 C 269.8125 172.121094 269.8125 223.921875 238.015625 255.753906 C 217 276.804688 187.609375 286.097656 158.515625 281.183594 L 161.152344 271.589844 L 136.820312 279.988281 L 153.136719 300.777344 L 156.359375 289.046875 C 162.191406 290.082031 168.03125 290.609375 173.828125 290.609375 C 199.808594 290.609375 224.882812 280.390625 243.753906 261.492188 C 278.710938 226.492188 278.710938 169.542969 243.753906 134.546875 C 228.4375 119.210938 208.074219 110.765625 186.414062 110.765625 Z M 186.414062 110.765625 " fill-opacity="1" fill-rule="nonzero"/><path fill="#000000" d="M 98.988281 243.761719 C 69.269531 203.046875 73.582031 147.574219 109.253906 111.855469 C 119.957031 101.144531 132.375 92.882812 146.191406 87.191406 L 150.136719 98.90625 L 164.652344 77.777344 L 140.320312 69.742188 L 143.601562 79.488281 C 128.597656 85.59375 115.113281 94.515625 103.519531 106.117188 C 65.003906 144.683594 60.34375 204.585938 92.4375 248.550781 Z M 98.988281 243.761719 " fill-opacity="1" fill-rule="nonzero"/><g clip-path="url(#c200c04428)"><path fill="#000000" d="M 209.261719 74.554688 C 209.261719 75.085938 209.234375 75.617188 209.183594 76.144531 C 209.132812 76.671875 209.054688 77.199219 208.949219 77.71875 C 208.847656 78.242188 208.71875 78.757812 208.5625 79.265625 C 208.410156 79.773438 208.230469 80.273438 208.027344 80.765625 C 207.824219 81.257812 207.597656 81.738281 207.347656 82.207031 C 207.09375 82.675781 206.824219 83.128906 206.527344 83.574219 C 206.230469 84.015625 205.917969 84.441406 205.578125 84.851562 C 205.242188 85.261719 204.886719 85.65625 204.511719 86.03125 C 204.132812 86.410156 203.742188 86.765625 203.332031 87.101562 C 202.921875 87.441406 202.492188 87.757812 202.050781 88.050781 C 201.609375 88.347656 201.15625 88.621094 200.6875 88.871094 C 200.21875 89.121094 199.738281 89.347656 199.246094 89.550781 C 198.757812 89.753906 198.257812 89.933594 197.75 90.089844 C 197.242188 90.242188 196.726562 90.371094 196.203125 90.476562 C 195.683594 90.578125 195.160156 90.65625 194.628906 90.710938 C 194.101562 90.761719 193.570312 90.789062 193.039062 90.789062 C 192.507812 90.789062 191.980469 90.761719 191.449219 90.710938 C 190.921875 90.65625 190.398438 90.578125 189.875 90.476562 C 189.355469 90.371094 188.839844 90.242188 188.332031 90.089844 C 187.824219 89.933594 187.324219 89.753906 186.832031 89.550781 C 186.339844 89.347656 185.863281 89.121094 185.394531 88.871094 C 184.925781 88.621094 184.46875 88.347656 184.027344 88.050781 C 183.585938 87.757812 183.160156 87.441406 182.75 87.101562 C 182.339844 86.765625 181.945312 86.410156 181.570312 86.03125 C 181.195312 85.65625 180.839844 85.261719 180.5 84.851562 C 180.164062 84.441406 179.847656 84.015625 179.550781 83.574219 C 179.257812 83.128906 178.984375 82.675781 178.734375 82.207031 C 178.484375 81.738281 178.257812 81.257812 178.054688 80.765625 C 177.851562 80.273438 177.671875 79.773438 177.515625 79.265625 C 177.363281 78.757812 177.234375 78.242188 177.128906 77.71875 C 177.027344 77.199219 176.949219 76.671875 176.898438 76.144531 C 176.84375 75.617188 176.820312 75.085938 176.820312 74.554688 C 176.820312 74.019531 176.84375 73.492188 176.898438 72.960938 C 176.949219 72.433594 177.027344 71.90625 177.128906 71.386719 C 177.234375 70.863281 177.363281 70.347656 177.515625 69.839844 C 177.671875 69.332031 177.851562 68.832031 178.054688 68.339844 C 178.257812 67.847656 178.484375 67.367188 178.734375 66.898438 C 178.984375 66.429688 179.257812 65.976562 179.550781 65.535156 C 179.847656 65.089844 180.164062 64.664062 180.5 64.253906 C 180.839844 63.84375 181.195312 63.449219 181.570312 63.074219 C 181.945312 62.699219 182.339844 62.339844 182.75 62.003906 C 183.160156 61.667969 183.585938 61.351562 184.027344 61.054688 C 184.46875 60.757812 184.925781 60.484375 185.394531 60.234375 C 185.863281 59.984375 186.339844 59.757812 186.832031 59.554688 C 187.324219 59.351562 187.824219 59.171875 188.332031 59.015625 C 188.839844 58.863281 189.355469 58.734375 189.875 58.628906 C 190.398438 58.527344 190.921875 58.449219 191.449219 58.394531 C 191.980469 58.34375 192.507812 58.316406 193.039062 58.316406 C 193.570312 58.316406 194.101562 58.34375 194.628906 58.394531 C 195.160156 58.449219 195.683594 58.527344 196.203125 58.628906 C 196.726562 58.734375 197.242188 58.863281 197.75 59.015625 C 198.257812 59.171875 198.757812 59.351562 199.246094 59.554688 C 199.738281 59.757812 200.21875 59.984375 200.6875 60.234375 C 201.15625 60.484375 201.609375 60.757812 202.050781 61.054688 C 202.492188 61.351562 202.921875 61.667969 203.332031 62.003906 C 203.742188 62.339844 204.132812 62.699219 204.511719 63.074219 C 204.886719 63.449219 205.242188 63.84375 205.578125 64.253906 C 205.917969 64.664062 206.230469 65.089844 206.527344 65.535156 C 206.824219 65.976562 207.09375 66.429688 207.347656 66.898438 C 207.597656 67.367188 207.824219 67.847656 208.027344 68.339844 C 208.230469 68.832031 208.410156 69.332031 208.5625 69.839844 C 208.71875 70.347656 208.847656 70.863281 208.949219 71.386719 C 209.054688 71.90625 209.132812 72.433594 209.183594 72.960938 C 209.234375 73.492188 209.261719 74.019531 209.261719 74.554688 Z M 209.261719 74.554688 " fill-opacity="1" fill-rule="nonzero"/></g><g clip-path="url(#ff9b843744)"><path fill="#000000" d="M 294.421875 285.609375 C 294.421875 286.140625 294.398438 286.667969 294.34375 287.199219 C 294.292969 287.726562 294.214844 288.253906 294.109375 288.773438 C 294.007812 289.296875 293.878906 289.8125 293.722656 290.320312 C 293.570312 290.828125 293.390625 291.328125 293.1875 291.820312 C 292.984375 292.3125 292.757812 292.792969 292.507812 293.261719 C 292.257812 293.730469 291.984375 294.183594 291.6875 294.628906 C 291.394531 295.070312 291.078125 295.496094 290.742188 295.90625 C 290.402344 296.316406 290.046875 296.710938 289.671875 297.085938 C 289.296875 297.464844 288.902344 297.820312 288.492188 298.15625 C 288.082031 298.496094 287.65625 298.8125 287.214844 299.105469 C 286.773438 299.402344 286.316406 299.675781 285.847656 299.925781 C 285.378906 300.175781 284.898438 300.402344 284.410156 300.605469 C 283.917969 300.808594 283.417969 300.988281 282.910156 301.144531 C 282.402344 301.296875 281.886719 301.425781 281.367188 301.53125 C 280.84375 301.632812 280.320312 301.710938 279.792969 301.765625 C 279.261719 301.816406 278.734375 301.84375 278.203125 301.84375 C 277.671875 301.84375 277.140625 301.816406 276.613281 301.765625 C 276.082031 301.710938 275.558594 301.632812 275.035156 301.53125 C 274.515625 301.425781 274 301.296875 273.492188 301.144531 C 272.984375 300.988281 272.484375 300.808594 271.992188 300.605469 C 271.503906 300.402344 271.023438 300.175781 270.554688 299.925781 C 270.085938 299.675781 269.632812 299.402344 269.1875 299.105469 C 268.746094 298.8125 268.320312 298.496094 267.910156 298.15625 C 267.5 297.820312 267.105469 297.464844 266.730469 297.085938 C 266.355469 296.710938 266 296.316406 265.664062 295.90625 C 265.324219 295.496094 265.007812 295.070312 264.714844 294.628906 C 264.417969 294.183594 264.144531 293.730469 263.894531 293.261719 C 263.644531 292.792969 263.417969 292.3125 263.214844 291.820312 C 263.011719 291.328125 262.832031 290.828125 262.679688 290.320312 C 262.523438 289.8125 262.394531 289.296875 262.292969 288.773438 C 262.1875 288.253906 262.109375 287.726562 262.058594 287.199219 C 262.007812 286.667969 261.980469 286.140625 261.980469 285.609375 C 261.980469 285.074219 262.007812 284.546875 262.058594 284.015625 C 262.109375 283.488281 262.1875 282.960938 262.292969 282.441406 C 262.394531 281.917969 262.523438 281.402344 262.679688 280.894531 C 262.832031 280.386719 263.011719 279.886719 263.214844 279.394531 C 263.417969 278.902344 263.644531 278.421875 263.894531 277.953125 C 264.144531 277.484375 264.417969 277.03125 264.714844 276.585938 C 265.007812 276.144531 265.324219 275.71875 265.664062 275.308594 C 266 274.898438 266.355469 274.503906 266.730469 274.128906 C 267.105469 273.75 267.5 273.394531 267.910156 273.058594 C 268.320312 272.71875 268.746094 272.402344 269.1875 272.109375 C 269.632812 271.8125 270.085938 271.539062 270.554688 271.289062 C 271.023438 271.039062 271.503906 270.8125 271.992188 270.609375 C 272.484375 270.40625 272.984375 270.226562 273.492188 270.070312 C 274 269.917969 274.515625 269.789062 275.035156 269.683594 C 275.558594 269.582031 276.082031 269.503906 276.613281 269.449219 C 277.140625 269.398438 277.671875 269.371094 278.203125 269.371094 C 278.734375 269.371094 279.261719 269.398438 279.792969 269.449219 C 280.320312 269.503906 280.84375 269.582031 281.367188 269.683594 C 281.886719 269.789062 282.402344 269.917969 282.910156 270.070312 C 283.417969 270.226562 283.917969 270.40625 284.410156 270.609375 C 284.898438 270.8125 285.378906 271.039062 285.847656 271.289062 C 286.316406 271.539062 286.773438 271.8125 287.214844 272.109375 C 287.65625 272.402344 288.082031 272.71875 288.492188 273.058594 C 288.902344 273.394531 289.296875 273.75 289.671875 274.128906 C 290.046875 274.503906 290.402344 274.898438 290.742188 275.308594 C 291.078125 275.71875 291.394531 276.144531 291.6875 276.585938 C 291.984375 277.03125 292.257812 277.484375 292.507812 277.953125 C 292.757812 278.421875 292.984375 278.902344 293.1875 279.394531 C 293.390625 279.886719 293.570312 280.386719 293.722656 280.894531 C 293.878906 281.402344 294.007812 281.917969 294.109375 282.441406 C 294.214844 282.960938 294.292969 283.488281 294.34375 284.015625 C 294.398438 284.546875 294.421875 285.074219 294.421875 285.609375 Z M 294.421875 285.609375 " fill-opacity="1" fill-rule="nonzero"/></g><path fill="#000000" d="M 128.15625 265.3125 C 128.15625 265.84375 128.128906 266.375 128.078125 266.90625 C 128.023438 267.433594 127.945312 267.960938 127.84375 268.480469 C 127.738281 269.003906 127.609375 269.519531 127.457031 270.027344 C 127.300781 270.535156 127.125 271.035156 126.921875 271.527344 C 126.71875 272.019531 126.492188 272.496094 126.238281 272.96875 C 125.988281 273.4375 125.714844 273.890625 125.421875 274.332031 C 125.125 274.777344 124.808594 275.203125 124.472656 275.613281 C 124.136719 276.023438 123.78125 276.417969 123.402344 276.792969 C 123.027344 277.167969 122.636719 277.527344 122.226562 277.863281 C 121.8125 278.199219 121.386719 278.515625 120.945312 278.8125 C 120.503906 279.109375 120.050781 279.382812 119.582031 279.632812 C 119.113281 279.882812 118.632812 280.109375 118.140625 280.3125 C 117.652344 280.515625 117.152344 280.695312 116.644531 280.851562 C 116.132812 281.003906 115.621094 281.132812 115.097656 281.238281 C 114.578125 281.339844 114.050781 281.417969 113.523438 281.46875 C 112.996094 281.523438 112.464844 281.546875 111.933594 281.546875 C 111.402344 281.546875 110.871094 281.523438 110.34375 281.46875 C 109.816406 281.417969 109.289062 281.339844 108.769531 281.238281 C 108.25 281.132812 107.734375 281.003906 107.226562 280.851562 C 106.71875 280.695312 106.21875 280.515625 105.726562 280.3125 C 105.234375 280.109375 104.757812 279.882812 104.289062 279.632812 C 103.820312 279.382812 103.363281 279.109375 102.921875 278.8125 C 102.480469 278.515625 102.054688 278.199219 101.644531 277.863281 C 101.234375 277.527344 100.839844 277.167969 100.464844 276.792969 C 100.089844 276.417969 99.730469 276.023438 99.394531 275.613281 C 99.058594 275.203125 98.742188 274.777344 98.445312 274.332031 C 98.152344 273.890625 97.878906 273.4375 97.628906 272.96875 C 97.378906 272.496094 97.152344 272.019531 96.949219 271.527344 C 96.746094 271.035156 96.566406 270.535156 96.410156 270.027344 C 96.257812 269.519531 96.128906 269.003906 96.023438 268.480469 C 95.921875 267.960938 95.84375 267.433594 95.789062 266.90625 C 95.738281 266.375 95.710938 265.84375 95.710938 265.3125 C 95.710938 264.78125 95.738281 264.25 95.789062 263.722656 C 95.84375 263.191406 95.921875 262.667969 96.023438 262.144531 C 96.128906 261.625 96.257812 261.109375 96.410156 260.601562 C 96.566406 260.09375 96.746094 259.59375 96.949219 259.101562 C 97.152344 258.609375 97.378906 258.128906 97.628906 257.660156 C 97.878906 257.191406 98.152344 256.734375 98.445312 256.292969 C 98.742188 255.851562 99.058594 255.425781 99.394531 255.015625 C 99.730469 254.601562 100.089844 254.210938 100.464844 253.832031 C 100.839844 253.457031 101.234375 253.101562 101.644531 252.765625 C 102.054688 252.425781 102.480469 252.109375 102.921875 251.816406 C 103.363281 251.519531 103.820312 251.246094 104.289062 250.996094 C 104.757812 250.746094 105.234375 250.519531 105.726562 250.316406 C 106.21875 250.109375 106.71875 249.933594 107.226562 249.777344 C 107.734375 249.625 108.25 249.496094 108.769531 249.390625 C 109.289062 249.285156 109.816406 249.210938 110.34375 249.15625 C 110.871094 249.105469 111.402344 249.078125 111.933594 249.078125 C 112.464844 249.078125 112.996094 249.105469 113.523438 249.15625 C 114.050781 249.210938 114.578125 249.285156 115.097656 249.390625 C 115.621094 249.496094 116.132812 249.625 116.644531 249.777344 C 117.152344 249.933594 117.652344 250.109375 118.140625 250.316406 C 118.632812 250.519531 119.113281 250.746094 119.582031 250.996094 C 120.050781 251.246094 120.503906 251.519531 120.945312 251.816406 C 121.386719 252.109375 121.8125 252.425781 122.226562 252.765625 C 122.636719 253.101562 123.027344 253.457031 123.402344 253.832031 C 123.78125 254.210938 124.136719 254.601562 124.472656 255.015625 C 124.808594 255.425781 125.125 255.851562 125.421875 256.292969 C 125.714844 256.734375 125.988281 257.191406 126.238281 257.660156 C 126.492188 258.128906 126.71875 258.609375 126.921875 259.101562 C 127.125 259.59375 127.300781 260.09375 127.457031 260.601562 C 127.609375 261.109375 127.738281 261.625 127.84375 262.144531 C 127.945312 262.667969 128.023438 263.191406 128.078125 263.722656 C 128.128906 264.25 128.15625 264.78125 128.15625 265.3125 Z M 128.15625 265.3125 " fill-opacity="1" fill-rule="nonzero"/></svg>