<svg xmlns="http://www.w3.org/2000/svg" xmlns:xlink="http://www.w3.org/1999/xlink" width="250" zoomAndPan="magnify" viewBox="0 0 187.5 187.499992" height="250" preserveAspectRatio="xMidYMid meet" version="1.0"><defs><clipPath id="b46709926a"><path d="M 26.429688 41.101562 L 160.324219 41.101562 L 160.324219 145.824219 L 26.429688 145.824219 Z M 26.429688 41.101562 " clip-rule="nonzero"/></clipPath></defs><path fill="#ffbf00" d="M 93.5 187 C 41.84375 187 0 144.867188 0 93.5 C 0 42.132812 41.84375 0 93.5 0 C 145.15625 0 187 41.84375 187 93.5 C 187 145.15625 144.867188 187 93.5 187 Z M 93.5 5.773438 C 45.019531 5.773438 5.773438 45.019531 5.773438 93.5 C 5.773438 141.984375 45.019531 181.230469 93.5 181.230469 C 141.984375 181.230469 181.230469 141.984375 181.230469 93.5 C 181.230469 45.019531 141.695312 5.773438 93.5 5.773438 Z M 93.5 5.773438 " fill-opacity="1" fill-rule="nonzero"/><g clip-path="url(#b46709926a)"><path fill="#ffbf00" d="M 160.492188 68.234375 L 160.523438 139.925781 C 160.523438 143.160156 157.886719 145.796875 154.65625 145.796875 L 103.542969 145.816406 C 104.3125 144.507812 104.757812 142.988281 104.757812 141.363281 C 104.757812 139.601562 104.238281 137.964844 103.347656 136.589844 C 108.070312 136.4375 111.859375 132.550781 111.859375 127.792969 C 111.859375 125.546875 111.015625 123.496094 109.625 121.9375 C 112.34375 120.441406 114.191406 117.546875 114.191406 114.226562 C 114.191406 110.519531 111.886719 107.339844 108.636719 106.046875 C 109.789062 104.558594 110.480469 102.6875 110.480469 100.660156 C 110.480469 95.808594 106.535156 91.863281 101.683594 91.863281 L 97.210938 91.863281 L 97.199219 68.257812 C 97.199219 66.53125 97.863281 65.046875 99.144531 63.890625 L 119.859375 45.242188 C 122.519531 42.851562 125.261719 41.097656 128.839844 41.097656 C 132.414062 41.097656 135.15625 42.847656 137.816406 45.238281 L 158.546875 63.871094 C 159.832031 65.023438 160.492188 66.511719 160.492188 68.234375 Z M 66.144531 145.898438 L 95.957031 145.898438 C 98.460938 145.898438 100.496094 143.863281 100.496094 141.363281 C 100.496094 138.859375 98.460938 136.824219 95.957031 136.824219 L 83.980469 136.824219 C 82.738281 136.824219 81.734375 135.816406 81.734375 134.578125 C 81.734375 133.339844 82.738281 132.332031 83.980469 132.332031 L 103.058594 132.332031 C 105.5625 132.332031 107.597656 130.296875 107.597656 127.792969 C 107.597656 125.292969 105.5625 123.253906 103.058594 123.253906 L 83.980469 123.253906 C 82.738281 123.253906 81.734375 122.25 81.734375 121.007812 C 81.734375 119.773438 82.738281 118.765625 83.980469 118.765625 L 105.390625 118.765625 C 107.890625 118.765625 109.929688 116.726562 109.929688 114.226562 C 109.929688 111.726562 107.890625 109.691406 105.390625 109.691406 L 83.980469 109.691406 C 82.738281 109.691406 81.734375 108.683594 81.734375 107.445312 C 81.734375 106.207031 82.738281 105.199219 83.980469 105.199219 L 101.683594 105.199219 C 104.183594 105.199219 106.21875 103.160156 106.21875 100.660156 C 106.21875 98.160156 104.183594 96.125 101.683594 96.125 L 76.007812 96.125 C 75.128906 96.125 74.328125 95.609375 73.964844 94.808594 C 73.597656 94.011719 73.734375 93.070312 74.308594 92.40625 C 78.203125 87.914062 78.929688 79.390625 74.742188 75.203125 C 74.375 74.832031 73.871094 74.703125 73.367188 74.847656 C 72.863281 74.988281 72.503906 75.363281 72.382812 75.875 C 70.585938 83.503906 69.554688 84.683594 61.769531 89.238281 C 57.125 92.273438 57.125 92.273438 54.105469 96.675781 C 53.769531 97.171875 53.398438 97.714844 52.980469 98.316406 C 50.832031 101.425781 47.75 103.019531 43.828125 103.054688 L 43.609375 103.058594 L 43.609375 140.464844 C 45.207031 140.980469 46.746094 141.554688 48.25 142.117188 C 53.226562 143.972656 58.371094 145.898438 66.144531 145.898438 Z M 39.121094 144.136719 C 39.121094 144.457031 38.851562 144.71875 38.539062 144.71875 L 27.085938 144.71875 C 26.769531 144.71875 26.503906 144.457031 26.503906 144.136719 L 26.503906 96.132812 C 26.503906 95.820312 26.769531 95.550781 27.085938 95.550781 L 38.539062 95.550781 C 38.851562 95.550781 39.121094 95.820312 39.121094 96.132812 Z M 124.988281 63.8125 C 127.121094 65.941406 130.574219 65.941406 132.703125 63.808594 C 134.835938 61.679688 134.832031 58.222656 132.703125 56.09375 C 130.570312 53.964844 127.117188 53.964844 124.984375 56.097656 C 122.855469 58.226562 122.855469 61.683594 124.988281 63.8125 Z M 140.667969 96.285156 C 138.996094 92.308594 135.816406 90.007812 132.324219 89.125 C 131.882812 89.011719 131.441406 88.925781 130.992188 88.859375 L 130.992188 86.113281 C 130.992188 84.9375 130.039062 83.980469 128.863281 83.980469 C 127.683594 83.980469 126.730469 84.9375 126.730469 86.113281 L 126.730469 88.890625 C 126.550781 88.921875 126.371094 88.953125 126.191406 88.988281 C 124.167969 89.398438 122.273438 90.25 120.746094 91.488281 C 118.433594 93.367188 116.96875 96.097656 117.132812 99.5 C 117.296875 102.902344 119 105.1875 121.367188 106.734375 C 123.488281 108.121094 126.121094 108.839844 128.550781 109.238281 C 130.636719 109.582031 132.867188 110.128906 134.589844 111.167969 C 136.0625 112.058594 137.171875 113.363281 137.410156 115.335938 C 137.441406 115.574219 137.457031 115.761719 137.460938 115.90625 C 137.496094 117.523438 136.730469 118.753906 135.582031 119.625 C 134.242188 120.640625 132.386719 121.238281 130.546875 121.460938 C 130.066406 121.519531 129.632812 121.554688 129.25 121.5625 C 127.058594 121.613281 124.894531 121.074219 123.195312 119.941406 C 121.761719 118.988281 120.664062 117.585938 120.203125 115.746094 C 119.921875 114.605469 118.773438 113.910156 117.632812 114.1875 C 116.492188 114.46875 115.796875 115.621094 116.074219 116.761719 C 116.816406 119.726562 118.5625 121.96875 120.847656 123.488281 C 122.574219 124.640625 124.609375 125.363281 126.730469 125.65625 L 126.730469 128.414062 C 126.730469 129.589844 127.683594 130.542969 128.863281 130.542969 C 130.039062 130.542969 130.992188 129.589844 130.992188 128.414062 L 130.992188 125.695312 L 131.046875 125.691406 C 133.554688 125.386719 136.148438 124.519531 138.144531 123.003906 C 140.328125 121.347656 141.78125 118.980469 141.703125 115.804688 C 141.695312 115.445312 141.675781 115.125 141.640625 114.835938 C 141.214844 111.332031 139.3125 109.042969 136.789062 107.519531 C 134.511719 106.148438 131.761719 105.460938 129.234375 105.042969 C 127.285156 104.726562 125.21875 104.175781 123.683594 103.171875 C 122.390625 102.328125 121.464844 101.101562 121.378906 99.300781 C 121.285156 97.390625 122.117188 95.851562 123.425781 94.785156 C 124.414062 93.980469 125.667969 93.425781 127.023438 93.152344 C 128.402344 92.875 129.878906 92.894531 131.289062 93.253906 C 133.570312 93.832031 135.644531 95.332031 136.738281 97.933594 C 137.191406 99.019531 138.441406 99.53125 139.527344 99.074219 C 140.609375 98.617188 141.121094 97.371094 140.667969 96.285156 Z M 140.667969 96.285156 " fill-opacity="1" fill-rule="evenodd"/></g></svg>