<svg xmlns="http://www.w3.org/2000/svg" xmlns:xlink="http://www.w3.org/1999/xlink" width="250" zoomAndPan="magnify" viewBox="0 0 187.5 187.499992" height="250" preserveAspectRatio="xMidYMid meet" version="1.0"><defs><clipPath id="deaa9fb232"><path d="M 104 35 L 161.996094 35 L 161.996094 152 L 104 152 Z M 104 35 " clip-rule="nonzero"/></clipPath><clipPath id="531591f645"><path d="M 25.109375 22.050781 L 99 22.050781 L 99 164.917969 L 25.109375 164.917969 Z M 25.109375 22.050781 " clip-rule="nonzero"/></clipPath></defs><path fill="#ffbf00" d="M 93.5 187 C 41.84375 187 0 144.867188 0 93.5 C 0 42.132812 41.84375 0 93.5 0 C 145.15625 0 187 41.84375 187 93.5 C 187 145.15625 144.867188 187 93.5 187 Z M 93.5 5.773438 C 45.019531 5.773438 5.773438 45.019531 5.773438 93.5 C 5.773438 141.984375 45.019531 181.230469 93.5 181.230469 C 141.984375 181.230469 181.230469 141.984375 181.230469 93.5 C 181.230469 45.019531 141.695312 5.773438 93.5 5.773438 Z M 93.5 5.773438 " fill-opacity="1" fill-rule="nonzero"/><g clip-path="url(#deaa9fb232)"><path fill="#ffbf00" d="M 104.359375 53.890625 C 126.066406 54.085938 143.605469 71.742188 143.605469 93.496094 C 143.605469 115.25 126.066406 132.90625 104.359375 133.101562 L 104.359375 151.488281 C 136.222656 151.292969 161.992188 125.40625 161.992188 93.496094 C 161.992188 61.585938 136.222656 35.703125 104.359375 35.503906 L 104.359375 53.890625 " fill-opacity="1" fill-rule="nonzero"/></g><path fill="#ffbf00" d="M 129.867188 93.496094 C 129.867188 92.371094 130.777344 91.457031 131.90625 91.457031 L 135.890625 91.457031 C 137.019531 91.457031 137.933594 92.371094 137.933594 93.496094 C 137.933594 94.625 137.019531 95.535156 135.890625 95.535156 L 131.90625 95.535156 C 130.777344 95.535156 129.867188 94.625 129.867188 93.496094 " fill-opacity="1" fill-rule="nonzero"/><path fill="#ffbf00" d="M 124.574219 78.113281 C 124.574219 77.460938 124.886719 76.820312 125.464844 76.425781 L 128.765625 74.179688 C 129.695312 73.546875 130.964844 73.789062 131.597656 74.722656 C 132.230469 75.652344 131.988281 76.917969 131.058594 77.554688 L 127.761719 79.796875 C 126.828125 80.429688 125.5625 80.1875 124.925781 79.257812 C 124.6875 78.90625 124.574219 78.507812 124.574219 78.113281 " fill-opacity="1" fill-rule="nonzero"/><path fill="#ffbf00" d="M 114.199219 69.03125 C 114.199219 68.726562 114.269531 68.414062 114.414062 68.121094 L 116.199219 64.554688 C 116.703125 63.546875 117.929688 63.140625 118.9375 63.644531 C 119.945312 64.148438 120.351562 65.371094 119.847656 66.378906 L 118.0625 69.945312 C 117.558594 70.953125 116.335938 71.363281 115.328125 70.859375 C 114.613281 70.5 114.199219 69.78125 114.199219 69.03125 " fill-opacity="1" fill-rule="nonzero"/><path fill="#ffbf00" d="M 124.574219 108.882812 C 124.574219 108.488281 124.6875 108.089844 124.925781 107.738281 C 125.558594 106.804688 126.828125 106.5625 127.761719 107.195312 L 131.058594 109.441406 C 131.988281 110.074219 132.230469 111.339844 131.597656 112.273438 C 130.964844 113.203125 129.695312 113.445312 128.765625 112.8125 L 125.464844 110.570312 C 124.886719 110.175781 124.574219 109.535156 124.574219 108.882812 " fill-opacity="1" fill-rule="nonzero"/><path fill="#ffbf00" d="M 114.199219 117.960938 C 114.199219 117.214844 114.613281 116.492188 115.328125 116.136719 C 116.335938 115.632812 117.558594 116.039062 118.0625 117.046875 L 119.847656 120.613281 C 120.351562 121.621094 119.945312 122.84375 118.9375 123.347656 C 117.929688 123.851562 116.703125 123.445312 116.199219 122.4375 L 114.414062 118.871094 C 114.269531 118.578125 114.199219 118.269531 114.199219 117.960938 " fill-opacity="1" fill-rule="nonzero"/><path fill="#ffbf00" d="M 101.953125 66.140625 L 101.953125 62.152344 C 101.953125 61.027344 102.867188 60.113281 103.996094 60.113281 C 105.121094 60.113281 106.035156 61.027344 106.035156 62.152344 L 106.035156 66.140625 C 106.035156 67.265625 105.121094 68.179688 103.996094 68.179688 C 102.867188 68.179688 101.953125 67.265625 101.953125 66.140625 " fill-opacity="1" fill-rule="nonzero"/><path fill="#ffbf00" d="M 101.953125 124.839844 L 101.953125 120.851562 C 101.953125 119.726562 102.867188 118.8125 103.996094 118.8125 C 105.121094 118.8125 106.035156 119.726562 106.035156 120.851562 L 106.035156 124.839844 C 106.035156 125.96875 105.121094 126.878906 103.996094 126.878906 C 102.867188 126.878906 101.953125 125.96875 101.953125 124.839844 " fill-opacity="1" fill-rule="nonzero"/><path fill="#ffbf00" d="M 101.601562 94.042969 C 101.601562 93.941406 101.609375 93.835938 101.625 93.734375 C 101.710938 93.164062 102.039062 92.65625 102.523438 92.335938 L 114.765625 84.292969 C 115.707031 83.675781 116.972656 83.9375 117.589844 84.878906 C 118.210938 85.820312 117.949219 87.085938 117.007812 87.703125 L 106.65625 94.5 L 119.246094 109.832031 C 119.960938 110.703125 119.835938 111.988281 118.964844 112.703125 C 118.09375 113.417969 116.808594 113.292969 116.09375 112.421875 L 102.066406 95.335938 C 101.761719 94.96875 101.601562 94.511719 101.601562 94.042969 " fill-opacity="1" fill-rule="nonzero"/><g clip-path="url(#531591f645)"><path fill="#ffbf00" d="M 50.246094 61.070312 C 50.246094 61.464844 50.132812 61.863281 49.898438 62.210938 C 45.699219 68.441406 42.84375 75.34375 41.40625 82.730469 C 41.21875 83.6875 40.378906 84.378906 39.402344 84.378906 L 31.167969 84.378906 C 30.015625 84.378906 29.082031 85.3125 29.082031 86.464844 L 29.082031 100.527344 C 29.082031 101.679688 30.015625 102.613281 31.167969 102.613281 L 39.402344 102.613281 C 40.378906 102.613281 41.21875 103.308594 41.40625 104.265625 C 42.84375 111.648438 45.699219 118.554688 49.898438 124.785156 C 50.445312 125.59375 50.339844 126.675781 49.648438 127.367188 L 43.832031 133.183594 C 43.4375 133.578125 43.21875 134.105469 43.21875 134.660156 C 43.21875 135.21875 43.4375 135.742188 43.832031 136.136719 L 53.773438 146.082031 C 54.585938 146.894531 55.914062 146.894531 56.726562 146.082031 L 62.542969 140.261719 C 63.234375 139.570312 64.316406 139.464844 65.125 140.011719 C 71.355469 144.210938 78.261719 147.070312 85.644531 148.507812 C 86.605469 148.691406 87.296875 149.53125 87.296875 150.507812 L 87.296875 158.742188 C 87.296875 159.894531 88.230469 160.828125 89.382812 160.828125 L 94.214844 160.828125 L 94.214844 135.136719 C 72.253906 133.984375 54.714844 115.714844 54.714844 93.496094 C 54.714844 71.277344 72.253906 53.007812 94.214844 51.859375 L 94.214844 26.164062 L 89.382812 26.164062 C 88.230469 26.164062 87.296875 27.101562 87.296875 28.25 L 87.296875 36.484375 C 87.296875 37.460938 86.605469 38.300781 85.644531 38.488281 C 78.261719 39.925781 71.359375 42.78125 65.125 46.980469 C 64.316406 47.527344 63.234375 47.421875 62.546875 46.734375 L 56.726562 40.914062 C 55.914062 40.101562 54.585938 40.101562 53.773438 40.914062 L 43.832031 50.859375 C 43.4375 51.253906 43.21875 51.777344 43.21875 52.332031 C 43.21875 52.890625 43.4375 53.414062 43.832031 53.808594 L 49.648438 59.628906 C 50.042969 60.023438 50.246094 60.546875 50.246094 61.070312 Z M 25.003906 100.527344 L 25.003906 86.464844 C 25.003906 83.066406 27.769531 80.300781 31.167969 80.300781 L 37.746094 80.300781 C 39.253906 73.542969 41.890625 67.179688 45.59375 61.339844 L 40.945312 56.691406 C 39.78125 55.527344 39.140625 53.980469 39.140625 52.332031 C 39.140625 50.6875 39.78125 49.136719 40.945312 47.972656 L 50.890625 38.03125 C 53.296875 35.625 57.207031 35.625 59.609375 38.027344 L 64.257812 42.675781 C 70.097656 38.972656 76.460938 36.339844 83.21875 34.828125 L 83.21875 28.25 C 83.21875 24.851562 85.984375 22.085938 89.382812 22.085938 L 96.253906 22.085938 C 97.378906 22.085938 98.292969 23 98.292969 24.125 L 98.292969 53.839844 C 98.292969 54.964844 97.382812 55.875 96.261719 55.878906 C 75.601562 55.960938 58.792969 72.835938 58.792969 93.496094 C 58.792969 114.15625 75.601562 131.03125 96.261719 131.113281 C 97.382812 131.121094 98.292969 132.03125 98.292969 133.152344 L 98.292969 162.867188 C 98.292969 163.996094 97.378906 164.90625 96.253906 164.90625 L 89.382812 164.90625 C 85.984375 164.90625 83.21875 162.144531 83.21875 158.742188 L 83.21875 152.164062 C 76.460938 150.65625 70.097656 148.023438 64.257812 144.316406 L 59.609375 148.964844 C 57.207031 151.367188 53.296875 151.367188 50.890625 148.964844 L 40.945312 139.019531 C 39.78125 137.855469 39.140625 136.308594 39.140625 134.660156 C 39.140625 133.011719 39.78125 131.464844 40.945312 130.300781 L 45.59375 125.652344 C 41.890625 119.8125 39.253906 113.449219 37.746094 106.695312 L 31.167969 106.695312 C 27.769531 106.695312 25.003906 103.929688 25.003906 100.527344 " fill-opacity="1" fill-rule="nonzero"/></g></svg>