<svg xmlns="http://www.w3.org/2000/svg" xmlns:xlink="http://www.w3.org/1999/xlink" width="250" zoomAndPan="magnify" viewBox="0 0 187.5 187.499992" height="250" preserveAspectRatio="xMidYMid meet" version="1.0"><defs><clipPath id="f24145431f"><path d="M 46.542969 25.445312 L 140.789062 25.445312 L 140.789062 161.582031 L 46.542969 161.582031 Z M 46.542969 25.445312 " clip-rule="nonzero"/></clipPath></defs><path fill="#ffbf00" d="M 93.5 187 C 41.84375 187 0 144.867188 0 93.5 C 0 42.132812 41.84375 0 93.5 0 C 145.15625 0 187 41.84375 187 93.5 C 187 145.15625 144.867188 187 93.5 187 Z M 93.5 5.773438 C 45.019531 5.773438 5.773438 45.019531 5.773438 93.5 C 5.773438 141.984375 45.019531 181.230469 93.5 181.230469 C 141.984375 181.230469 181.230469 141.984375 181.230469 93.5 C 181.230469 45.019531 141.695312 5.773438 93.5 5.773438 Z M 93.5 5.773438 " fill-opacity="1" fill-rule="nonzero"/><g clip-path="url(#f24145431f)"><path fill="#ffbf00" d="M 106.664062 93.636719 C 117.128906 87.863281 124.347656 75.621094 124.347656 61.453125 C 124.347656 41.726562 110.359375 25.734375 93.09375 25.734375 C 75.835938 25.734375 61.84375 41.726562 61.84375 61.453125 C 61.84375 75.746094 69.191406 88.070312 79.800781 93.777344 C 60.53125 99.636719 46.507812 117.542969 46.507812 138.726562 L 46.507812 161.257812 L 140.460938 161.257812 L 140.460938 138.730469 C 140.460938 117.359375 126.191406 99.335938 106.664062 93.636719 Z M 111.292969 130.417969 C 106.929688 135.265625 93.527344 146.160156 93.527344 146.160156 L 93.441406 146.160156 C 93.441406 146.160156 80.039062 135.265625 75.675781 130.417969 C 71.699219 126 71.472656 119.402344 75.675781 115.199219 C 79.882812 110.992188 86.691406 110.992188 90.898438 115.199219 L 93.441406 117.742188 L 93.484375 117.703125 L 93.527344 117.742188 L 96.074219 115.199219 C 100.277344 110.992188 107.089844 110.992188 111.292969 115.199219 C 115.496094 119.402344 115.269531 126 111.292969 130.417969 Z M 111.292969 130.417969 " fill-opacity="1" fill-rule="nonzero"/></g></svg>