<svg width="1440" height="1160" viewBox="0 0 1440 1160" fill="none" xmlns="http://www.w3.org/2000/svg">
<g filter="url(#filter0_d_446_10554)">
<mask id="path-1-inside-1_446_10554" fill="white">
<path d="M860.721 1760.2L942.943 1877.74C1004.61 1862.03 1064.34 1839.82 1120.9 1811.58L1105.81 1669.03L1120.19 1660.21C1171.99 1628.35 1220.06 1590.24 1262.96 1546.93L1274.82 1534.97L1410.51 1581.73C1451.31 1532.64 1486.7 1479.62 1515.89 1423.65L1419.77 1317.04L1426.19 1301.54C1449.53 1245.1 1465.97 1186.1 1475.09 1126.2L1477.63 1109.56L1614.83 1067.75C1616.96 1034.93 1617.36 1003.68 1616.02 972.653C1614.68 941.674 1611.59 910.576 1606.64 878.056L1466.35 848.27L1462.39 831.904C1448.15 772.919 1426.69 715.555 1398.62 661.433L1390.84 646.445L1477.42 531.997C1443.51 478.757 1403.69 428.974 1358.81 383.579L1227.66 441.853L1214.81 430.963C1168.39 391.551 1117.26 357.677 1062.82 330.395L1047.78 322.848L1050.48 179.527C991.702 156.264 930.278 139.273 867.539 128.934L795.698 253.124L778.892 251.861C747.522 249.48 716.765 248.964 687.542 250.224C657.932 251.502 628.204 254.578 596.673 259.721L580.039 262.427L497.768 144.885C436.153 160.588 376.468 182.803 319.86 211.043L334.945 353.597L320.565 362.413C268.726 394.279 220.7 432.382 177.803 475.696L165.938 487.652L30.2546 440.888C-10.5482 489.979 -45.8888 543.005 -75.1307 598.968L20.9893 705.535L14.5737 721.136C-8.77712 777.475 -25.2157 836.475 -34.3286 896.468L-36.8634 913.114L-174.069 954.87C-176.161 987.403 -176.531 1019.33 -175.211 1049.92C-173.889 1080.56 -170.771 1112.33 -165.884 1144.57L-25.5922 1174.35L-21.633 1190.72C-7.38683 1249.7 14.0724 1307.07 42.189 1361.19L49.9224 1376.13L-36.6598 1490.63C-2.70642 1543.86 37.0701 1593.65 81.9494 1639.04L213.101 1580.77L225.952 1591.66C272.42 1631.12 323.549 1664.94 377.94 1692.23L393.026 1699.77L390.276 1843.1C449.058 1866.36 510.433 1883.35 573.221 1893.69L645.062 1769.5L661.867 1770.76C725.58 1775.53 780.973 1773.14 844.087 1762.9L860.721 1760.2ZM601.37 1951.93L583.438 1949.31C503.899 1937.85 426.31 1916.42 352.782 1885.59L336.067 1878.56L338.833 1732.23C291.234 1707.07 246.054 1677.21 204.238 1643.18L70.4205 1702.68L57.3954 1690C-0.326368 1633.91 -50.6225 1571 -91.9596 1503.05L-101.416 1487.55L-13.0423 1370.7C-36.8838 1322.26 -55.8192 1271.63 -69.5182 1219.7L-212.751 1189.26L-215.804 1171.4C-222.701 1130.82 -227.052 1090.76 -228.714 1052.23C-230.375 1013.75 -229.489 973.506 -226.114 932.431L-224.612 914.375L-84.5319 871.719C-75.3564 818.803 -60.8526 766.725 -41.2716 716.416L-139.382 607.607L-131.295 591.352C-95.9643 520.093 -51.2736 453.086 1.40052 392.184L13.2874 378.48L151.731 426.192C190.462 388.732 232.854 355.091 278.158 325.932L262.799 180.383L278.845 171.932C349.494 134.89 424.949 106.854 503.157 88.5927L520.796 84.4372L604.775 204.427C632.326 200.426 658.778 197.976 685.239 196.834C711.263 195.712 738.415 195.947 766.058 197.47L839.39 70.6942L857.37 73.3132C936.812 84.7742 1014.45 106.206 1087.98 137.029L1104.74 144.065L1101.93 290.397C1149.58 315.596 1194.71 345.413 1236.52 379.447L1370.39 319.94L1383.36 332.619C1441.14 388.757 1491.38 451.669 1532.77 519.571L1542.18 535.071L1453.8 651.924C1477.64 700.36 1496.58 750.996 1510.33 802.922L1653.51 833.359L1656.61 851.265C1663.59 892.524 1667.84 931.476 1669.52 970.345C1671.2 1009.21 1670.32 1048.43 1666.92 1090.19L1665.37 1108.25L1525.34 1150.9C1516.16 1203.77 1501.61 1255.9 1481.98 1306.21L1580.09 1415.02L1572.05 1431.27C1536.72 1502.53 1492.08 1569.53 1439.36 1630.44L1427.52 1644.14L1288.98 1596.38C1250.25 1633.89 1207.86 1667.53 1162.6 1696.69L1178.01 1842.24L1161.91 1850.69C1091.31 1887.73 1015.81 1915.77 937.603 1934.03L919.915 1938.19L835.985 1818.2C780.83 1826.1 730.284 1828.28 674.701 1825.15L601.37 1951.93Z"/>
</mask>
<path d="M860.721 1760.2L942.943 1877.74C1004.61 1862.03 1064.34 1839.82 1120.9 1811.58L1105.81 1669.03L1120.19 1660.21C1171.99 1628.35 1220.06 1590.24 1262.96 1546.93L1274.82 1534.97L1410.51 1581.73C1451.31 1532.64 1486.7 1479.62 1515.89 1423.65L1419.77 1317.04L1426.19 1301.54C1449.53 1245.1 1465.97 1186.1 1475.09 1126.2L1477.63 1109.56L1614.83 1067.75C1616.96 1034.93 1617.36 1003.68 1616.02 972.653C1614.68 941.674 1611.59 910.576 1606.64 878.056L1466.35 848.27L1462.39 831.904C1448.15 772.919 1426.69 715.555 1398.62 661.433L1390.84 646.445L1477.42 531.997C1443.51 478.757 1403.69 428.974 1358.81 383.579L1227.66 441.853L1214.81 430.963C1168.39 391.551 1117.26 357.677 1062.82 330.395L1047.78 322.848L1050.48 179.527C991.702 156.264 930.278 139.273 867.539 128.934L795.698 253.124L778.892 251.861C747.522 249.48 716.765 248.964 687.542 250.224C657.932 251.502 628.204 254.578 596.673 259.721L580.039 262.427L497.768 144.885C436.153 160.588 376.468 182.803 319.86 211.043L334.945 353.597L320.565 362.413C268.726 394.279 220.7 432.382 177.803 475.696L165.938 487.652L30.2546 440.888C-10.5482 489.979 -45.8888 543.005 -75.1307 598.968L20.9893 705.535L14.5737 721.136C-8.77712 777.475 -25.2157 836.475 -34.3286 896.468L-36.8634 913.114L-174.069 954.87C-176.161 987.403 -176.531 1019.33 -175.211 1049.92C-173.889 1080.56 -170.771 1112.33 -165.884 1144.57L-25.5922 1174.35L-21.633 1190.72C-7.38683 1249.7 14.0724 1307.07 42.189 1361.19L49.9224 1376.13L-36.6598 1490.63C-2.70642 1543.86 37.0701 1593.65 81.9494 1639.04L213.101 1580.77L225.952 1591.66C272.42 1631.12 323.549 1664.94 377.94 1692.23L393.026 1699.77L390.276 1843.1C449.058 1866.36 510.433 1883.35 573.221 1893.69L645.062 1769.5L661.867 1770.76C725.58 1775.53 780.973 1773.14 844.087 1762.9L860.721 1760.2ZM601.37 1951.93L583.438 1949.31C503.899 1937.85 426.31 1916.42 352.782 1885.59L336.067 1878.56L338.833 1732.23C291.234 1707.07 246.054 1677.21 204.238 1643.18L70.4205 1702.68L57.3954 1690C-0.326368 1633.91 -50.6225 1571 -91.9596 1503.05L-101.416 1487.55L-13.0423 1370.7C-36.8838 1322.26 -55.8192 1271.63 -69.5182 1219.7L-212.751 1189.26L-215.804 1171.4C-222.701 1130.82 -227.052 1090.76 -228.714 1052.23C-230.375 1013.75 -229.489 973.506 -226.114 932.431L-224.612 914.375L-84.5319 871.719C-75.3564 818.803 -60.8526 766.725 -41.2716 716.416L-139.382 607.607L-131.295 591.352C-95.9643 520.093 -51.2736 453.086 1.40052 392.184L13.2874 378.48L151.731 426.192C190.462 388.732 232.854 355.091 278.158 325.932L262.799 180.383L278.845 171.932C349.494 134.89 424.949 106.854 503.157 88.5927L520.796 84.4372L604.775 204.427C632.326 200.426 658.778 197.976 685.239 196.834C711.263 195.712 738.415 195.947 766.058 197.47L839.39 70.6942L857.37 73.3132C936.812 84.7742 1014.45 106.206 1087.98 137.029L1104.74 144.065L1101.93 290.397C1149.58 315.596 1194.71 345.413 1236.52 379.447L1370.39 319.94L1383.36 332.619C1441.14 388.757 1491.38 451.669 1532.77 519.571L1542.18 535.071L1453.8 651.924C1477.64 700.36 1496.58 750.996 1510.33 802.922L1653.51 833.359L1656.61 851.265C1663.59 892.524 1667.84 931.476 1669.52 970.345C1671.2 1009.21 1670.32 1048.43 1666.92 1090.19L1665.37 1108.25L1525.34 1150.9C1516.16 1203.77 1501.61 1255.9 1481.98 1306.21L1580.09 1415.02L1572.05 1431.27C1536.72 1502.53 1492.08 1569.53 1439.36 1630.44L1427.52 1644.14L1288.98 1596.38C1250.25 1633.89 1207.86 1667.53 1162.6 1696.69L1178.01 1842.24L1161.91 1850.69C1091.31 1887.73 1015.81 1915.77 937.603 1934.03L919.915 1938.19L835.985 1818.2C780.83 1826.1 730.284 1828.28 674.701 1825.15L601.37 1951.93Z" fill="url(#paint0_radial_446_10554)" fill-opacity="0.101961" shape-rendering="crispEdges"/>
<path d="M860.721 1760.2L942.943 1877.74C1004.61 1862.03 1064.34 1839.82 1120.9 1811.58L1105.81 1669.03L1120.19 1660.21C1171.99 1628.35 1220.06 1590.24 1262.96 1546.93L1274.82 1534.97L1410.51 1581.73C1451.31 1532.64 1486.7 1479.62 1515.89 1423.65L1419.77 1317.04L1426.19 1301.54C1449.53 1245.1 1465.97 1186.1 1475.09 1126.2L1477.63 1109.56L1614.83 1067.75C1616.96 1034.93 1617.36 1003.68 1616.02 972.653C1614.68 941.674 1611.59 910.576 1606.64 878.056L1466.35 848.27L1462.39 831.904C1448.15 772.919 1426.69 715.555 1398.62 661.433L1390.84 646.445L1477.42 531.997C1443.51 478.757 1403.69 428.974 1358.81 383.579L1227.66 441.853L1214.81 430.963C1168.39 391.551 1117.26 357.677 1062.82 330.395L1047.78 322.848L1050.48 179.527C991.702 156.264 930.278 139.273 867.539 128.934L795.698 253.124L778.892 251.861C747.522 249.48 716.765 248.964 687.542 250.224C657.932 251.502 628.204 254.578 596.673 259.721L580.039 262.427L497.768 144.885C436.153 160.588 376.468 182.803 319.86 211.043L334.945 353.597L320.565 362.413C268.726 394.279 220.7 432.382 177.803 475.696L165.938 487.652L30.2546 440.888C-10.5482 489.979 -45.8888 543.005 -75.1307 598.968L20.9893 705.535L14.5737 721.136C-8.77712 777.475 -25.2157 836.475 -34.3286 896.468L-36.8634 913.114L-174.069 954.87C-176.161 987.403 -176.531 1019.33 -175.211 1049.92C-173.889 1080.56 -170.771 1112.33 -165.884 1144.57L-25.5922 1174.35L-21.633 1190.72C-7.38683 1249.7 14.0724 1307.07 42.189 1361.19L49.9224 1376.13L-36.6598 1490.63C-2.70642 1543.86 37.0701 1593.65 81.9494 1639.04L213.101 1580.77L225.952 1591.66C272.42 1631.12 323.549 1664.94 377.94 1692.23L393.026 1699.77L390.276 1843.1C449.058 1866.36 510.433 1883.35 573.221 1893.69L645.062 1769.5L661.867 1770.76C725.58 1775.53 780.973 1773.14 844.087 1762.9L860.721 1760.2ZM601.37 1951.93L583.438 1949.31C503.899 1937.85 426.31 1916.42 352.782 1885.59L336.067 1878.56L338.833 1732.23C291.234 1707.07 246.054 1677.21 204.238 1643.18L70.4205 1702.68L57.3954 1690C-0.326368 1633.91 -50.6225 1571 -91.9596 1503.05L-101.416 1487.55L-13.0423 1370.7C-36.8838 1322.26 -55.8192 1271.63 -69.5182 1219.7L-212.751 1189.26L-215.804 1171.4C-222.701 1130.82 -227.052 1090.76 -228.714 1052.23C-230.375 1013.75 -229.489 973.506 -226.114 932.431L-224.612 914.375L-84.5319 871.719C-75.3564 818.803 -60.8526 766.725 -41.2716 716.416L-139.382 607.607L-131.295 591.352C-95.9643 520.093 -51.2736 453.086 1.40052 392.184L13.2874 378.48L151.731 426.192C190.462 388.732 232.854 355.091 278.158 325.932L262.799 180.383L278.845 171.932C349.494 134.89 424.949 106.854 503.157 88.5927L520.796 84.4372L604.775 204.427C632.326 200.426 658.778 197.976 685.239 196.834C711.263 195.712 738.415 195.947 766.058 197.47L839.39 70.6942L857.37 73.3132C936.812 84.7742 1014.45 106.206 1087.98 137.029L1104.74 144.065L1101.93 290.397C1149.58 315.596 1194.71 345.413 1236.52 379.447L1370.39 319.94L1383.36 332.619C1441.14 388.757 1491.38 451.669 1532.77 519.571L1542.18 535.071L1453.8 651.924C1477.64 700.36 1496.58 750.996 1510.33 802.922L1653.51 833.359L1656.61 851.265C1663.59 892.524 1667.84 931.476 1669.52 970.345C1671.2 1009.21 1670.32 1048.43 1666.92 1090.19L1665.37 1108.25L1525.34 1150.9C1516.16 1203.77 1501.61 1255.9 1481.98 1306.21L1580.09 1415.02L1572.05 1431.27C1536.72 1502.53 1492.08 1569.53 1439.36 1630.44L1427.52 1644.14L1288.98 1596.38C1250.25 1633.89 1207.86 1667.53 1162.6 1696.69L1178.01 1842.24L1161.91 1850.69C1091.31 1887.73 1015.81 1915.77 937.603 1934.03L919.915 1938.19L835.985 1818.2C780.83 1826.1 730.284 1828.28 674.701 1825.15L601.37 1951.93Z" stroke="url(#paint1_radial_446_10554)" stroke-width="2" shape-rendering="crispEdges" mask="url(#path-1-inside-1_446_10554)"/>

</g>
<defs>
<filter id="filter0_d_446_10554" x="-279.528" y="0.694092" width="1999.87" height="1981.23" filterUnits="userSpaceOnUse" color-interpolation-filters="sRGB">
<feFlood flood-opacity="0" result="BackgroundImageFix"/>
<feColorMatrix in="SourceAlpha" type="matrix" values="0 0 0 0 0 0 0 0 0 0 0 0 0 0 0 0 0 0 127 0" result="hardAlpha"/>
<feOffset dy="-20"/>
<feGaussianBlur stdDeviation="25"/>
<feComposite in2="hardAlpha" operator="out"/>
<feColorMatrix type="matrix" values="0 0 0 0 1 0 0 0 0 1 0 0 0 0 1 0 0 0 0.2 0"/>
<feBlend mode="normal" in2="BackgroundImageFix" result="effect1_dropShadow_446_10554"/>
<feBlend mode="normal" in="SourceGraphic" in2="effect1_dropShadow_446_10554" result="shape"/>
</filter>
<radialGradient id="paint0_radial_446_10554" cx="0" cy="0" r="1" gradientUnits="userSpaceOnUse" gradientTransform="translate(-417.063 657.816) rotate(-4.16623) scale(1944.13 1976.14)">
<stop stop-color="#1A1A1A" stop-opacity="0.1"/>
<stop offset="1" stop-color="#1A1A1A" stop-opacity="0.09"/>
</radialGradient>
<radialGradient id="paint1_radial_446_10554" cx="0" cy="0" r="1" gradientUnits="userSpaceOnUse" gradientTransform="translate(672.006 377.131) rotate(84.5209) scale(1068.41 1086)">
<stop stop-color="white" stop-opacity="0.3"/>
<stop offset="1" stop-opacity="0"/>
</radialGradient>
</defs>
</svg>
