<svg xmlns="http://www.w3.org/2000/svg" xmlns:xlink="http://www.w3.org/1999/xlink" width="500" zoomAndPan="magnify" viewBox="0 0 375 374.999991" height="500" preserveAspectRatio="xMidYMid meet" version="1.0"><defs><clipPath id="326aee97c2"><path d="M 32.296875 27.636719 L 352.546875 27.636719 L 352.546875 347.886719 L 32.296875 347.886719 Z M 32.296875 27.636719 " clip-rule="nonzero"/></clipPath><clipPath id="9762efbc74"><path d="M 291 213 L 308.796875 213 L 308.796875 231 L 291 231 Z M 291 213 " clip-rule="nonzero"/></clipPath><clipPath id="b5e8531d67"><path d="M 291 243 L 308.796875 243 L 308.796875 261 L 291 261 Z M 291 243 " clip-rule="nonzero"/></clipPath><clipPath id="63af3d2d5c"><path d="M 76.296875 230 L 94 230 L 94 248 L 76.296875 248 Z M 76.296875 230 " clip-rule="nonzero"/></clipPath><clipPath id="f2635024cd"><path d="M 76.296875 260 L 94 260 L 94 278 L 76.296875 278 Z M 76.296875 260 " clip-rule="nonzero"/></clipPath><clipPath id="ce13e02f8e"><path d="M 80 75.617188 L 305 75.617188 L 305 299.117188 L 80 299.117188 Z M 80 75.617188 " clip-rule="nonzero"/></clipPath></defs><g clip-path="url(#326aee97c2)"><path fill="#ffbf00" d="M 192.386719 347.816406 C 103.941406 347.816406 32.296875 275.679688 32.296875 187.726562 C 32.296875 99.777344 103.941406 27.636719 192.386719 27.636719 C 280.832031 27.636719 352.476562 99.285156 352.476562 187.726562 C 352.476562 276.171875 280.335938 347.816406 192.386719 347.816406 Z M 192.386719 37.519531 C 109.375 37.519531 42.179688 104.71875 42.179688 187.726562 C 42.179688 270.738281 109.375 337.9375 192.386719 337.9375 C 275.394531 337.9375 342.59375 270.738281 342.59375 187.726562 C 342.59375 104.71875 274.902344 37.519531 192.386719 37.519531 Z M 192.386719 37.519531 " fill-opacity="1" fill-rule="nonzero"/></g><path fill="#ffbf00" d="M 183.765625 174.582031 L 200.964844 174.582031 L 200.964844 183.179688 L 183.765625 183.179688 Z M 183.765625 174.582031 " fill-opacity="1" fill-rule="nonzero"/><g clip-path="url(#9762efbc74)"><path fill="#ffbf00" d="M 308.457031 221.875 C 308.457031 222.4375 308.402344 223 308.292969 223.550781 C 308.183594 224.105469 308.019531 224.644531 307.804688 225.164062 C 307.589844 225.6875 307.324219 226.183594 307.007812 226.652344 C 306.695312 227.121094 306.339844 227.554688 305.941406 227.953125 C 305.539062 228.355469 305.105469 228.710938 304.636719 229.023438 C 304.167969 229.335938 303.671875 229.601562 303.152344 229.820312 C 302.628906 230.035156 302.089844 230.199219 301.539062 230.308594 C 300.984375 230.417969 300.425781 230.472656 299.859375 230.472656 C 299.296875 230.472656 298.734375 230.417969 298.183594 230.308594 C 297.628906 230.199219 297.089844 230.035156 296.570312 229.820312 C 296.046875 229.601562 295.550781 229.335938 295.082031 229.023438 C 294.613281 228.710938 294.179688 228.355469 293.777344 227.953125 C 293.378906 227.554688 293.023438 227.121094 292.710938 226.652344 C 292.394531 226.183594 292.132812 225.6875 291.914062 225.164062 C 291.699219 224.644531 291.535156 224.105469 291.425781 223.550781 C 291.316406 223 291.261719 222.4375 291.261719 221.875 C 291.261719 221.308594 291.316406 220.75 291.425781 220.195312 C 291.535156 219.644531 291.699219 219.105469 291.914062 218.582031 C 292.132812 218.0625 292.394531 217.566406 292.710938 217.097656 C 293.023438 216.628906 293.378906 216.191406 293.777344 215.792969 C 294.179688 215.394531 294.613281 215.039062 295.082031 214.722656 C 295.550781 214.410156 296.046875 214.144531 296.570312 213.929688 C 297.089844 213.714844 297.628906 213.550781 298.183594 213.441406 C 298.734375 213.332031 299.296875 213.273438 299.859375 213.273438 C 300.425781 213.273438 300.984375 213.332031 301.539062 213.441406 C 302.089844 213.550781 302.628906 213.714844 303.152344 213.929688 C 303.671875 214.144531 304.167969 214.410156 304.636719 214.722656 C 305.105469 215.039062 305.539062 215.394531 305.941406 215.792969 C 306.339844 216.191406 306.695312 216.628906 307.007812 217.097656 C 307.324219 217.566406 307.589844 218.0625 307.804688 218.582031 C 308.019531 219.105469 308.183594 219.644531 308.292969 220.195312 C 308.402344 220.75 308.457031 221.308594 308.457031 221.875 Z M 308.457031 221.875 " fill-opacity="1" fill-rule="nonzero"/></g><g clip-path="url(#b5e8531d67)"><path fill="#ffbf00" d="M 308.457031 251.972656 C 308.457031 252.539062 308.402344 253.097656 308.292969 253.652344 C 308.183594 254.203125 308.019531 254.742188 307.804688 255.265625 C 307.589844 255.785156 307.324219 256.28125 307.007812 256.75 C 306.695312 257.21875 306.339844 257.65625 305.941406 258.054688 C 305.539062 258.453125 305.105469 258.808594 304.636719 259.125 C 304.167969 259.4375 303.671875 259.703125 303.152344 259.917969 C 302.628906 260.132812 302.089844 260.296875 301.539062 260.40625 C 300.984375 260.515625 300.425781 260.574219 299.859375 260.574219 C 299.296875 260.574219 298.734375 260.515625 298.183594 260.40625 C 297.628906 260.296875 297.089844 260.132812 296.570312 259.917969 C 296.046875 259.703125 295.550781 259.4375 295.082031 259.125 C 294.613281 258.808594 294.179688 258.453125 293.777344 258.054688 C 293.378906 257.65625 293.023438 257.21875 292.710938 256.75 C 292.394531 256.28125 292.132812 255.785156 291.914062 255.265625 C 291.699219 254.742188 291.535156 254.203125 291.425781 253.652344 C 291.316406 253.097656 291.261719 252.539062 291.261719 251.972656 C 291.261719 251.410156 291.316406 250.847656 291.425781 250.296875 C 291.535156 249.742188 291.699219 249.203125 291.914062 248.683594 C 292.132812 248.160156 292.394531 247.664062 292.710938 247.195312 C 293.023438 246.726562 293.378906 246.292969 293.777344 245.894531 C 294.179688 245.492188 294.613281 245.136719 295.082031 244.824219 C 295.550781 244.511719 296.046875 244.246094 296.570312 244.027344 C 297.089844 243.8125 297.628906 243.648438 298.183594 243.539062 C 298.734375 243.429688 299.296875 243.375 299.859375 243.375 C 300.425781 243.375 300.984375 243.429688 301.539062 243.539062 C 302.089844 243.648438 302.628906 243.8125 303.152344 244.027344 C 303.671875 244.246094 304.167969 244.511719 304.636719 244.824219 C 305.105469 245.136719 305.539062 245.492188 305.941406 245.894531 C 306.339844 246.292969 306.695312 246.726562 307.007812 247.195312 C 307.324219 247.664062 307.589844 248.160156 307.804688 248.683594 C 308.019531 249.203125 308.183594 249.742188 308.292969 250.296875 C 308.402344 250.847656 308.457031 251.410156 308.457031 251.972656 Z M 308.457031 251.972656 " fill-opacity="1" fill-rule="nonzero"/></g><path fill="#ffbf00" d="M 119.269531 92.882812 C 119.269531 93.449219 119.214844 94.007812 119.105469 94.558594 C 118.992188 95.113281 118.832031 95.652344 118.613281 96.171875 C 118.398438 96.695312 118.132812 97.191406 117.820312 97.660156 C 117.507812 98.128906 117.148438 98.5625 116.75 98.964844 C 116.351562 99.363281 115.917969 99.71875 115.449219 100.03125 C 114.976562 100.347656 114.484375 100.613281 113.960938 100.828125 C 113.4375 101.042969 112.902344 101.207031 112.347656 101.316406 C 111.792969 101.425781 111.234375 101.480469 110.671875 101.480469 C 110.105469 101.480469 109.546875 101.425781 108.992188 101.316406 C 108.4375 101.207031 107.902344 101.042969 107.378906 100.828125 C 106.859375 100.613281 106.363281 100.347656 105.894531 100.03125 C 105.421875 99.71875 104.988281 99.363281 104.589844 98.964844 C 104.191406 98.5625 103.832031 98.128906 103.519531 97.660156 C 103.207031 97.191406 102.941406 96.695312 102.726562 96.171875 C 102.507812 95.652344 102.347656 95.113281 102.234375 94.558594 C 102.125 94.007812 102.070312 93.449219 102.070312 92.882812 C 102.070312 92.316406 102.125 91.757812 102.234375 91.207031 C 102.347656 90.652344 102.507812 90.113281 102.726562 89.59375 C 102.941406 89.070312 103.207031 88.574219 103.519531 88.105469 C 103.832031 87.636719 104.191406 87.203125 104.589844 86.800781 C 104.988281 86.402344 105.421875 86.046875 105.894531 85.734375 C 106.363281 85.417969 106.859375 85.15625 107.378906 84.9375 C 107.902344 84.722656 108.4375 84.558594 108.992188 84.449219 C 109.546875 84.339844 110.105469 84.285156 110.671875 84.285156 C 111.234375 84.285156 111.792969 84.339844 112.347656 84.449219 C 112.902344 84.558594 113.4375 84.722656 113.960938 84.9375 C 114.484375 85.15625 114.976562 85.417969 115.449219 85.734375 C 115.917969 86.046875 116.351562 86.402344 116.75 86.800781 C 117.148438 87.203125 117.507812 87.636719 117.820312 88.105469 C 118.132812 88.574219 118.398438 89.070312 118.613281 89.59375 C 118.832031 90.113281 118.992188 90.652344 119.105469 91.207031 C 119.214844 91.757812 119.269531 92.316406 119.269531 92.882812 Z M 119.269531 92.882812 " fill-opacity="1" fill-rule="nonzero"/><path fill="#ffbf00" d="M 119.269531 122.980469 C 119.269531 123.546875 119.214844 124.105469 119.105469 124.660156 C 118.992188 125.214844 118.832031 125.75 118.613281 126.273438 C 118.398438 126.792969 118.132812 127.289062 117.820312 127.757812 C 117.507812 128.230469 117.148438 128.664062 116.75 129.0625 C 116.351562 129.460938 115.917969 129.816406 115.449219 130.132812 C 114.976562 130.445312 114.484375 130.710938 113.960938 130.925781 C 113.4375 131.144531 112.902344 131.304688 112.347656 131.414062 C 111.792969 131.527344 111.234375 131.582031 110.671875 131.582031 C 110.105469 131.582031 109.546875 131.527344 108.992188 131.414062 C 108.4375 131.304688 107.902344 131.144531 107.378906 130.925781 C 106.859375 130.710938 106.363281 130.445312 105.894531 130.132812 C 105.421875 129.816406 104.988281 129.460938 104.589844 129.0625 C 104.191406 128.664062 103.832031 128.230469 103.519531 127.757812 C 103.207031 127.289062 102.941406 126.792969 102.726562 126.273438 C 102.507812 125.75 102.347656 125.214844 102.234375 124.660156 C 102.125 124.105469 102.070312 123.546875 102.070312 122.980469 C 102.070312 122.417969 102.125 121.859375 102.234375 121.304688 C 102.347656 120.75 102.507812 120.214844 102.726562 119.691406 C 102.941406 119.167969 103.207031 118.675781 103.519531 118.203125 C 103.832031 117.734375 104.191406 117.300781 104.589844 116.902344 C 104.988281 116.503906 105.421875 116.144531 105.894531 115.832031 C 106.363281 115.519531 106.859375 115.253906 107.378906 115.039062 C 107.902344 114.820312 108.4375 114.660156 108.992188 114.546875 C 109.546875 114.4375 110.105469 114.382812 110.671875 114.382812 C 111.234375 114.382812 111.792969 114.4375 112.347656 114.546875 C 112.902344 114.660156 113.4375 114.820312 113.960938 115.039062 C 114.484375 115.253906 114.976562 115.519531 115.449219 115.832031 C 115.917969 116.144531 116.351562 116.503906 116.75 116.902344 C 117.148438 117.300781 117.507812 117.734375 117.820312 118.203125 C 118.132812 118.675781 118.398438 119.167969 118.613281 119.691406 C 118.832031 120.214844 118.992188 120.75 119.105469 121.304688 C 119.214844 121.859375 119.269531 122.417969 119.269531 122.980469 Z M 119.269531 122.980469 " fill-opacity="1" fill-rule="nonzero"/><g clip-path="url(#63af3d2d5c)"><path fill="#ffbf00" d="M 93.472656 239.078125 C 93.472656 239.640625 93.417969 240.199219 93.304688 240.753906 C 93.195312 241.308594 93.035156 241.847656 92.816406 242.367188 C 92.601562 242.890625 92.335938 243.386719 92.023438 243.855469 C 91.707031 244.324219 91.351562 244.757812 90.953125 245.15625 C 90.554688 245.558594 90.121094 245.914062 89.648438 246.226562 C 89.179688 246.539062 88.683594 246.804688 88.164062 247.023438 C 87.640625 247.238281 87.105469 247.402344 86.550781 247.511719 C 85.996094 247.621094 85.4375 247.675781 84.871094 247.675781 C 84.308594 247.675781 83.75 247.621094 83.195312 247.511719 C 82.640625 247.402344 82.105469 247.238281 81.582031 247.023438 C 81.058594 246.804688 80.566406 246.539062 80.09375 246.226562 C 79.625 245.914062 79.191406 245.558594 78.792969 245.15625 C 78.394531 244.757812 78.035156 244.324219 77.722656 243.855469 C 77.410156 243.386719 77.144531 242.890625 76.929688 242.367188 C 76.710938 241.847656 76.550781 241.308594 76.4375 240.753906 C 76.328125 240.199219 76.273438 239.640625 76.273438 239.078125 C 76.273438 238.511719 76.328125 237.953125 76.4375 237.398438 C 76.550781 236.84375 76.710938 236.308594 76.929688 235.785156 C 77.144531 235.265625 77.410156 234.769531 77.722656 234.300781 C 78.035156 233.828125 78.394531 233.394531 78.792969 232.996094 C 79.191406 232.597656 79.625 232.242188 80.09375 231.925781 C 80.566406 231.613281 81.058594 231.347656 81.582031 231.132812 C 82.105469 230.917969 82.640625 230.753906 83.195312 230.644531 C 83.75 230.53125 84.308594 230.476562 84.871094 230.476562 C 85.4375 230.476562 85.996094 230.53125 86.550781 230.644531 C 87.105469 230.753906 87.640625 230.917969 88.164062 231.132812 C 88.683594 231.347656 89.179688 231.613281 89.648438 231.925781 C 90.121094 232.242188 90.554688 232.597656 90.953125 232.996094 C 91.351562 233.394531 91.707031 233.828125 92.023438 234.300781 C 92.335938 234.769531 92.601562 235.265625 92.816406 235.785156 C 93.035156 236.308594 93.195312 236.84375 93.304688 237.398438 C 93.417969 237.953125 93.472656 238.511719 93.472656 239.078125 Z M 93.472656 239.078125 " fill-opacity="1" fill-rule="nonzero"/></g><g clip-path="url(#f2635024cd)"><path fill="#ffbf00" d="M 93.472656 269.171875 C 93.472656 269.734375 93.417969 270.296875 93.304688 270.847656 C 93.195312 271.402344 93.035156 271.941406 92.816406 272.460938 C 92.601562 272.984375 92.335938 273.480469 92.023438 273.949219 C 91.707031 274.417969 91.351562 274.851562 90.953125 275.253906 C 90.554688 275.652344 90.121094 276.007812 89.648438 276.320312 C 89.179688 276.636719 88.683594 276.898438 88.164062 277.117188 C 87.640625 277.332031 87.105469 277.496094 86.550781 277.605469 C 85.996094 277.714844 85.4375 277.769531 84.871094 277.769531 C 84.308594 277.769531 83.75 277.714844 83.195312 277.605469 C 82.640625 277.496094 82.105469 277.332031 81.582031 277.117188 C 81.058594 276.898438 80.566406 276.636719 80.09375 276.320312 C 79.625 276.007812 79.191406 275.652344 78.792969 275.253906 C 78.394531 274.851562 78.035156 274.417969 77.722656 273.949219 C 77.410156 273.480469 77.144531 272.984375 76.929688 272.460938 C 76.710938 271.941406 76.550781 271.402344 76.4375 270.847656 C 76.328125 270.296875 76.273438 269.734375 76.273438 269.171875 C 76.273438 268.605469 76.328125 268.046875 76.4375 267.492188 C 76.550781 266.941406 76.710938 266.402344 76.929688 265.882812 C 77.144531 265.359375 77.410156 264.863281 77.722656 264.394531 C 78.035156 263.925781 78.394531 263.492188 78.792969 263.089844 C 79.191406 262.691406 79.625 262.335938 80.09375 262.023438 C 80.566406 261.707031 81.058594 261.441406 81.582031 261.226562 C 82.105469 261.011719 82.640625 260.847656 83.195312 260.738281 C 83.75 260.628906 84.308594 260.574219 84.871094 260.574219 C 85.4375 260.574219 85.996094 260.628906 86.550781 260.738281 C 87.105469 260.847656 87.640625 261.011719 88.164062 261.226562 C 88.683594 261.441406 89.179688 261.707031 89.648438 262.023438 C 90.121094 262.335938 90.554688 262.691406 90.953125 263.089844 C 91.351562 263.492188 91.707031 263.925781 92.023438 264.394531 C 92.335938 264.863281 92.601562 265.359375 92.816406 265.882812 C 93.035156 266.402344 93.195312 266.941406 93.304688 267.492188 C 93.417969 268.046875 93.472656 268.605469 93.472656 269.171875 Z M 93.472656 269.171875 " fill-opacity="1" fill-rule="nonzero"/></g><g clip-path="url(#ce13e02f8e)"><path fill="#ffbf00" d="M 301.640625 181.394531 L 198.445312 78.203125 C 196.890625 76.644531 194.738281 75.683594 192.363281 75.683594 C 189.988281 75.683594 187.839844 76.644531 186.28125 78.203125 L 83.09375 181.394531 C 81.382812 183.101562 80.398438 185.519531 80.601562 188.160156 C 80.957031 192.726562 85.117188 196.078125 89.699219 196.078125 L 106.371094 196.078125 L 106.371094 286.371094 C 106.371094 293.492188 112.148438 299.269531 119.273438 299.269531 L 265.464844 299.269531 C 272.585938 299.269531 278.363281 293.496094 278.363281 286.371094 L 278.363281 196.078125 L 295.039062 196.078125 C 299.617188 196.078125 303.78125 192.726562 304.132812 188.160156 C 304.339844 185.519531 303.347656 183.101562 301.644531 181.394531 Z M 231.0625 243.375 C 231.0625 248.125 227.210938 251.972656 222.464844 251.972656 L 162.265625 251.972656 C 157.515625 251.972656 153.664062 248.125 153.664062 243.375 L 153.664062 213.273438 L 179.464844 213.273438 C 179.464844 220.398438 185.242188 226.175781 192.363281 226.175781 C 199.488281 226.175781 205.265625 220.402344 205.265625 213.273438 L 231.0625 213.273438 Z M 235.363281 200.378906 C 235.363281 202.753906 233.4375 204.679688 231.0625 204.679688 L 153.664062 204.679688 C 151.292969 204.679688 149.363281 202.753906 149.363281 200.378906 L 149.363281 196.078125 C 149.363281 188.953125 155.140625 183.175781 162.265625 183.175781 L 170.863281 183.175781 L 170.863281 170.273438 C 170.863281 165.527344 174.714844 161.675781 179.464844 161.675781 L 205.261719 161.675781 C 210.007812 161.675781 213.859375 165.527344 213.859375 170.273438 L 213.859375 183.175781 L 222.457031 183.175781 C 229.582031 183.175781 235.359375 188.949219 235.359375 196.078125 L 235.359375 200.378906 Z M 235.363281 200.378906 " fill-opacity="1" fill-rule="nonzero"/></g></svg>