<svg xmlns="http://www.w3.org/2000/svg" xmlns:xlink="http://www.w3.org/1999/xlink" width="250" zoomAndPan="magnify" viewBox="0 0 187.5 187.499992" height="250" preserveAspectRatio="xMidYMid meet" version="1.0"><defs><clipPath id="97e0109532"><path d="M 31.113281 30.480469 L 156 30.480469 L 156 156.148438 L 31.113281 156.148438 Z M 31.113281 30.480469 " clip-rule="nonzero"/></clipPath><clipPath id="b3af8569e3"><path d="M 52 149 L 56 149 L 56 156.148438 L 52 156.148438 Z M 52 149 " clip-rule="nonzero"/></clipPath><clipPath id="a66084c718"><path d="M 134 30.480469 L 138 30.480469 L 138 39 L 134 39 Z M 134 30.480469 " clip-rule="nonzero"/></clipPath></defs><path fill="#ffbf00" d="M 93.5 187 C 41.84375 187 0 144.867188 0 93.5 C 0 42.132812 41.84375 0 93.5 0 C 145.15625 0 187 41.84375 187 93.5 C 187 145.15625 144.867188 187 93.5 187 Z M 93.5 5.773438 C 45.019531 5.773438 5.773438 45.019531 5.773438 93.5 C 5.773438 141.984375 45.019531 181.230469 93.5 181.230469 C 141.984375 181.230469 181.230469 141.984375 181.230469 93.5 C 181.230469 45.019531 141.695312 5.773438 93.5 5.773438 Z M 93.5 5.773438 " fill-opacity="1" fill-rule="nonzero"/><g clip-path="url(#97e0109532)"><path fill="#ffbf00" d="M 155.277344 92.777344 C 155.277344 92.753906 155.253906 92.730469 155.253906 92.707031 L 135.179688 44.65625 L 115.808594 52.75 C 116.050781 50.464844 116.050781 47.234375 114.8125 44.898438 C 114.617188 44.535156 114.402344 44.183594 114.167969 43.847656 C 113.929688 43.507812 113.675781 43.183594 113.402344 42.875 C 113.128906 42.566406 112.839844 42.273438 112.53125 42 C 112.226562 41.722656 111.902344 41.464844 111.566406 41.226562 C 111.230469 40.988281 110.878906 40.773438 110.519531 40.574219 C 110.15625 40.378906 109.785156 40.203125 109.402344 40.046875 C 109.019531 39.894531 108.628906 39.761719 108.230469 39.652344 C 107.832031 39.546875 107.429688 39.460938 107.023438 39.398438 C 106.613281 39.335938 106.203125 39.296875 105.792969 39.285156 C 105.378906 39.269531 104.96875 39.277344 104.554688 39.3125 C 104.144531 39.347656 103.738281 39.402344 103.332031 39.484375 C 102.929688 39.566406 102.53125 39.667969 102.136719 39.796875 C 101.746094 39.925781 101.363281 40.074219 100.988281 40.246094 C 100.613281 40.417969 100.246094 40.609375 99.894531 40.824219 C 99.542969 41.039062 99.203125 41.273438 98.878906 41.527344 C 98.554688 41.777344 98.242188 42.050781 97.949219 42.339844 C 97.65625 42.628906 97.378906 42.933594 97.121094 43.257812 C 96.863281 43.578125 96.625 43.914062 96.40625 44.261719 C 96.183594 44.613281 95.988281 44.972656 95.808594 45.34375 C 95.632812 45.71875 95.476562 46.097656 95.34375 46.488281 C 95.210938 46.878906 95.101562 47.277344 95.011719 47.679688 C 94.925781 48.082031 94.863281 48.488281 94.824219 48.898438 C 94.78125 49.3125 94.765625 49.722656 94.773438 50.136719 C 94.78125 50.546875 94.816406 50.957031 94.871094 51.367188 C 94.925781 51.773438 95.003906 52.179688 95.109375 52.578125 C 95.210938 52.976562 95.335938 53.371094 95.484375 53.753906 C 95.632812 54.140625 95.804688 54.515625 95.996094 54.878906 C 96.1875 55.246094 96.398438 55.597656 96.632812 55.9375 C 96.863281 56.28125 97.117188 56.605469 97.386719 56.917969 C 97.65625 57.226562 97.945312 57.523438 98.25 57.800781 C 98.554688 58.078125 98.875 58.335938 99.210938 58.578125 C 99.546875 58.820312 99.894531 59.039062 100.253906 59.238281 L 79.546875 67.867188 C 79.078125 66.394531 78.390625 65.035156 77.480469 63.785156 C 77.742188 63.640625 77.976562 63.460938 78.1875 63.25 C 78.726562 62.722656 79.003906 62.082031 79.011719 61.328125 L 78.914062 53.308594 L 80.566406 53.308594 C 80.96875 53.304688 81.308594 53.15625 81.589844 52.871094 C 81.886719 52.585938 82.03125 52.238281 82.027344 51.828125 L 81.734375 30.535156 L 78.816406 30.585938 L 79.085938 50.390625 L 40.125 50.683594 L 39.859375 30.535156 L 36.941406 30.585938 L 37.210938 52.191406 C 37.214844 52.382812 37.253906 52.5625 37.332031 52.738281 C 37.40625 52.914062 37.511719 53.070312 37.648438 53.203125 C 37.785156 53.335938 37.941406 53.4375 38.117188 53.511719 C 38.292969 53.585938 38.476562 53.621094 38.667969 53.625 L 40.367188 53.625 C 40.367188 53.699219 40.464844 61.644531 40.464844 61.644531 C 40.480469 62.082031 40.589844 62.492188 40.792969 62.875 C 41 63.257812 41.277344 63.578125 41.632812 63.832031 L 40.5625 65.535156 C 40.148438 66.191406 39.589844 67.820312 39.589844 67.820312 L 39.566406 67.820312 L 35.3125 83.6875 L 36.433594 87.140625 L 34.851562 87.84375 C 34.117188 88.167969 33.476562 88.621094 32.921875 89.203125 C 32.371094 89.785156 31.953125 90.449219 31.667969 91.199219 C 31.386719 91.949219 31.261719 92.722656 31.285156 93.523438 C 31.308594 94.320312 31.488281 95.085938 31.8125 95.816406 L 53.421875 144.085938 L 73.664062 135.019531 C 74.03125 134.863281 74.332031 134.621094 74.566406 134.300781 C 74.804688 133.976562 74.941406 133.617188 74.976562 133.21875 C 75.015625 132.820312 74.949219 132.441406 74.78125 132.082031 C 74.609375 131.71875 74.359375 131.425781 74.03125 131.203125 C 71.429688 129.378906 69.632812 127.410156 69.097656 125.808594 C 68.996094 125.507812 68.910156 125.203125 68.847656 124.894531 C 68.785156 124.582031 68.738281 124.269531 68.714844 123.957031 C 68.6875 123.640625 68.679688 123.324219 68.695312 123.007812 C 68.707031 122.691406 68.738281 122.378906 68.792969 122.066406 C 68.84375 121.753906 68.914062 121.445312 69.003906 121.140625 C 69.09375 120.839844 69.199219 120.542969 69.328125 120.25 C 69.453125 119.960938 69.59375 119.679688 69.757812 119.40625 C 69.917969 119.132812 70.09375 118.871094 70.285156 118.621094 C 70.476562 118.371094 70.6875 118.132812 70.90625 117.90625 C 71.128906 117.679688 71.363281 117.46875 71.613281 117.273438 C 71.859375 117.078125 72.117188 116.894531 72.390625 116.730469 C 72.660156 116.566406 72.9375 116.417969 73.226562 116.289062 C 73.515625 116.15625 73.808594 116.042969 74.109375 115.949219 C 74.414062 115.855469 74.71875 115.78125 75.03125 115.722656 C 75.34375 115.664062 75.65625 115.628906 75.972656 115.609375 C 76.289062 115.589844 76.605469 115.59375 76.917969 115.613281 C 77.234375 115.632812 77.546875 115.671875 77.859375 115.730469 C 78.171875 115.789062 78.476562 115.867188 78.777344 115.964844 C 79.078125 116.0625 79.375 116.175781 79.660156 116.308594 C 79.949219 116.441406 80.226562 116.589844 80.496094 116.757812 C 80.761719 116.925781 81.019531 117.105469 81.269531 117.304688 C 81.515625 117.503906 81.746094 117.714844 81.96875 117.945312 C 82.1875 118.171875 82.394531 118.410156 82.585938 118.664062 C 82.777344 118.914062 82.949219 119.179688 83.109375 119.453125 C 83.269531 119.726562 83.410156 120.007812 83.535156 120.300781 C 83.65625 120.589844 83.761719 120.886719 83.851562 121.191406 C 83.9375 121.496094 84.007812 121.804688 84.054688 122.117188 C 84.105469 122.429688 84.136719 122.742188 84.148438 123.058594 C 84.15625 123.375 84.148438 123.691406 84.121094 124.007812 C 84.09375 124.320312 84.046875 124.632812 83.980469 124.945312 C 83.914062 125.253906 83.832031 125.558594 83.726562 125.855469 C 83.625 126.15625 83.5 126.445312 83.363281 126.730469 C 83.175781 127.117188 83.117188 127.519531 83.183594 127.941406 C 83.25 128.363281 83.429688 128.726562 83.722656 129.039062 C 84.019531 129.347656 84.375 129.542969 84.796875 129.628906 C 85.214844 129.714844 85.621094 129.671875 86.011719 129.503906 L 102.832031 121.96875 C 103.652344 121.613281 104.308594 121.0625 104.796875 120.316406 L 107.351562 119.269531 C 107.648438 121.71875 108.523438 123.9375 109.976562 125.929688 C 109.714844 126.082031 109.476562 126.265625 109.269531 126.488281 C 108.71875 127.019531 108.441406 127.667969 108.445312 128.433594 L 108.566406 136.429688 L 106.914062 136.429688 C 106.511719 136.433594 106.171875 136.578125 105.890625 136.867188 C 105.589844 137.148438 105.449219 137.496094 105.480469 137.910156 L 105.746094 156.261719 L 108.664062 156.261719 L 108.394531 139.371094 L 147.355469 139.054688 L 147.621094 156.285156 L 150.539062 156.285156 L 150.269531 137.59375 C 150.265625 137.402344 150.226562 137.21875 150.152344 137.042969 C 150.074219 136.867188 149.96875 136.710938 149.832031 136.574219 C 149.699219 136.4375 149.542969 136.332031 149.367188 136.257812 C 149.1875 136.183594 149.003906 136.140625 148.8125 136.136719 L 147.113281 136.136719 C 147.113281 136.089844 147.136719 136.015625 147.136719 135.96875 L 147.015625 128.140625 C 147.015625 127.703125 146.910156 127.289062 146.703125 126.902344 C 146.5 126.515625 146.210938 126.199219 145.847656 125.953125 C 146.40625 125.054688 146.84375 124.375 146.917969 124.226562 C 147.339844 123.582031 147.648438 122.886719 147.839844 122.136719 L 147.890625 121.96875 L 147.914062 121.96875 L 152.167969 106.074219 L 150.613281 101.164062 L 152.019531 100.582031 C 152.386719 100.433594 152.730469 100.25 153.058594 100.03125 C 153.386719 99.816406 153.6875 99.570312 153.96875 99.292969 C 154.246094 99.015625 154.496094 98.714844 154.714844 98.390625 C 154.933594 98.0625 155.121094 97.71875 155.269531 97.355469 C 155.421875 96.992188 155.535156 96.621094 155.613281 96.234375 C 155.691406 95.851562 155.730469 95.460938 155.730469 95.066406 C 155.730469 94.675781 155.695312 94.285156 155.617188 93.902344 C 155.542969 93.515625 155.429688 93.140625 155.277344 92.777344 Z M 42.460938 68.328125 C 42.585938 67.890625 42.773438 67.476562 43.019531 67.089844 C 43.019531 67.089844 43.769531 65.875 44.621094 64.5625 L 74.175781 64.320312 C 74.808594 64.988281 75.351562 65.722656 75.804688 66.527344 C 76.265625 67.328125 76.621094 68.171875 76.875 69.058594 L 53.445312 79.53125 L 53.203125 79.945312 C 51.546875 82.863281 48.558594 84.152344 48.535156 84.152344 L 47.464844 84.589844 C 47.464844 84.589844 49.144531 94.722656 49.605469 97.664062 C 49.886719 99.464844 49.578125 101.15625 48.679688 102.742188 C 48.367188 103.191406 47.96875 103.542969 47.484375 103.796875 C 46.996094 104.050781 46.480469 104.175781 45.933594 104.175781 C 45.179688 104.152344 44.863281 103.765625 44.742188 103.546875 L 40.003906 88.746094 L 39.105469 85.949219 L 38.351562 83.617188 Z M 102.296875 118.785156 C 102.128906 119.023438 101.910156 119.191406 101.640625 119.292969 L 86.742188 125.976562 C 86.839844 125.578125 86.917969 125.175781 86.96875 124.765625 C 87.023438 124.359375 87.054688 123.949219 87.058594 123.535156 C 87.0625 123.125 87.046875 122.714844 87.003906 122.304688 C 86.960938 121.894531 86.894531 121.488281 86.804688 121.085938 C 86.71875 120.683594 86.605469 120.289062 86.46875 119.898438 C 86.335938 119.507812 86.179688 119.128906 86 118.757812 C 85.820312 118.386719 85.621094 118.027344 85.398438 117.679688 C 85.175781 117.332031 84.9375 117 84.679688 116.679688 C 84.417969 116.359375 84.140625 116.054688 83.847656 115.769531 C 83.550781 115.480469 83.242188 115.210938 82.914062 114.960938 C 82.589844 114.707031 82.25 114.476562 81.894531 114.265625 C 81.542969 114.050781 81.179688 113.859375 80.804688 113.691406 C 80.429688 113.519531 80.046875 113.375 79.652344 113.246094 C 79.261719 113.121094 78.863281 113.019531 78.457031 112.941406 C 78.054688 112.859375 77.648438 112.804688 77.234375 112.773438 C 76.824219 112.742188 76.414062 112.734375 76.003906 112.75 C 75.589844 112.765625 75.183594 112.804688 74.773438 112.867188 C 74.367188 112.929688 73.964844 113.015625 73.570312 113.125 C 73.171875 113.234375 72.78125 113.367188 72.402344 113.523438 C 72.019531 113.679688 71.648438 113.855469 71.285156 114.054688 C 70.925781 114.25 70.578125 114.46875 70.242188 114.707031 C 69.90625 114.945312 69.585938 115.203125 69.277344 115.480469 C 68.972656 115.753906 68.683594 116.046875 68.410156 116.355469 C 68.140625 116.664062 67.886719 116.988281 67.652344 117.328125 C 67.417969 117.667969 67.203125 118.015625 67.007812 118.378906 C 66.816406 118.746094 66.644531 119.117188 66.492188 119.5 C 66.34375 119.882812 66.214844 120.273438 66.109375 120.671875 C 66.003906 121.070312 65.921875 121.476562 65.863281 121.882812 C 65.804688 122.289062 65.769531 122.699219 65.761719 123.113281 C 65.75 123.523438 65.761719 123.933594 65.800781 124.34375 C 65.835938 124.753906 65.894531 125.160156 65.980469 125.566406 C 66.0625 125.96875 66.171875 126.363281 66.300781 126.753906 C 67.128906 129.160156 69.339844 131.300781 71.355469 132.855469 L 54.855469 140.246094 L 34.4375 94.625 C 34.078125 93.839844 34.0625 93.042969 34.390625 92.242188 C 34.691406 91.441406 35.234375 90.867188 36.019531 90.519531 L 37.304688 89.933594 L 42.070312 104.785156 C 42.429688 105.480469 42.945312 106.035156 43.613281 106.449219 C 44.277344 106.863281 45.003906 107.078125 45.789062 107.09375 C 45.789062 107.09375 49.582031 107.167969 51.136719 104.273438 L 51.136719 104.226562 C 51.746094 103.160156 52.160156 102.019531 52.382812 100.8125 C 52.601562 99.601562 52.617188 98.390625 52.421875 97.175781 C 52.058594 94.84375 51.0625 88.746094 50.648438 86.289062 C 52.621094 85.195312 54.226562 83.703125 55.460938 81.816406 L 80.128906 70.757812 C 80.128906 70.757812 80.8125 70.371094 81.34375 70.492188 C 81.691406 70.667969 81.945312 70.9375 82.097656 71.292969 L 89.730469 88.746094 C 89.890625 89.140625 90.152344 89.453125 90.515625 89.683594 C 90.875 89.910156 91.269531 90.011719 91.699219 89.984375 C 92.125 89.957031 92.503906 89.808594 92.839844 89.550781 C 93.179688 89.289062 93.414062 88.953125 93.546875 88.550781 C 93.625 88.25 93.722656 87.957031 93.839844 87.667969 C 93.957031 87.378906 94.089844 87.097656 94.238281 86.828125 C 94.390625 86.554688 94.554688 86.292969 94.738281 86.042969 C 94.921875 85.789062 95.117188 85.550781 95.328125 85.324219 C 95.539062 85.09375 95.765625 84.882812 96.003906 84.679688 C 96.242188 84.480469 96.488281 84.296875 96.75 84.125 C 97.011719 83.957031 97.28125 83.804688 97.558594 83.667969 C 97.835938 83.53125 98.125 83.410156 98.417969 83.308594 C 98.710938 83.207031 99.007812 83.125 99.3125 83.058594 C 99.617188 82.992188 99.921875 82.945312 100.234375 82.917969 C 100.542969 82.890625 100.851562 82.882812 101.164062 82.890625 C 101.472656 82.902344 101.78125 82.929688 102.089844 82.976562 C 102.394531 83.023438 102.699219 83.089844 102.996094 83.175781 C 103.296875 83.261719 103.589844 83.363281 103.875 83.484375 C 104.160156 83.601562 104.441406 83.742188 104.710938 83.894531 C 104.980469 84.050781 105.238281 84.21875 105.488281 84.40625 C 105.738281 84.589844 105.972656 84.792969 106.199219 85.007812 C 106.421875 85.222656 106.632812 85.449219 106.828125 85.691406 C 107.023438 85.929688 107.207031 86.183594 107.371094 86.445312 C 107.539062 86.707031 107.6875 86.980469 107.820312 87.261719 C 107.953125 87.542969 108.066406 87.828125 108.164062 88.125 C 108.261719 88.417969 108.34375 88.71875 108.402344 89.023438 C 108.464844 89.328125 108.503906 89.636719 108.527344 89.945312 C 108.550781 90.253906 108.558594 90.566406 108.542969 90.875 C 108.527344 91.1875 108.496094 91.496094 108.441406 91.800781 C 108.390625 92.105469 108.320312 92.410156 108.230469 92.707031 C 108.140625 93.003906 108.035156 93.296875 107.910156 93.578125 C 107.785156 93.863281 107.644531 94.140625 107.484375 94.40625 C 107.328125 94.675781 107.152344 94.929688 106.964844 95.175781 C 106.773438 95.421875 106.570312 95.65625 106.351562 95.878906 C 106.132812 96.097656 105.902344 96.304688 105.660156 96.5 C 105.414062 96.691406 105.160156 96.871094 104.894531 97.03125 C 102.78125 98.222656 99.085938 97.929688 97.605469 97.761719 C 97.210938 97.714844 96.832031 97.773438 96.46875 97.929688 C 96.105469 98.082031 95.800781 98.320312 95.5625 98.636719 C 95.5625 98.660156 94.859375 99.460938 95.320312 100.847656 L 102.539062 116.9375 C 102.671875 117.242188 102.714844 117.5625 102.671875 117.894531 C 102.628906 118.226562 102.503906 118.523438 102.296875 118.785156 Z M 145.023438 121.382812 C 144.894531 121.824219 144.710938 122.238281 144.460938 122.625 L 144.460938 122.671875 C 144.460938 122.671875 143.734375 123.863281 142.882812 125.175781 L 142.589844 125.636719 L 113.546875 125.636719 L 113.304688 125.394531 C 112.367188 124.394531 111.628906 123.261719 111.089844 122 C 110.550781 120.742188 110.242188 119.425781 110.167969 118.054688 L 131.21875 109.28125 C 130.753906 110.105469 130.316406 110.980469 129.90625 111.855469 L 132.554688 113.097656 C 133.089844 111.953125 133.671875 110.835938 134.28125 109.765625 C 134.902344 108.695312 135.695312 107.773438 136.660156 106.996094 C 137.363281 106.421875 138.125 105.941406 138.945312 105.5625 L 140.015625 105.125 L 139.84375 103.984375 C 139.820312 103.957031 139.746094 103.421875 139.601562 102.621094 C 139.164062 99.996094 138.242188 94.308594 137.875 92.074219 C 137.59375 90.273438 137.902344 88.582031 138.800781 86.996094 C 139.113281 86.542969 139.511719 86.1875 139.996094 85.929688 C 140.480469 85.671875 140.996094 85.542969 141.546875 85.535156 C 142.300781 85.558594 142.617188 85.949219 142.738281 86.191406 L 147.015625 99.511719 L 147.914062 102.304688 L 149.128906 106.121094 Z M 145.023438 121.382812 " fill-opacity="1" fill-rule="nonzero"/></g><path fill="#ffbf00" d="M 61.324219 146.078125 L 63.914062 144.742188 L 67.28125 151.261719 L 64.691406 152.601562 Z M 61.324219 146.078125 " fill-opacity="1" fill-rule="nonzero"/><path fill="#ffbf00" d="M 40.285156 151.382812 L 43.652344 144.859375 L 46.242188 146.195312 L 42.878906 152.71875 Z M 40.285156 151.382812 " fill-opacity="1" fill-rule="nonzero"/><g clip-path="url(#b3af8569e3)"><path fill="#ffbf00" d="M 52.179688 156.375 L 52.359375 149.035156 L 55.273438 149.105469 L 55.09375 156.445312 Z M 52.179688 156.375 " fill-opacity="1" fill-rule="nonzero"/></g><path fill="#ffbf00" d="M 122.984375 35.988281 L 125.578125 34.652344 L 128.941406 41.175781 L 126.351562 42.511719 Z M 122.984375 35.988281 " fill-opacity="1" fill-rule="nonzero"/><path fill="#ffbf00" d="M 144.03125 41.273438 L 147.394531 34.75 L 149.988281 36.089844 L 146.621094 42.609375 Z M 144.03125 41.273438 " fill-opacity="1" fill-rule="nonzero"/><g clip-path="url(#a66084c718)"><path fill="#ffbf00" d="M 134.832031 38.1875 L 135.011719 30.851562 L 137.925781 30.921875 L 137.746094 38.261719 Z M 134.832031 38.1875 " fill-opacity="1" fill-rule="nonzero"/></g></svg>