<svg xmlns="http://www.w3.org/2000/svg" xmlns:xlink="http://www.w3.org/1999/xlink" width="250" zoomAndPan="magnify" viewBox="0 0 187.5 187.499992" height="250" preserveAspectRatio="xMidYMid meet" version="1.0"><defs><clipPath id="b95b8e6623"><path d="M 33.140625 50 L 159.554688 50 L 159.554688 57 L 33.140625 57 Z M 33.140625 50 " clip-rule="nonzero"/></clipPath><clipPath id="52752b71d8"><path d="M 86 40.808594 L 141 40.808594 L 141 81 L 86 81 Z M 86 40.808594 " clip-rule="nonzero"/></clipPath><clipPath id="604df101d7"><path d="M 33.140625 91 L 159.554688 91 L 159.554688 97 L 33.140625 97 Z M 33.140625 91 " clip-rule="nonzero"/></clipPath><clipPath id="80bc02ee9e"><path d="M 33.140625 131 L 159.554688 131 L 159.554688 138 L 33.140625 138 Z M 33.140625 131 " clip-rule="nonzero"/></clipPath><clipPath id="85a446cd4f"><path d="M 100 107 L 155 107 L 155 147.023438 L 100 147.023438 Z M 100 107 " clip-rule="nonzero"/></clipPath></defs><g clip-path="url(#b95b8e6623)"><path fill="#ffbf00" d="M 159.492188 53.421875 C 159.492188 53.792969 159.417969 54.152344 159.277344 54.496094 C 159.136719 54.839844 158.933594 55.140625 158.667969 55.402344 C 158.40625 55.667969 158.101562 55.871094 157.761719 56.011719 C 157.417969 56.152344 157.058594 56.226562 156.6875 56.226562 L 36.152344 56.226562 C 35.777344 56.226562 35.421875 56.152344 35.078125 56.011719 C 34.734375 55.871094 34.429688 55.667969 34.167969 55.402344 C 33.90625 55.140625 33.703125 54.839844 33.5625 54.496094 C 33.417969 54.152344 33.347656 53.792969 33.347656 53.421875 C 33.347656 53.050781 33.417969 52.691406 33.5625 52.347656 C 33.703125 52.003906 33.90625 51.703125 34.167969 51.441406 C 34.429688 51.175781 34.734375 50.972656 35.078125 50.832031 C 35.421875 50.691406 35.777344 50.617188 36.152344 50.617188 L 156.6875 50.617188 C 157.058594 50.617188 157.417969 50.691406 157.761719 50.832031 C 158.101562 50.972656 158.40625 51.175781 158.667969 51.441406 C 158.933594 51.703125 159.136719 52.003906 159.277344 52.347656 C 159.417969 52.691406 159.492188 53.050781 159.492188 53.421875 Z M 159.492188 53.421875 " fill-opacity="1" fill-rule="evenodd"/></g><path fill="#ffbf00" d="M 113.238281 64.632812 C 112.5 64.632812 111.773438 64.5625 111.050781 64.417969 C 110.328125 64.273438 109.628906 64.0625 108.945312 63.78125 C 108.265625 63.5 107.621094 63.152344 107.007812 62.746094 C 106.398438 62.335938 105.832031 61.871094 105.308594 61.351562 C 104.789062 60.828125 104.324219 60.261719 103.914062 59.652344 C 103.507812 59.039062 103.160156 58.394531 102.878906 57.710938 C 102.597656 57.03125 102.382812 56.332031 102.242188 55.609375 C 102.097656 54.886719 102.027344 54.15625 102.027344 53.421875 C 102.027344 52.683594 102.097656 51.957031 102.242188 51.234375 C 102.382812 50.511719 102.597656 49.8125 102.878906 49.128906 C 103.160156 48.449219 103.507812 47.804688 103.914062 47.191406 C 104.324219 46.582031 104.789062 46.015625 105.308594 45.492188 C 105.832031 44.972656 106.398438 44.507812 107.007812 44.097656 C 107.621094 43.691406 108.265625 43.34375 108.945312 43.0625 C 109.628906 42.78125 110.328125 42.566406 111.050781 42.425781 C 111.773438 42.28125 112.5 42.210938 113.238281 42.210938 C 113.972656 42.210938 114.703125 42.28125 115.425781 42.425781 C 116.148438 42.566406 116.847656 42.78125 117.527344 43.0625 C 118.210938 43.34375 118.855469 43.691406 119.46875 44.097656 C 120.078125 44.507812 120.644531 44.972656 121.167969 45.492188 C 121.6875 46.015625 122.152344 46.582031 122.5625 47.191406 C 122.96875 47.804688 123.316406 48.449219 123.597656 49.128906 C 123.878906 49.8125 124.089844 50.511719 124.234375 51.234375 C 124.378906 51.957031 124.449219 52.683594 124.449219 53.421875 C 124.449219 54.15625 124.378906 54.886719 124.234375 55.609375 C 124.089844 56.332031 123.878906 57.03125 123.597656 57.710938 C 123.316406 58.394531 122.96875 59.039062 122.5625 59.652344 C 122.152344 60.261719 121.6875 60.828125 121.167969 61.351562 C 120.644531 61.871094 120.078125 62.335938 119.46875 62.746094 C 118.855469 63.152344 118.210938 63.5 117.527344 63.78125 C 116.847656 64.0625 116.148438 64.273438 115.425781 64.417969 C 114.703125 64.5625 113.972656 64.632812 113.238281 64.632812 Z M 113.238281 64.632812 " fill-opacity="1" fill-rule="nonzero"/><g clip-path="url(#52752b71d8)"><path stroke-linecap="butt" transform="matrix(0, 1.401587, -1.401587, 0, 159.490532, 42.20907)" fill="none" stroke-linejoin="miter" d="M 15.998821 32.99991 C 15.998821 33.526657 15.948655 34.045042 15.845535 34.560641 C 15.742415 35.07624 15.591916 35.575116 15.391251 36.062844 C 15.190586 36.547786 14.942541 37.007644 14.652691 37.445206 C 14.360054 37.879981 14.028399 38.284098 13.657725 38.657559 C 13.284265 39.028232 12.880147 39.359888 12.445372 39.652525 C 12.00781 39.942375 11.547952 40.190419 11.060224 40.391085 C 10.575282 40.59175 10.076406 40.745036 9.560807 40.845369 C 9.045209 40.948488 8.524036 40.998655 8.000077 40.998655 C 7.47333 40.998655 6.954945 40.948488 6.439346 40.845369 C 5.923748 40.745036 5.424871 40.59175 4.937143 40.391085 C 4.452202 40.190419 3.992343 39.942375 3.554782 39.652525 C 3.120007 39.359888 2.715889 39.028232 2.342428 38.657559 C 1.971755 38.284098 1.640099 37.879981 1.347462 37.445206 C 1.057613 37.007644 0.809568 36.547786 0.608902 36.062844 C 0.408237 35.575116 0.254951 35.07624 0.154618 34.560641 C 0.0514987 34.045042 0.00133234 33.526657 0.00133234 32.99991 C 0.00133234 32.475951 0.0514987 31.954778 0.154618 31.43918 C 0.254951 30.923581 0.408237 30.424705 0.608902 29.939764 C 0.809568 29.452035 1.057613 28.992177 1.347462 28.554615 C 1.640099 28.11984 1.971755 27.715722 2.342428 27.342262 C 2.715889 26.971588 3.120007 26.639933 3.554782 26.347296 C 3.992343 26.057446 4.452202 25.809401 4.937143 25.608736 C 5.424871 25.408071 5.923748 25.257572 6.439346 25.154452 C 6.954945 25.051332 7.47333 25.001166 8.000077 25.001166 C 8.524036 25.001166 9.045209 25.051332 9.560807 25.154452 C 10.076406 25.257572 10.575282 25.408071 11.060224 25.608736 C 11.547952 25.809401 12.00781 26.057446 12.445372 26.347296 C 12.880147 26.639933 13.284265 26.971588 13.657725 27.342262 C 14.028399 27.715722 14.360054 28.11984 14.652691 28.554615 C 14.942541 28.992177 15.190586 29.452035 15.391251 29.939764 C 15.591916 30.424705 15.742415 30.923581 15.845535 31.43918 C 15.948655 31.954778 15.998821 32.475951 15.998821 32.99991 Z M 15.998821 32.99991 " stroke="#000000" stroke-width="2" stroke-opacity="1" stroke-miterlimit="4"/></g><g clip-path="url(#604df101d7)"><path fill="#ffbf00" d="M 159.492188 94.066406 C 159.492188 94.441406 159.417969 94.796875 159.277344 95.140625 C 159.136719 95.484375 158.933594 95.785156 158.667969 96.050781 C 158.40625 96.3125 158.101562 96.515625 157.761719 96.65625 C 157.417969 96.800781 157.058594 96.871094 156.6875 96.871094 L 36.152344 96.871094 C 35.777344 96.871094 35.421875 96.800781 35.078125 96.65625 C 34.734375 96.515625 34.429688 96.3125 34.167969 96.050781 C 33.90625 95.785156 33.703125 95.484375 33.5625 95.140625 C 33.417969 94.796875 33.347656 94.441406 33.347656 94.066406 C 33.347656 93.695312 33.417969 93.339844 33.5625 92.996094 C 33.703125 92.652344 33.90625 92.347656 34.167969 92.085938 C 34.429688 91.824219 34.734375 91.621094 35.078125 91.476562 C 35.421875 91.335938 35.777344 91.265625 36.152344 91.265625 L 156.6875 91.265625 C 157.058594 91.265625 157.417969 91.335938 157.761719 91.476562 C 158.101562 91.621094 158.40625 91.824219 158.667969 92.085938 C 158.933594 92.347656 159.136719 92.652344 159.277344 92.996094 C 159.417969 93.339844 159.492188 93.695312 159.492188 94.066406 Z M 159.492188 94.066406 " fill-opacity="1" fill-rule="evenodd"/></g><path stroke-linecap="butt" transform="matrix(0, 1.401587, -1.401587, 0, 159.490532, 82.855096)" fill-opacity="1" fill="#ffbf00" fill-rule="evenodd" stroke-linejoin="miter" d="M 7.99901 71.000914 C 12.419222 71.000914 16.000541 67.419595 16.000541 62.999382 C 16.000541 58.581957 12.419222 55.000638 7.99901 55.000638 C 3.581585 55.000638 0.000265613 58.581957 0.000265613 62.999382 C 0.000265613 67.419595 3.581585 71.000914 7.99901 71.000914 Z M 7.99901 71.000914 " stroke="#000000" stroke-width="2" stroke-opacity="1" stroke-miterlimit="4"/><g clip-path="url(#80bc02ee9e)"><path fill="#ffbf00" d="M 159.492188 134.714844 C 159.492188 135.085938 159.417969 135.441406 159.277344 135.785156 C 159.136719 136.128906 158.933594 136.433594 158.667969 136.695312 C 158.40625 136.957031 158.101562 137.160156 157.761719 137.304688 C 157.417969 137.445312 157.058594 137.515625 156.6875 137.515625 L 36.152344 137.515625 C 35.777344 137.515625 35.421875 137.445312 35.078125 137.304688 C 34.734375 137.160156 34.429688 136.957031 34.167969 136.695312 C 33.90625 136.433594 33.703125 136.128906 33.5625 135.785156 C 33.417969 135.441406 33.347656 135.085938 33.347656 134.714844 C 33.347656 134.34375 33.417969 133.984375 33.5625 133.640625 C 33.703125 133.296875 33.90625 132.996094 34.167969 132.730469 C 34.429688 132.46875 34.734375 132.265625 35.078125 132.125 C 35.421875 131.980469 35.777344 131.910156 36.152344 131.910156 L 156.6875 131.910156 C 157.058594 131.910156 157.417969 131.980469 157.761719 132.125 C 158.101562 132.265625 158.40625 132.46875 158.667969 132.730469 C 158.933594 132.996094 159.136719 133.296875 159.277344 133.640625 C 159.417969 133.984375 159.492188 134.34375 159.492188 134.714844 Z M 159.492188 134.714844 " fill-opacity="1" fill-rule="evenodd"/></g><path fill="#ffbf00" d="M 116.042969 134.714844 C 116.042969 140.90625 121.0625 145.925781 127.253906 145.925781 C 133.445312 145.925781 138.464844 140.90625 138.464844 134.714844 C 138.464844 128.519531 133.445312 123.5 127.253906 123.5 C 121.0625 123.5 116.042969 128.519531 116.042969 134.714844 Z M 116.042969 134.714844 " fill-opacity="1" fill-rule="evenodd"/><g clip-path="url(#85a446cd4f)"><path stroke-linecap="butt" transform="matrix(0, 1.401587, -1.401587, 0, 159.490532, 123.501132)" fill="none" stroke-linejoin="miter" d="M 8.000723 30.998831 C 12.418149 30.998831 15.999468 27.417511 15.999468 23.000086 C 15.999468 18.582661 12.418149 15.001342 8.000723 15.001342 C 3.580511 15.001342 -0.000807944 18.582661 -0.000807944 23.000086 C -0.000807944 27.417511 3.580511 30.998831 8.000723 30.998831 Z M 8.000723 30.998831 " stroke="#000000" stroke-width="2" stroke-opacity="1" stroke-miterlimit="4"/></g><path fill="#ffbf00" d="M 93.5 187 C 41.84375 187 0 144.867188 0 93.5 C 0 42.132812 41.84375 0 93.5 0 C 145.15625 0 187 41.84375 187 93.5 C 187 145.15625 144.867188 187 93.5 187 Z M 93.5 5.773438 C 45.019531 5.773438 5.773438 45.019531 5.773438 93.5 C 5.773438 141.984375 45.019531 181.230469 93.5 181.230469 C 141.984375 181.230469 181.230469 141.984375 181.230469 93.5 C 181.230469 45.019531 141.695312 5.773438 93.5 5.773438 Z M 93.5 5.773438 " fill-opacity="1" fill-rule="nonzero"/></svg>