<svg xmlns="http://www.w3.org/2000/svg" xmlns:xlink="http://www.w3.org/1999/xlink" width="500" zoomAndPan="magnify" viewBox="0 0 375 374.999991" height="500" preserveAspectRatio="xMidYMid meet" version="1.0"><defs><clipPath id="2bef02a70f"><path d="M 32.296875 27.636719 L 352.546875 27.636719 L 352.546875 347.886719 L 32.296875 347.886719 Z M 32.296875 27.636719 " clip-rule="nonzero"/></clipPath><clipPath id="9c48d95635"><path d="M 255 94 L 315.945312 94 L 315.945312 163 L 255 163 Z M 255 94 " clip-rule="nonzero"/></clipPath><clipPath id="df9d94b684"><path d="M 246 85.597656 L 315 85.597656 L 315 143 L 246 143 Z M 246 85.597656 " clip-rule="nonzero"/></clipPath><clipPath id="c628bfc155"><path d="M 58.695312 134 L 79 134 L 79 157 L 58.695312 157 Z M 58.695312 134 " clip-rule="nonzero"/></clipPath><clipPath id="ebdca8facd"><path d="M 100 85.597656 L 128 85.597656 L 128 99 L 100 99 Z M 100 85.597656 " clip-rule="nonzero"/></clipPath></defs><g clip-path="url(#2bef02a70f)"><path fill="#0d9bbf" d="M 192.386719 347.816406 C 103.941406 347.816406 32.296875 275.679688 32.296875 187.726562 C 32.296875 99.777344 103.941406 27.636719 192.386719 27.636719 C 280.832031 27.636719 352.476562 99.285156 352.476562 187.726562 C 352.476562 276.171875 280.335938 347.816406 192.386719 347.816406 Z M 192.386719 37.519531 C 109.375 37.519531 42.179688 104.71875 42.179688 187.726562 C 42.179688 270.738281 109.375 337.9375 192.386719 337.9375 C 275.394531 337.9375 342.59375 270.738281 342.59375 187.726562 C 342.59375 104.71875 274.902344 37.519531 192.386719 37.519531 Z M 192.386719 37.519531 " fill-opacity="1" fill-rule="nonzero"/></g><path fill="#d48230" d="M 297.695312 207.113281 C 295.332031 209.734375 293.097656 212.484375 290.671875 215.167969 C 277.074219 230.320312 262.394531 244.445312 248.921875 259.722656 C 244.902344 264.390625 241.007812 269.183594 237.304688 274.105469 C 235.835938 276.023438 234.625 277.109375 234.429688 276.472656 C 234.238281 275.832031 234.878906 274.554688 236.027344 273.019531 C 239.601562 268.160156 243.433594 263.429688 247.328125 258.828125 C 262.585938 241.183594 280.011719 225.011719 293.738281 206.09375 C 300.632812 196.183594 306.761719 185.890625 306.378906 173.425781 C 305.929688 159.171875 298.140625 146.964844 289.972656 135.90625 C 289.714844 135.648438 289.523438 135.328125 289.269531 135.074219 C 288.054688 133.476562 288.121094 132.070312 289.398438 131.621094 C 290.671875 131.175781 292.398438 131.8125 293.671875 133.410156 C 296.484375 136.992188 299.164062 140.699219 301.589844 144.535156 C 307.71875 155.082031 312.824219 166.332031 311.421875 178.925781 C 311.355469 179.246094 311.484375 179.5625 311.484375 179.949219 C 307.847656 189.472656 302.996094 198.292969 297.695312 207.113281 Z M 297.695312 207.113281 " fill-opacity="1" fill-rule="nonzero"/><path fill="#1a793e" d="M 162.421875 310.15625 C 163.699219 309.839844 165.101562 309.453125 166.699219 309.136719 C 178.445312 306.449219 186.296875 304.726562 193.382812 294.050781 C 204.425781 277.300781 214.578125 260.042969 225.941406 243.550781 C 235.835938 229.167969 245.984375 213.761719 248.09375 195.992188 C 248.15625 195.351562 248.21875 194.714844 248.347656 194.011719 C 248.605469 192.476562 249.625 191.324219 251.347656 190.75 C 253.136719 190.175781 254.15625 190.6875 254.03125 192.09375 C 253.773438 194.585938 253.390625 197.144531 252.816406 199.636719 C 248.21875 218.300781 236.28125 234.347656 225.429688 249.816406 C 214.449219 265.730469 204.492188 282.289062 194.085938 298.589844 C 187.253906 309.261719 180.167969 311.628906 168.550781 314.378906 C 168.292969 314.441406 168.167969 314.632812 167.976562 314.761719 C 166.058594 313.226562 164.210938 311.691406 162.421875 310.15625 Z M 162.421875 310.15625 " fill-opacity="1" fill-rule="nonzero"/><path fill="#375199" d="M 128.078125 274.808594 C 129.097656 275.769531 130.246094 276.535156 131.523438 277.175781 C 146.269531 283.949219 168.039062 273.210938 182.082031 268.863281 C 192.488281 264.773438 198.234375 248.792969 203.851562 239.90625 C 205.386719 237.542969 206.789062 235.050781 208.128906 232.621094 C 209.46875 230.253906 210.875 228.976562 212.152344 229.167969 C 213.363281 229.359375 213.429688 230.828125 212.023438 233.132812 C 209.023438 237.988281 206.023438 242.847656 203.023438 247.707031 C 198.234375 255.566406 193.640625 267.523438 185.976562 272.890625 C 181.890625 275.769531 177.039062 276.726562 172.253906 278.070312 C 163.953125 280.433594 155.65625 283.3125 146.972656 283.820312 C 143.078125 284.140625 138.164062 283.503906 134.652344 281.777344 C 134.460938 281.710938 134.332031 281.648438 134.140625 281.519531 C 132.097656 279.285156 130.054688 277.046875 128.078125 274.808594 Z M 128.078125 274.808594 " fill-opacity="1" fill-rule="nonzero"/><path fill="#f3e22b" d="M 205.703125 315.847656 C 207.429688 312.652344 209.152344 309.390625 210.9375 306.066406 C 221.28125 286.828125 233.410156 269.054688 247.390625 252.242188 C 260.667969 236.582031 275.160156 221.433594 285.949219 203.855469 C 290.289062 196.3125 293.480469 189.152344 295.078125 180.523438 C 295.269531 178.988281 296.484375 177.902344 298.078125 177.839844 C 299.738281 177.773438 300.632812 178.734375 300.441406 180.332031 C 298.78125 188.511719 295.78125 195.097656 291.566406 202.257812 C 283.203125 215.746094 272.03125 227.378906 261.5625 239.203125 C 254.414062 247.257812 247.328125 255.375 240.496094 263.8125 C 229.003906 278.582031 219.109375 294.113281 210.492188 310.734375 C 210.300781 311.054688 210.171875 311.4375 209.980469 311.820312 C 208.769531 313.289062 207.238281 314.632812 205.703125 315.847656 Z M 205.703125 315.847656 " fill-opacity="1" fill-rule="nonzero"/><path fill="#c12c2a" d="M 198.746094 105.988281 C 201.042969 104.199219 203.46875 102.601562 206.023438 101.195312 C 206.660156 100.875 207.300781 100.554688 207.875 100.425781 C 209.085938 100.234375 209.535156 101.003906 209.277344 102.34375 C 208.960938 103.816406 207.9375 104.964844 206.660156 105.667969 C 204.171875 107.011719 201.875 108.417969 199.703125 110.144531 C 194.789062 114.554688 191.210938 118.710938 187.445312 124.078125 C 174.359375 106.691406 160.316406 98.382812 138.289062 101.324219 C 121.5 104.390625 105.09375 113.53125 92.390625 124.71875 C 91.242188 125.742188 90.027344 126.765625 88.816406 127.785156 C 87.21875 129.066406 85.6875 129.449219 84.476562 128.808594 C 83.390625 128.296875 83.644531 126.890625 85.113281 125.484375 C 102.988281 108.867188 132.929688 89.304688 157.953125 96.464844 C 163.378906 98 167.976562 100.300781 172.761719 103.367188 C 172.953125 103.496094 173.148438 103.496094 173.339844 103.625 C 176.65625 107.140625 182.082031 116.917969 186.359375 117.558594 C 188.59375 120.050781 190.128906 119.414062 191.085938 115.640625 C 193.253906 112.125 195.875 108.929688 198.746094 105.988281 Z M 198.746094 105.988281 " fill-opacity="1" fill-rule="nonzero"/><path fill="#6b117d" d="M 113.265625 257.484375 C 114.542969 258.125 116.074219 258.699219 117.542969 259.019531 C 133.375 261.640625 151.378906 253.011719 165.933594 247.832031 C 166.445312 247.640625 167.019531 247.449219 167.59375 247.320312 C 168.996094 246.875 170.335938 247.578125 171.359375 249.367188 C 172.445312 251.222656 172.316406 252.371094 170.914062 252.753906 C 166.316406 254.035156 161.847656 255.695312 157.378906 257.292969 C 146.972656 260.746094 135.097656 265.09375 123.863281 263.878906 C 121.054688 263.496094 118.4375 262.535156 116.394531 261.320312 C 115.371094 260.042969 114.351562 258.765625 113.265625 257.484375 Z M 113.265625 257.484375 " fill-opacity="1" fill-rule="nonzero"/><path fill="#c12c2a" d="M 59.066406 162.304688 C 71.515625 149.265625 84.730469 137.121094 98.710938 125.804688 C 114.097656 114.234375 133.4375 103.816406 153.355469 105.925781 C 153.996094 105.988281 154.632812 106.054688 155.207031 106.179688 C 156.804688 106.5625 157.824219 107.714844 158.082031 109.375 C 158.335938 111.039062 157.441406 111.679688 155.972656 111.484375 C 153.484375 111.230469 150.867188 110.910156 148.1875 110.910156 C 130.757812 111.039062 114.925781 119.988281 101.328125 130.023438 C 87.15625 141.339844 73.6875 153.355469 60.980469 166.394531 C 60.597656 166.78125 60.089844 167.164062 59.707031 167.546875 C 59.449219 165.757812 59.195312 164.03125 59.066406 162.304688 Z M 59.066406 162.304688 " fill-opacity="1" fill-rule="nonzero"/><path fill="#375199" d="M 151.570312 299.675781 C 153.230469 299.675781 155.144531 299.675781 157.1875 299.484375 C 163.632812 298.714844 170.082031 296.863281 176.273438 295.074219 C 188.59375 291.429688 193.0625 282.992188 199.574219 272.25 C 200.023438 271.484375 200.46875 270.71875 200.980469 270.015625 C 202 268.417969 203.085938 267.648438 204.042969 268.03125 C 204.9375 268.417969 204.808594 269.757812 203.660156 271.546875 C 200.980469 275.832031 198.300781 280.179688 195.679688 284.523438 C 189.488281 293.984375 185.976562 298.011719 175.382812 301.144531 C 170.019531 302.742188 164.464844 304.214844 158.910156 304.851562 C 158.144531 304.917969 157.441406 304.980469 156.738281 304.980469 C 155.015625 303.191406 153.292969 301.402344 151.570312 299.675781 Z M 151.570312 299.675781 " fill-opacity="1" fill-rule="nonzero"/><path fill="#1a793e" d="M 90.027344 226.867188 C 96.605469 224.566406 102.734375 221.304688 108.925781 218.300781 C 120.160156 212.867188 131.332031 207.304688 142.3125 201.488281 C 142.632812 201.363281 142.886719 201.167969 143.269531 201.042969 C 144.546875 200.59375 146.078125 201.234375 147.164062 202.769531 C 148.378906 204.492188 148.378906 205.707031 147.292969 206.285156 C 145.953125 207.050781 144.484375 207.691406 143.140625 208.394531 C 129.035156 215.296875 114.925781 222.265625 100.433594 228.210938 C 97.6875 229.296875 95.136719 230.125 92.902344 230.894531 C 91.945312 229.550781 90.984375 228.210938 90.027344 226.867188 Z M 90.027344 226.867188 " fill-opacity="1" fill-rule="nonzero"/><path fill="#f3e22b" d="M 78.984375 210.3125 C 98.199219 197.71875 117.671875 185.574219 137.140625 173.363281 C 137.460938 173.171875 137.78125 172.917969 138.164062 172.789062 C 139.441406 172.277344 140.84375 172.722656 142.183594 174.257812 C 143.460938 175.855469 143.527344 177.199219 142.503906 177.964844 C 141.292969 178.859375 139.949219 179.5625 138.671875 180.332031 C 123.289062 189.535156 107.648438 198.421875 92.390625 207.882812 C 88.816406 210.054688 85.175781 212.164062 81.730469 214.464844 C 80.773438 213.058594 79.878906 211.71875 78.984375 210.3125 Z M 78.984375 210.3125 " fill-opacity="1" fill-rule="nonzero"/><path fill="#c12c2a" d="M 60.917969 139.546875 C 63.726562 136.542969 66.664062 133.605469 69.535156 130.597656 C 77.261719 122.800781 85.242188 115.320312 93.859375 108.355469 C 107.203125 98.382812 122.523438 89.945312 139.058594 86.941406 C 139.503906 86.875 139.949219 86.683594 140.398438 86.554688 C 144.992188 87.324219 149.910156 88.730469 154.1875 90.648438 C 151.441406 90.457031 148.570312 90.390625 145.566406 90.582031 C 122.457031 92.117188 101.136719 105.925781 84.347656 120.820312 C 75.855469 128.679688 67.429688 136.609375 59.769531 145.238281 C 60.089844 143.382812 60.472656 141.464844 60.917969 139.546875 Z M 60.917969 139.546875 " fill-opacity="1" fill-rule="nonzero"/><path fill="#d48230" d="M 281.480469 231.40625 C 278.671875 233.898438 275.863281 236.519531 273.054688 239.269531 C 261.945312 250.070312 251.347656 261.191406 241.582031 273.210938 C 236.410156 279.859375 231.621094 286.632812 227.089844 293.730469 C 226.898438 294.050781 226.707031 294.433594 226.515625 294.816406 C 225.175781 296.222656 223.898438 297.566406 222.558594 298.90625 C 224.601562 295.390625 226.769531 291.941406 228.941406 288.488281 C 237.242188 275.960938 246.496094 264.390625 256.710938 253.394531 C 266.671875 242.976562 276.949219 232.875 287.164062 222.777344 C 287.417969 222.519531 287.738281 222.328125 287.992188 222.074219 C 285.949219 225.269531 283.714844 228.335938 281.480469 231.40625 Z M 281.480469 231.40625 " fill-opacity="1" fill-rule="nonzero"/><path fill="#d48230" d="M 195.363281 323.453125 C 200.980469 313.609375 206.980469 304.023438 212.664062 294.242188 C 222.492188 277.300781 233.664062 261.449219 245.988281 246.300781 C 247.390625 244.574219 248.730469 243.804688 249.433594 244.191406 C 250.136719 244.574219 249.753906 245.851562 248.285156 247.449219 C 241.773438 255.058594 235.707031 262.984375 229.835938 271.164062 C 219.238281 286.570312 210.429688 302.933594 200.851562 318.980469 C 200.660156 319.234375 200.535156 319.554688 200.40625 319.808594 C 198.808594 321.023438 197.085938 322.238281 195.363281 323.453125 Z M 195.363281 323.453125 " fill-opacity="1" fill-rule="nonzero"/><path fill="#d48230" d="M 64.109375 183.207031 C 78.472656 169.144531 93.921875 156.742188 110.203125 144.980469 C 115.753906 141.082031 121.4375 137.375 127.246094 133.796875 C 127.566406 133.605469 127.949219 133.410156 128.332031 133.285156 C 129.929688 132.707031 131.394531 133.027344 132.480469 134.5625 C 133.566406 136.097656 133.3125 137.4375 131.96875 138.207031 C 108.796875 151.886719 88.242188 168.441406 68.003906 186.210938 C 67.367188 186.722656 66.726562 187.234375 66.089844 187.683594 C 65.386719 186.210938 64.75 184.742188 64.109375 183.207031 Z M 64.109375 183.207031 " fill-opacity="1" fill-rule="nonzero"/><g clip-path="url(#9c48d95635)"><path fill="#c12c2a" d="M 315.378906 162.945312 C 313.78125 158.277344 311.738281 153.804688 309.570312 149.328125 C 298.015625 127.722656 279.308594 110.65625 257.859375 99.148438 C 256.773438 98.636719 255.5625 97.613281 255.179688 96.847656 C 254.414062 95.058594 256.839844 94.292969 259.328125 95.570312 C 263.925781 98.125 268.328125 100.8125 272.734375 103.75 C 289.90625 116.28125 305.101562 131.75 314.933594 150.796875 C 315.125 151.117188 315.378906 151.4375 315.570312 151.757812 C 315.824219 155.527344 315.761719 159.238281 315.378906 162.945312 Z M 315.378906 162.945312 " fill-opacity="1" fill-rule="nonzero"/></g><path fill="#6b117d" d="M 140.207031 288.039062 C 141.355469 288.425781 142.632812 288.742188 144.101562 289 C 152.460938 289.957031 160.632812 287.464844 168.613281 285.292969 C 168.871094 285.226562 169.0625 285.101562 169.316406 285.101562 C 170.210938 285.035156 171.105469 285.738281 171.871094 287.210938 C 172.699219 288.742188 172.699219 289.894531 171.933594 290.214844 C 170.976562 290.597656 169.953125 290.851562 168.996094 291.109375 C 161.527344 293.089844 153.804688 295.390625 146.078125 293.921875 C 146.015625 293.921875 145.953125 293.984375 145.886719 294.050781 C 144.035156 292.003906 142.121094 290.023438 140.207031 288.039062 Z M 140.207031 288.039062 " fill-opacity="1" fill-rule="nonzero"/><g clip-path="url(#df9d94b684)"><path fill="#c12c2a" d="M 256.839844 86.363281 C 266.988281 91.605469 276.183594 98.125 284.929688 105.414062 C 294.375 113.660156 302.996094 122.480469 310.847656 132.261719 C 311.230469 132.773438 311.738281 133.285156 312.1875 133.796875 C 313.082031 136.480469 313.78125 139.230469 314.359375 142.105469 C 312.058594 138.71875 309.632812 135.328125 307.144531 132.132812 C 291.949219 112.699219 271.523438 95.058594 248.15625 86.429688 C 247.582031 86.238281 247.007812 85.917969 246.433594 85.660156 C 249.945312 85.597656 253.457031 85.851562 256.839844 86.363281 Z M 256.839844 86.363281 " fill-opacity="1" fill-rule="nonzero"/></g><path fill="#375199" d="M 95.648438 234.664062 C 96.03125 234.664062 96.476562 234.730469 96.859375 234.664062 C 107.96875 232.042969 118.691406 226.738281 129.097656 222.199219 C 129.542969 222.007812 129.992188 221.816406 130.4375 221.625 C 131.523438 221.242188 132.800781 221.878906 133.949219 223.351562 C 135.035156 224.820312 135.226562 225.972656 134.269531 226.417969 C 131.777344 227.441406 129.417969 228.527344 126.992188 229.488281 C 117.988281 233.066406 108.414062 237.542969 98.648438 238.628906 C 97.5625 237.351562 96.605469 236.007812 95.648438 234.664062 Z M 95.648438 234.664062 " fill-opacity="1" fill-rule="nonzero"/><path fill="#6b117d" d="M 107.265625 250.007812 C 108.160156 250.199219 109.179688 250.519531 110.074219 250.582031 C 116.074219 250.964844 121.882812 249.367188 127.628906 247.898438 C 127.949219 247.832031 128.269531 247.707031 128.652344 247.640625 C 129.671875 247.449219 130.949219 248.152344 131.96875 249.558594 C 132.992188 250.964844 133.183594 252.242188 132.226562 252.5 C 129.351562 253.140625 126.734375 253.96875 124.117188 254.226562 C 119.585938 254.480469 114.863281 254.929688 110.394531 253.90625 C 109.308594 252.628906 108.285156 251.285156 107.265625 250.007812 Z M 107.265625 250.007812 " fill-opacity="1" fill-rule="nonzero"/><path fill="#d48230" d="M 184.382812 326.523438 C 186.9375 324.667969 189.746094 321.792969 192.425781 317.574219 C 199.066406 306.386719 205.960938 295.328125 212.917969 284.269531 C 213.046875 284.015625 213.238281 283.757812 213.363281 283.503906 C 214.578125 281.519531 215.726562 280.5625 216.300781 280.945312 C 216.875 281.394531 216.558594 282.925781 215.34375 284.84375 C 213.109375 288.679688 210.8125 292.578125 208.449219 296.351562 C 202.382812 306.003906 196.765625 315.910156 190.574219 325.4375 C 190.382812 325.753906 190.191406 326.074219 190.0625 326.394531 C 188.210938 327.097656 186.296875 327.097656 184.382812 326.523438 Z M 184.382812 326.523438 " fill-opacity="1" fill-rule="nonzero"/><path fill="#d48230" d="M 68.386719 192.414062 C 70.75 190.304688 73.558594 188.320312 76.046875 186.019531 C 83.199219 179.5625 90.601562 173.554688 98.582031 168.25 C 100.625 166.90625 102.925781 167.164062 104.199219 168.953125 C 105.222656 170.421875 104.648438 171.445312 103.371094 172.210938 C 98.199219 175.535156 93.347656 179.308594 88.433594 182.953125 C 82.558594 187.296875 76.941406 191.773438 71.515625 196.695312 C 71.386719 196.824219 71.132812 196.949219 70.941406 197.078125 C 70.046875 195.480469 69.152344 193.945312 68.386719 192.414062 Z M 68.386719 192.414062 " fill-opacity="1" fill-rule="nonzero"/><path fill="#6b117d" d="M 119.648438 265.15625 C 123.097656 267.90625 127.566406 268.417969 131.714844 269.121094 C 132.417969 269.183594 133.054688 269.121094 133.820312 269.121094 C 134.78125 269.121094 135.863281 269.886719 136.886719 271.484375 C 137.90625 273.082031 138.035156 274.042969 137.078125 273.976562 C 133.246094 273.785156 130.183594 273.402344 127.566406 272.25 C 126.035156 271.546875 124.375 270.335938 123.035156 269.054688 C 122.90625 268.929688 122.648438 268.671875 122.523438 268.480469 C 121.566406 267.328125 120.605469 266.242188 119.648438 265.15625 Z M 119.648438 265.15625 " fill-opacity="1" fill-rule="nonzero"/><path fill="#1a793e" d="M 84.410156 218.621094 C 90.476562 214.65625 96.796875 211.269531 103.308594 208.074219 C 103.882812 207.816406 104.390625 207.433594 105.03125 207.179688 C 106.050781 206.796875 107.328125 207.242188 108.542969 208.394531 C 109.753906 209.542969 110.136719 210.695312 109.308594 211.269531 C 108.476562 211.910156 107.457031 212.355469 106.5 212.867188 C 100.113281 216.253906 93.796875 219.835938 87.15625 222.777344 C 86.261719 221.371094 85.367188 220.027344 84.410156 218.621094 Z M 84.410156 218.621094 " fill-opacity="1" fill-rule="nonzero"/><path fill="#d48230" d="M 230.472656 290.726562 C 234.625 284.589844 238.898438 278.644531 243.496094 272.828125 C 246.753906 268.863281 250.007812 265.027344 253.457031 261.257812 C 255.753906 258.765625 256.773438 257.996094 257.09375 258.1875 C 257.414062 258.445312 256.582031 259.46875 254.222656 262.023438 C 247.582031 269.3125 241.453125 276.917969 235.644531 284.910156 C 235.261719 285.484375 234.878906 286.058594 234.429688 286.632812 C 233.089844 287.976562 231.75 289.320312 230.472656 290.726562 Z M 230.472656 290.726562 " fill-opacity="1" fill-rule="nonzero"/><path fill="#c12c2a" d="M 105.476562 89.304688 C 102.222656 91.476562 98.902344 93.714844 95.839844 96.144531 C 86.773438 103.558594 78.15625 111.613281 69.917969 120.050781 C 68.960938 121.074219 68.003906 122.035156 67.046875 123.054688 C 68.003906 121.265625 68.960938 119.476562 70.109375 117.75 C 70.558594 117.304688 71.070312 116.792969 71.515625 116.34375 C 79.496094 108.097656 87.921875 100.300781 96.859375 92.949219 C 99.605469 91.542969 102.476562 90.328125 105.476562 89.304688 Z M 105.476562 89.304688 " fill-opacity="1" fill-rule="nonzero"/><path fill="#c12c2a" d="M 64.492188 128.554688 C 69.089844 123.566406 73.8125 118.710938 78.664062 114.042969 C 81.984375 110.847656 85.367188 107.714844 88.878906 104.710938 C 90.667969 103.242188 92.261719 102.601562 92.964844 103.046875 C 93.667969 103.496094 93.027344 104.710938 91.242188 106.246094 C 81.792969 114.363281 72.855469 122.863281 64.429688 131.941406 C 63.792969 132.644531 63.089844 133.285156 62.449219 133.988281 C 63.089844 132.132812 63.726562 130.34375 64.492188 128.554688 Z M 64.492188 128.554688 " fill-opacity="1" fill-rule="nonzero"/><path fill="#375199" d="M 173.53125 319.042969 C 174.359375 318.722656 175.1875 318.402344 176.019531 318.148438 C 178.957031 317.191406 182.210938 316.871094 185.722656 314.378906 C 187.0625 313.480469 188.785156 313.738281 188.851562 315.464844 C 188.851562 316.230469 188.402344 317.382812 187.894531 317.957031 C 185.085938 321.023438 182.210938 321.917969 179.847656 322.621094 C 179.464844 322.75 179.082031 322.941406 178.699219 323.070312 C 176.976562 321.726562 175.253906 320.386719 173.53125 319.042969 Z M 173.53125 319.042969 " fill-opacity="1" fill-rule="nonzero"/><path fill="#6b117d" d="M 101.390625 242.398438 C 102.734375 242.398438 104.136719 242.398438 105.605469 242.207031 C 106.945312 242.082031 108.222656 241.761719 109.628906 241.441406 C 110.585938 241.25 111.863281 241.886719 113.011719 243.296875 C 114.160156 244.636719 114.351562 245.597656 113.457031 245.722656 C 109.945312 246.171875 106.945312 246.425781 104.390625 246.363281 C 103.371094 245.019531 102.347656 243.742188 101.390625 242.398438 Z M 101.390625 242.398438 " fill-opacity="1" fill-rule="nonzero"/><path fill="#d48230" d="M 214.257812 307.601562 C 218.40625 299.867188 222.8125 292.386719 227.601562 285.035156 C 228.8125 283.246094 229.769531 282.480469 230.089844 282.925781 C 230.410156 283.3125 229.835938 284.71875 228.621094 286.507812 C 225.238281 291.621094 221.984375 296.863281 218.984375 302.230469 C 218.792969 302.617188 218.597656 302.933594 218.40625 303.320312 C 217.066406 304.726562 215.664062 306.132812 214.257812 307.601562 Z M 214.257812 307.601562 " fill-opacity="1" fill-rule="nonzero"/><g clip-path="url(#c628bfc155)"><path fill="#d48230" d="M 59.066406 150.796875 C 61.171875 148.5625 63.472656 146.324219 65.707031 144.085938 C 68.261719 141.53125 70.8125 138.910156 73.496094 136.351562 C 75.539062 134.433594 77.132812 133.796875 78.21875 134.5 C 79.304688 135.203125 78.855469 136.734375 76.941406 138.460938 C 70.621094 144.214844 64.558594 150.289062 58.8125 156.679688 C 58.875 154.699219 58.9375 152.714844 59.066406 150.796875 Z M 59.066406 150.796875 " fill-opacity="1" fill-rule="nonzero"/></g><path fill="#c12c2a" d="M 233.855469 86.941406 C 236.921875 87.453125 240.050781 88.15625 243.175781 89.050781 C 243.945312 89.242188 244.710938 89.496094 245.410156 89.753906 C 247.328125 90.457031 248.285156 91.542969 247.835938 92.691406 C 247.390625 93.90625 245.859375 94.226562 243.753906 93.714844 C 238.070312 92.5 232.644531 91.605469 227.027344 91.285156 C 224.34375 91.160156 221.535156 91.476562 218.855469 91.796875 C 223.898438 89.6875 228.558594 88.15625 233.855469 86.941406 Z M 233.855469 86.941406 " fill-opacity="1" fill-rule="nonzero"/><path fill="#d48230" d="M 60.855469 172.980469 C 63.855469 169.785156 66.984375 166.652344 70.238281 163.710938 C 70.492188 163.519531 70.6875 163.265625 70.941406 163.007812 C 72.472656 161.601562 74.261719 161.347656 75.472656 162.242188 C 76.6875 163.199219 76.558594 164.542969 75.089844 165.882812 C 71.898438 168.761719 68.769531 171.703125 65.707031 174.769531 C 64.621094 175.855469 63.40625 176.878906 62.324219 177.964844 C 61.75 176.367188 61.238281 174.707031 60.855469 172.980469 Z M 60.855469 172.980469 " fill-opacity="1" fill-rule="nonzero"/><path fill="#c12c2a" d="M 309.570312 126.828125 C 304.015625 120.691406 298.332031 114.746094 292.460938 108.929688 C 290.800781 107.265625 290.226562 106.308594 290.800781 106.117188 C 291.4375 105.925781 292.78125 106.757812 294.566406 108.546875 C 298.589844 112.507812 302.546875 116.535156 306.378906 120.628906 C 307.527344 122.609375 308.613281 124.65625 309.570312 126.828125 Z M 309.570312 126.828125 " fill-opacity="1" fill-rule="nonzero"/><g clip-path="url(#ebdca8facd)"><path fill="#c12c2a" d="M 127.820312 85.597656 C 124.882812 86.683594 121.882812 87.835938 118.882812 89.242188 C 114.097656 91.476562 109.4375 93.90625 104.902344 96.59375 C 102.605469 97.933594 100.816406 98.382812 100.308594 97.679688 C 99.796875 97.039062 100.753906 95.699219 102.925781 94.292969 C 106.371094 92.054688 109.945312 90.007812 113.585938 88.089844 C 114.414062 87.644531 115.246094 87.132812 116.140625 86.683594 C 120.097656 86.046875 124.054688 85.660156 127.820312 85.597656 Z M 127.820312 85.597656 " fill-opacity="1" fill-rule="nonzero"/></g><path fill="#c12c2a" d="M 302.867188 115.003906 C 296.355469 108.417969 289.714844 102.089844 282.820312 95.953125 C 285.183594 97.421875 287.480469 99.019531 289.652344 100.8125 C 292.84375 103.816406 296.035156 106.882812 299.101562 110.015625 C 300.375 111.613281 301.652344 113.277344 302.867188 115.003906 Z M 302.867188 115.003906 " fill-opacity="1" fill-rule="nonzero"/><path fill="#d48230" d="M 270.820312 245.339844 C 268.96875 247.003906 267.179688 248.726562 265.328125 250.453125 C 263.734375 251.988281 262.585938 252.882812 262.203125 252.753906 C 261.816406 252.628906 262.457031 251.667969 264.050781 250.070312 C 267.371094 246.683594 270.882812 243.359375 274.394531 240.164062 C 274.839844 239.777344 275.289062 239.394531 275.734375 239.011719 C 274.140625 241.183594 272.542969 243.296875 270.820312 245.339844 Z M 270.820312 245.339844 " fill-opacity="1" fill-rule="nonzero"/><path fill="#c12c2a" d="M 275.097656 91.796875 C 277.332031 93.523438 279.628906 95.3125 281.800781 97.167969 C 283.84375 98.894531 284.738281 99.980469 284.226562 100.300781 C 283.714844 100.683594 282.308594 99.980469 280.203125 98.316406 C 275.734375 94.929688 271.203125 91.671875 266.542969 88.539062 C 269.480469 89.496094 272.351562 90.582031 275.097656 91.796875 Z M 275.097656 91.796875 " fill-opacity="1" fill-rule="nonzero"/><path fill="#c12c2a" d="M 88.945312 97.742188 C 84.089844 102.152344 79.367188 106.691406 74.835938 111.359375 C 74.515625 111.679688 74.132812 112.0625 73.8125 112.382812 C 75.027344 110.847656 76.238281 109.3125 77.582031 107.84375 C 79.113281 106.308594 80.644531 104.710938 82.175781 103.175781 C 84.285156 101.257812 86.582031 99.40625 88.945312 97.742188 Z M 88.945312 97.742188 " fill-opacity="1" fill-rule="nonzero"/><path fill="#f3e22b" d="M 73.558594 201.617188 C 74.132812 201.167969 74.644531 200.722656 75.28125 200.339844 C 76.238281 199.828125 77.453125 199.890625 78.792969 200.851562 C 80.132812 201.871094 80.453125 202.832031 79.621094 203.535156 C 78.539062 204.367188 77.324219 205.132812 76.175781 205.898438 C 75.28125 204.429688 74.453125 203.023438 73.558594 201.617188 Z M 73.558594 201.617188 " fill-opacity="1" fill-rule="nonzero"/><path fill="#d48230" d="M 286.460938 193.371094 C 280.140625 208.839844 269.097656 222.007812 258.691406 234.855469 C 258.5625 235.050781 258.433594 235.175781 258.308594 235.367188 C 256.648438 237.351562 255.433594 238.308594 254.414062 238.117188 C 253.390625 237.925781 253.648438 236.710938 255.242188 234.664062 C 261.5625 226.609375 267.945312 218.492188 273.117188 209.609375 C 280.585938 196.757812 286.523438 182.375 282.503906 167.355469 C 277.96875 150.605469 264.371094 138.332031 250.136719 129.640625 C 239.21875 123.503906 226.386719 121.457031 214.066406 124.207031 C 211.832031 124.71875 210.875 124.015625 211.195312 122.097656 C 211.578125 120.308594 212.980469 118.902344 215.28125 118.390625 C 233.730469 114.300781 252.945312 121.96875 266.796875 134.179688 C 279.882812 146.386719 291.183594 162.242188 289.269531 181.097656 C 288.949219 185.253906 287.738281 189.472656 286.460938 193.371094 Z M 286.460938 193.371094 " fill-opacity="1" fill-rule="nonzero"/><path fill="#c12c2a" d="M 185.785156 131.046875 C 180.488281 124.847656 175.125 119.539062 168.230469 115.640625 C 167.785156 115.386719 167.335938 115.195312 166.890625 114.875 C 165.484375 113.980469 164.59375 112.636719 164.527344 111.101562 C 164.464844 109.570312 165.359375 108.992188 166.699219 109.695312 C 169.828125 111.292969 172.761719 113.085938 175.574219 115.449219 C 179.785156 119.414062 183.488281 123.695312 187.765625 127.59375 C 199.257812 112.574219 212.789062 105.667969 231.75 106.5 C 262.839844 109.25 295.269531 137.886719 300.441406 169.082031 C 300.761719 170.933594 299.800781 171.957031 297.949219 172.148438 C 296.292969 172.339844 295.140625 171.445312 294.824219 169.464844 C 291.695312 149.96875 277.332031 134.308594 261.816406 123.25 C 241.324219 110.464844 214.898438 105.476562 195.488281 123.3125 C 193.957031 124.71875 192.425781 126.1875 190.957031 127.914062 C 189.296875 130.085938 187.445312 133.027344 185.785156 131.046875 Z M 185.785156 131.046875 " fill-opacity="1" fill-rule="nonzero"/><path fill="#6b117d" d="M 198.042969 223.542969 C 197.980469 227.25 196.832031 230.957031 194.53125 234.921875 C 190.128906 242.207031 187.382812 247.320312 179.148438 250.199219 C 177.871094 250.644531 176.65625 249.878906 175.507812 248.089844 C 174.421875 246.363281 174.550781 245.019531 175.890625 244.574219 C 182.851562 242.273438 186.359375 240.609375 190.703125 234.539062 C 193.382812 230.191406 194.023438 226.292969 192.425781 224.375 C 190.191406 222.710938 182.914062 221.304688 180.234375 221.753906 C 174.230469 223.671875 168.359375 226.035156 162.484375 228.464844 C 148.570312 234.152344 134.652344 240.097656 120.097656 244.125 C 119.96875 244.191406 119.839844 244.191406 119.714844 244.191406 C 118.628906 244.445312 117.414062 243.742188 116.203125 242.335938 C 115.054688 240.929688 114.863281 239.972656 115.945312 239.652344 C 117.796875 239.011719 119.839844 238.371094 121.949219 237.667969 C 140.460938 231.40625 158.144531 222.96875 176.339844 215.871094 C 180.234375 214.59375 185.148438 217.277344 188.785156 218.238281 C 193.445312 216.382812 196.640625 217.085938 197.789062 220.984375 C 197.851562 221.242188 197.980469 221.5625 197.980469 221.878906 C 197.980469 222.519531 198.042969 223.160156 198.042969 223.542969 Z M 198.042969 223.542969 " fill-opacity="1" fill-rule="nonzero"/><path fill="#375199" d="M 208.195312 219.898438 C 207.429688 226.484375 203.980469 232.363281 200.789062 238.054688 C 196.128906 246.042969 191.722656 258.125 182.785156 262.089844 C 178.765625 263.878906 174.105469 264.835938 169.890625 266.117188 C 161.144531 268.800781 152.527344 271.804688 143.460938 273.273438 C 143.140625 273.339844 142.886719 273.402344 142.503906 273.402344 C 141.738281 273.402344 140.84375 272.761719 139.824219 271.164062 C 138.800781 269.632812 138.609375 268.609375 139.441406 268.417969 C 141.226562 267.96875 143.269531 267.648438 145.3125 267.203125 C 153.867188 265.347656 162.101562 262.28125 170.402344 259.660156 C 174.933594 258.253906 180.042969 257.359375 184.125 254.992188 C 191.148438 250.964844 194.40625 242.082031 198.234375 235.433594 C 202.128906 228.976562 207.9375 207.371094 192.9375 211.460938 C 190.957031 211.972656 190.320312 211.140625 190.894531 209.160156 C 191.46875 207.371094 193.191406 205.964844 194.980469 205.324219 C 204.746094 202 207.9375 212.738281 208.195312 219.898438 Z M 208.195312 219.898438 " fill-opacity="1" fill-rule="nonzero"/><path fill="#d48230" d="M 264.945312 195.800781 C 262.585938 201.234375 260.222656 206.730469 257.859375 212.164062 C 256.902344 214.339844 255.433594 215.488281 253.839844 215.617188 C 252.304688 215.746094 252.050781 214.722656 253.136719 212.546875 C 260.734375 195.542969 263.796875 180.265625 252.625 164.222656 C 244.902344 154.25 232.898438 147.667969 220.257812 147.347656 C 213.8125 147.15625 207.492188 148.625 201.746094 151.5 C 196.511719 154.121094 188.660156 164.671875 183.871094 158.726562 C 183.550781 158.40625 183.167969 158.148438 182.851562 157.832031 C 181.253906 156.425781 180.234375 154.441406 180.234375 152.910156 C 180.234375 151.4375 181.828125 151.246094 182.851562 152.589844 C 185.339844 155.722656 187.765625 157.191406 190.703125 153.484375 C 193.191406 151.183594 195.9375 149.136719 198.875 147.347656 C 225.941406 131.238281 261.625 149.519531 265.902344 180.203125 C 266.03125 185.636719 265.648438 190.429688 264.945312 195.800781 Z M 264.945312 195.800781 " fill-opacity="1" fill-rule="nonzero"/><path fill="#d48230" d="M 190.636719 143.0625 C 213.300781 119.09375 247.519531 128.105469 267.117188 151.246094 C 268.074219 152.332031 268.710938 153.546875 267.4375 154.824219 C 266.734375 155.527344 265.265625 156.105469 264.371094 156.039062 C 263.414062 155.976562 262.457031 155.210938 261.816406 154.507812 C 251.347656 141.722656 236.472656 135.011719 220.132812 135.136719 C 211.769531 136.160156 204.363281 137.949219 197.277344 142.808594 C 194.722656 144.597656 192.296875 146.578125 190.128906 148.816406 C 188.085938 152.203125 185.785156 151.820312 183.234375 147.601562 C 171.039062 137.949219 161.144531 133.21875 145.121094 134.308594 C 144.484375 134.371094 143.84375 134.5 143.207031 134.625 C 141.609375 134.816406 140.269531 134.113281 139.441406 132.453125 C 138.609375 130.917969 139.183594 129.382812 140.84375 129.066406 C 143.527344 128.488281 146.207031 128.105469 148.886719 127.976562 C 155.910156 127.59375 162.933594 129.320312 169.1875 132.515625 C 172.570312 134.242188 175.699219 136.417969 178.636719 138.84375 C 183.617188 142.808594 184.125 147.476562 190.636719 143.0625 Z M 190.636719 143.0625 " fill-opacity="1" fill-rule="nonzero"/><path fill="#1a793e" d="M 185.785156 186.980469 C 192.425781 186.660156 197.660156 180.96875 204.363281 179.882812 C 210.046875 178.925781 216.109375 179.882812 221.027344 183.015625 C 221.726562 183.464844 222.238281 184.421875 222.109375 185.382812 C 221.984375 186.210938 220.769531 187.9375 219.941406 188.320312 C 218.917969 188.898438 217.515625 189.023438 216.875 188.640625 C 212.28125 185.890625 206.980469 185.1875 201.808594 186.210938 C 196 187.363281 190.574219 194.136719 184.636719 191.644531 C 176.148438 186.339844 166.507812 180.84375 156.484375 186.085938 C 143.71875 192.859375 131.078125 199.957031 118.308594 206.730469 C 116.332031 207.753906 114.925781 207.625 113.265625 206.09375 C 111.605469 204.558594 111.734375 203.40625 113.710938 202.320312 C 126.609375 195.160156 139.441406 187.808594 152.207031 180.523438 C 164.082031 173.683594 175.636719 180.394531 185.785156 186.980469 Z M 185.785156 186.980469 " fill-opacity="1" fill-rule="nonzero"/><path fill="#d48230" d="M 187.191406 136.925781 C 191.789062 132.132812 196.511719 127.660156 201.808594 123.886719 C 203.726562 122.546875 204.875 122.992188 204.746094 124.78125 C 204.617188 126.507812 203.277344 128.171875 201.363281 129.382812 C 197.914062 131.8125 193.0625 138.332031 189.296875 139.804688 C 184.894531 141.464844 182.976562 137.183594 180.105469 134.625 C 174.230469 129.320312 167.785156 125.101562 159.996094 123.183594 C 142.757812 118.902344 126.097656 126.699219 112.054688 136.097656 C 102.925781 142.554688 93.859375 149.074219 85.625 156.550781 C 84.476562 157.574219 83.261719 158.339844 81.601562 157.765625 C 79.496094 157.0625 79.367188 155.335938 81.28125 153.546875 C 86.964844 148.371094 92.835938 143.574219 98.902344 138.910156 C 106.242188 133.539062 113.519531 128.296875 121.4375 123.824219 C 140.398438 114.746094 159.484375 113.339844 176.148438 126.125 C 180.105469 129.191406 183.679688 133.15625 187.191406 136.925781 Z M 187.191406 136.925781 " fill-opacity="1" fill-rule="nonzero"/><path fill="#f3e22b" d="M 275.414062 194.332031 C 267.5625 217.023438 250.648438 235.816406 236.089844 254.480469 C 231.8125 260.105469 227.726562 265.796875 223.769531 271.613281 C 223.132812 272.570312 222.109375 273.660156 221.410156 274.167969 C 220.898438 274.488281 220.324219 274.167969 220.324219 273.59375 C 220.324219 272.953125 220.832031 271.675781 221.34375 270.84375 C 224.664062 265.539062 228.304688 260.425781 232.070312 255.441406 C 242.027344 242.335938 252.496094 229.359375 260.796875 215.105469 C 269.734375 199.058594 275.160156 184.039062 268.777344 166.078125 C 268.585938 165.566406 268.394531 165.117188 268.203125 164.605469 C 267.628906 163.199219 268.328125 162.050781 269.925781 161.28125 C 271.457031 160.515625 273.246094 160.898438 273.820312 162.242188 C 275.160156 165.5 276.566406 168.824219 277.140625 172.019531 C 278.480469 179.753906 277.648438 186.53125 275.414062 194.332031 Z M 275.414062 194.332031 " fill-opacity="1" fill-rule="nonzero"/><path fill="#1a793e" d="M 241.582031 201.617188 C 238.707031 217.277344 230.027344 231.214844 221.410156 244.316406 C 218.28125 249.046875 215.089844 253.777344 212.023438 258.574219 C 210.683594 260.617188 209.34375 261.578125 208.449219 261.128906 C 207.554688 260.683594 207.8125 259.210938 209.085938 257.167969 C 212.789062 251.414062 216.621094 245.722656 220.386719 239.972656 C 231.8125 221.433594 250.390625 182.695312 217.515625 173.746094 C 212.726562 172.40625 208.066406 173.171875 203.34375 174.003906 C 201.171875 174.578125 200.535156 172.917969 201.875 170.488281 C 202.960938 168.503906 204.234375 167.867188 205.578125 167.546875 C 216.363281 164.988281 228.304688 168.25 235.707031 176.433594 C 241.582031 183.144531 242.984375 193.117188 241.582031 201.617188 Z M 241.582031 201.617188 " fill-opacity="1" fill-rule="nonzero"/><path fill="#f3e22b" d="M 185.722656 165.308594 C 192.746094 165.179688 198.683594 157.894531 205.449219 155.785156 C 212.089844 153.675781 219.175781 153.417969 225.941406 154.953125 C 238.324219 157.765625 249.878906 167.097656 252.945312 179.753906 C 253.007812 180.074219 253.136719 180.394531 253.199219 180.714844 C 253.457031 182.3125 252.496094 183.78125 250.839844 184.550781 C 249.050781 185.382812 247.964844 184.996094 247.328125 183.589844 C 245.859375 179.882812 244.199219 175.792969 241.710938 172.660156 C 228.8125 156.871094 207.746094 157.574219 192.871094 167.992188 C 185.722656 172.980469 184.511719 169.398438 178.0625 165.246094 C 172.953125 161.984375 168.292969 160.324219 162.484375 158.851562 C 162.230469 158.789062 161.976562 158.789062 161.71875 158.726562 C 159.867188 158.339844 158.398438 157 157.824219 155.144531 C 157.316406 153.355469 158.015625 152.140625 159.804688 152.523438 C 164.65625 153.417969 169.378906 154.890625 173.464844 157 C 177.613281 159.171875 181.699219 162.496094 185.722656 165.308594 Z M 185.722656 165.308594 " fill-opacity="1" fill-rule="nonzero"/><path fill="#1a793e" d="M 230.472656 205.835938 C 228.878906 218.621094 222.492188 230.574219 215.472656 241.121094 C 208.894531 251.09375 202.574219 261.128906 196.320312 271.292969 C 191.851562 278.582031 187.894531 286.570312 178.828125 288.359375 C 178.0625 288.550781 177.296875 288.488281 176.210938 287.082031 C 174.933594 285.421875 174.742188 283.566406 175.957031 283.183594 C 178.316406 282.414062 180.808594 281.96875 183.425781 280.753906 C 190.574219 277.558594 194.46875 268.417969 198.300781 262.152344 C 203.40625 253.652344 208.769531 245.277344 214.066406 236.839844 C 220.832031 225.398438 228.8125 210.375 223.515625 196.757812 C 223.324219 196.3125 223.132812 195.929688 223.003906 195.480469 C 222.683594 194.203125 223.132812 192.730469 224.792969 191.453125 C 226.453125 190.175781 228.046875 189.917969 228.429688 191.261719 C 229.453125 194.714844 230.21875 198.164062 230.730469 201.679688 C 230.855469 203.152344 230.539062 204.75 230.472656 205.835938 Z M 230.472656 205.835938 " fill-opacity="1" fill-rule="nonzero"/><path fill="#1a793e" d="M 183.679688 196.3125 C 190.828125 198.804688 191.085938 195.671875 197.851562 193.691406 C 201.617188 192.605469 205.894531 192.21875 209.726562 193.5625 C 217.386719 196.3125 220.132812 204.492188 219.238281 212.035156 C 219.046875 213.828125 218.664062 215.679688 218.214844 217.535156 C 217.707031 219.707031 216.558594 221.113281 214.898438 221.753906 C 213.238281 222.390625 212.664062 221.5625 213.109375 219.386719 C 214.003906 212.867188 214.832031 205.835938 209.277344 201.167969 C 206.535156 198.867188 203.085938 198.292969 199.574219 198.613281 C 195.679688 198.933594 191.40625 203.40625 188.019531 203.34375 C 179.914062 203.214844 174.105469 193.628906 164.910156 197.589844 C 161.847656 198.804688 158.972656 200.464844 155.847656 201.871094 C 155.144531 202.191406 153.675781 201.808594 152.65625 201.167969 C 150.929688 200.082031 150.035156 197.589844 151.121094 197.015625 C 156.867188 193.882812 163.699219 188.960938 170.527344 190.6875 C 175.1875 191.835938 179.59375 193.5625 183.679688 196.3125 Z M 183.679688 196.3125 " fill-opacity="1" fill-rule="nonzero"/><path fill="#d48230" d="M 251.347656 223.289062 C 250.710938 224.375 250.261719 225.078125 249.816406 225.78125 C 243.242188 235.816406 235.964844 245.339844 228.941406 254.992188 C 217.066406 271.742188 206.277344 289.382812 195.679688 306.898438 C 195.363281 307.410156 195.105469 307.921875 194.722656 308.433594 C 193.832031 309.710938 193 310.09375 192.363281 309.519531 C 191.722656 308.945312 191.789062 307.855469 192.554688 306.640625 C 193.703125 304.726562 194.980469 302.679688 196.191406 300.632812 C 207.8125 281.519531 219.75 262.472656 232.964844 244.445312 C 237.625 238.179688 242.027344 231.660156 246.113281 225.011719 C 247.390625 222.96875 248.859375 221.878906 250.007812 222.074219 C 250.710938 222.265625 250.964844 222.902344 251.347656 223.289062 Z M 251.347656 223.289062 " fill-opacity="1" fill-rule="nonzero"/><path fill="#f3e22b" d="M 152.207031 157.574219 C 151.570312 158.214844 151.1875 159.042969 150.546875 159.171875 C 142.503906 161.472656 136.246094 165.757812 129.289062 170.359375 C 115.179688 179.4375 100.882812 188.195312 87.21875 197.910156 C 86.710938 198.230469 86.199219 198.804688 85.496094 198.675781 C 84.476562 198.550781 83.132812 198.101562 82.304688 197.527344 C 80.964844 196.566406 81.21875 195.671875 81.984375 194.96875 C 83.582031 193.628906 85.433594 192.285156 87.285156 190.941406 C 102.605469 179.4375 118.882812 169.207031 134.84375 158.726562 C 138.417969 156.359375 142.824219 154.699219 146.84375 153.355469 C 147.675781 153.035156 149.269531 153.613281 150.292969 154.378906 C 151.121094 154.953125 151.570312 156.359375 152.207031 157.574219 Z M 152.207031 157.574219 " fill-opacity="1" fill-rule="nonzero"/><path fill="#6b117d" d="M 137.589844 250.582031 C 136.757812 249.6875 135.738281 248.792969 135.417969 248.152344 C 135.035156 247.257812 134.90625 246.300781 135.097656 245.789062 C 135.355469 245.277344 136.121094 245.339844 136.695312 245.148438 C 152.078125 239.84375 167.273438 233.960938 182.46875 228.210938 C 182.976562 228.015625 183.425781 227.761719 183.933594 227.570312 C 185.019531 227.1875 186.042969 227.378906 187.382812 229.167969 C 188.660156 230.894531 188.59375 230.703125 187.445312 232.554688 C 184 234.730469 179.914062 236.457031 176.019531 237.542969 C 163.824219 241.695312 151.824219 246.492188 139.566406 250.328125 C 139.058594 250.519531 138.417969 250.519531 137.589844 250.582031 Z M 137.589844 250.582031 " fill-opacity="1" fill-rule="nonzero"/><path fill="#f3e22b" d="M 111.605469 165.949219 C 110.457031 164.988281 109.050781 164.285156 108.796875 163.519531 C 108.476562 162.5625 108.734375 161.21875 109.4375 160.644531 C 111.796875 158.660156 114.480469 156.871094 117.097656 155.082031 C 123.289062 150.863281 129.609375 146.324219 136.183594 143.449219 C 147.417969 138.460938 158.398438 138.910156 170.402344 143.960938 C 172.445312 144.980469 173.59375 146.578125 173.914062 148.496094 C 174.167969 150.480469 173.339844 150.863281 171.296875 149.96875 C 158.589844 144.277344 146.335938 145.171875 133.628906 151.695312 C 127.246094 155.59375 121.117188 159.875 114.988281 164.222656 C 114.097656 164.863281 112.945312 165.246094 111.605469 165.949219 Z M 111.605469 165.949219 " fill-opacity="1" fill-rule="nonzero"/><path fill="#375199" d="M 184.382812 210.4375 C 184 210.628906 183.296875 211.269531 182.402344 210.886719 C 177.613281 208.839844 174.039062 208.96875 170.785156 210.375 C 161.273438 214.59375 151.824219 218.75 142.3125 222.902344 C 141.738281 223.160156 140.90625 223.414062 140.207031 223.03125 C 139.3125 222.585938 138.035156 221.371094 137.652344 220.539062 C 137.269531 219.707031 137.398438 218.621094 137.90625 218.238281 C 139.441406 217.214844 141.355469 216.640625 143.015625 215.679688 C 151.3125 211.140625 159.804688 207.179688 168.613281 203.726562 C 171.933594 202.511719 175.765625 202.832031 180.425781 204.878906 C 182.660156 205.964844 184.253906 207.882812 184.382812 210.4375 Z M 184.382812 210.4375 " fill-opacity="1" fill-rule="nonzero"/><path fill="#c12c2a" d="M 284.992188 124.269531 C 284.351562 124.910156 284.097656 125.742188 283.332031 125.933594 C 282.628906 126.125 281.480469 125.742188 280.523438 125.421875 C 279.882812 125.164062 279.308594 124.527344 278.800781 124.015625 C 262.519531 109.953125 241.582031 98.0625 219.238281 101.707031 C 218.152344 101.898438 216.75 101.640625 216.300781 101.003906 C 215.214844 99.46875 217.132812 96.910156 220.003906 96.65625 C 226.835938 96.082031 233.410156 96.464844 240.304688 97.613281 C 256.390625 101.257812 270.371094 110.464844 282.375 121.265625 C 283.269531 122.097656 283.96875 123.121094 284.992188 124.269531 Z M 284.992188 124.269531 " fill-opacity="1" fill-rule="nonzero"/><path fill="#f3e22b" d="M 186.425781 176.878906 C 187.894531 178.15625 189.9375 175.664062 192.042969 174.128906 C 193.894531 172.789062 195.042969 173.171875 194.851562 174.898438 C 194.597656 176.75 193.320312 178.605469 191.46875 179.820312 C 185.402344 183.589844 185.660156 181.355469 180.425781 177.964844 C 177.613281 176.113281 174.804688 174.449219 171.613281 173.234375 C 165.359375 170.871094 158.78125 170.488281 152.398438 172.597656 C 151.886719 172.789062 151.378906 173.042969 150.804688 173.109375 C 149.460938 173.300781 148.1875 172.53125 147.101562 171 C 146.078125 169.464844 146.015625 168.25 147.101562 167.609375 C 148.058594 166.972656 149.207031 166.585938 150.355469 166.269531 C 164.210938 162.113281 175.574219 169.082031 186.425781 176.878906 Z M 186.425781 176.878906 " fill-opacity="1" fill-rule="nonzero"/></svg>