<svg xmlns="http://www.w3.org/2000/svg" xmlns:xlink="http://www.w3.org/1999/xlink" width="500" zoomAndPan="magnify" viewBox="0 0 375 374.999991" height="500" preserveAspectRatio="xMidYMid meet" version="1.0"><defs><clipPath id="3253c4eeb9"><path d="M 32.296875 27.636719 L 352.546875 27.636719 L 352.546875 347.886719 L 32.296875 347.886719 Z M 32.296875 27.636719 " clip-rule="nonzero"/></clipPath><clipPath id="05a7550ef2"><path d="M 32.296875 27.410156 L 352.546875 27.410156 L 352.546875 347.660156 L 32.296875 347.660156 Z M 32.296875 27.410156 " clip-rule="nonzero"/></clipPath></defs><g clip-path="url(#3253c4eeb9)"><path fill="#ffbf00" d="M 192.386719 347.816406 C 103.941406 347.816406 32.296875 275.679688 32.296875 187.726562 C 32.296875 99.777344 103.941406 27.636719 192.386719 27.636719 C 280.832031 27.636719 352.476562 99.285156 352.476562 187.726562 C 352.476562 276.171875 280.335938 347.816406 192.386719 347.816406 Z M 192.386719 37.519531 C 109.375 37.519531 42.179688 104.71875 42.179688 187.726562 C 42.179688 270.738281 109.375 337.9375 192.386719 337.9375 C 275.394531 337.9375 342.59375 270.738281 342.59375 187.726562 C 342.59375 104.71875 274.902344 37.519531 192.386719 37.519531 Z M 192.386719 37.519531 " fill-opacity="1" fill-rule="nonzero"/></g><path fill="#ffbf00" d="M 250.5625 106.230469 L 250.5625 125.371094 C 250.5625 125.894531 251.019531 126.351562 251.542969 126.351562 L 259.382812 126.351562 C 259.902344 126.351562 260.359375 125.894531 260.359375 125.371094 L 260.359375 114.066406 C 260.359375 114.003906 260.359375 113.9375 260.359375 113.871094 C 260.359375 113.808594 260.359375 113.742188 260.359375 113.675781 L 260.359375 106.292969 C 260.359375 103.550781 258.140625 101.394531 255.460938 101.394531 C 252.71875 101.261719 250.5625 103.484375 250.5625 106.230469 Z M 250.5625 106.230469 " fill-opacity="1" fill-rule="evenodd"/><path fill="#ffbf00" d="M 223.777344 106.230469 L 223.777344 125.304688 C 223.777344 125.828125 224.234375 126.285156 224.757812 126.285156 L 232.597656 126.285156 C 233.117188 126.285156 233.578125 125.828125 233.578125 125.304688 L 233.578125 106.230469 C 233.578125 103.484375 231.355469 101.328125 228.675781 101.328125 C 225.933594 101.261719 223.777344 103.484375 223.777344 106.230469 Z M 223.777344 106.230469 " fill-opacity="1" fill-rule="evenodd"/><path fill="#ffbf00" d="M 151.328125 113.808594 L 151.328125 125.304688 C 151.328125 125.828125 151.785156 126.285156 152.304688 126.285156 L 160.144531 126.285156 C 160.667969 126.285156 161.125 125.828125 161.125 125.304688 L 161.125 113.9375 C 161.125 113.871094 161.125 113.871094 161.125 113.808594 C 161.125 113.742188 161.125 113.742188 161.125 113.675781 L 161.125 106.230469 C 161.125 103.484375 158.90625 101.328125 156.226562 101.328125 C 153.480469 101.328125 151.328125 103.550781 151.328125 106.230469 Z M 151.328125 113.808594 " fill-opacity="1" fill-rule="evenodd"/><path fill="#ffbf00" d="M 124.542969 113.9375 L 124.542969 125.304688 C 124.542969 125.828125 125 126.285156 125.519531 126.285156 L 133.359375 126.285156 C 133.882812 126.285156 134.339844 125.828125 134.339844 125.304688 L 134.339844 106.230469 C 134.339844 103.484375 132.121094 101.328125 129.441406 101.328125 C 126.695312 101.328125 124.542969 103.550781 124.542969 106.230469 L 124.542969 113.675781 C 124.542969 113.742188 124.542969 113.742188 124.542969 113.808594 C 124.542969 113.871094 124.542969 113.9375 124.542969 113.9375 Z M 124.542969 113.9375 " fill-opacity="1" fill-rule="evenodd"/><path fill="#ffbf00" d="M 138.78125 125.371094 C 138.78125 128.308594 136.367188 130.726562 133.425781 130.726562 L 125.585938 130.726562 C 122.648438 130.726562 120.230469 128.308594 120.230469 125.371094 L 120.230469 116.027344 L 107.292969 116.027344 C 103.441406 116.027344 100.304688 119.164062 100.304688 123.019531 L 100.304688 142.746094 L 284.664062 142.746094 L 284.664062 123.019531 C 284.664062 119.164062 281.527344 116.027344 277.671875 116.027344 L 264.738281 116.027344 L 264.738281 125.371094 C 264.738281 128.308594 262.320312 130.726562 259.382812 130.726562 L 251.542969 130.726562 C 248.601562 130.726562 246.183594 128.308594 246.183594 125.371094 L 246.183594 116.027344 L 238.019531 116.027344 L 238.019531 125.371094 C 238.019531 128.308594 235.601562 130.726562 232.660156 130.726562 L 224.820312 130.726562 C 221.882812 130.726562 219.464844 128.308594 219.464844 125.371094 L 219.464844 116.027344 L 165.566406 116.027344 L 165.566406 125.371094 C 165.566406 128.308594 163.152344 130.726562 160.210938 130.726562 L 152.371094 130.726562 C 149.433594 130.726562 147.015625 128.308594 147.015625 125.371094 L 147.015625 116.027344 L 138.78125 116.027344 Z M 138.78125 125.371094 " fill-opacity="1" fill-rule="evenodd"/><path fill="#ffbf00" d="M 162.300781 171.625 L 162.300781 185.082031 C 162.300781 185.539062 162.5625 185.867188 162.953125 186.0625 C 163.414062 186.257812 163.804688 186.125 164.132812 185.800781 L 170.859375 179.070312 C 171.25 178.679688 171.25 177.960938 170.859375 177.570312 L 164.132812 170.839844 C 163.933594 170.644531 163.671875 170.511719 163.414062 170.511719 C 163.28125 170.511719 163.152344 170.511719 162.953125 170.578125 C 162.5625 170.839844 162.300781 171.167969 162.300781 171.625 Z M 162.300781 171.625 " fill-opacity="1" fill-rule="evenodd"/><path fill="#ffbf00" d="M 220.773438 235.582031 L 214.042969 242.308594 C 213.78125 242.570312 213.714844 242.898438 213.714844 243.09375 C 213.714844 243.289062 213.78125 243.550781 214.042969 243.878906 L 220.773438 250.605469 C 221.097656 250.933594 221.492188 251 221.949219 250.867188 C 222.40625 250.671875 222.601562 250.34375 222.601562 249.886719 L 222.601562 236.429688 C 222.601562 235.972656 222.339844 235.644531 221.949219 235.449219 C 221.816406 235.386719 221.621094 235.386719 221.492188 235.386719 C 221.230469 235.253906 221.03125 235.386719 220.773438 235.582031 Z M 220.773438 235.582031 " fill-opacity="1" fill-rule="evenodd"/><path fill="#ffbf00" d="M 224.820312 180.574219 C 208.164062 180.574219 194.640625 194.097656 194.640625 210.753906 C 194.640625 229.765625 179.15625 245.316406 160.082031 245.316406 C 141.003906 245.316406 125.519531 229.832031 125.519531 210.753906 C 125.519531 192.464844 139.828125 177.4375 157.859375 176.261719 L 157.859375 171.6875 C 157.859375 169.46875 159.164062 167.507812 161.191406 166.660156 C 163.28125 165.808594 165.566406 166.265625 167.136719 167.835938 L 173.863281 174.5625 C 176.019531 176.71875 176.019531 180.117188 173.863281 182.273438 L 167.136719 189 C 166.089844 190.046875 164.71875 190.632812 163.347656 190.632812 C 162.628906 190.632812 161.910156 190.503906 161.257812 190.175781 C 159.164062 189.328125 157.925781 187.367188 157.925781 185.148438 L 157.925781 180.703125 C 142.3125 181.816406 129.964844 194.878906 129.964844 210.753906 C 129.964844 227.414062 143.488281 240.9375 160.144531 240.9375 C 176.804688 240.9375 190.328125 227.414062 190.328125 210.753906 C 190.328125 191.746094 205.8125 176.195312 224.886719 176.195312 C 243.898438 176.195312 259.445312 191.679688 259.445312 210.753906 C 259.445312 229.046875 245.140625 244.074219 227.109375 245.25 L 227.109375 249.824219 C 227.109375 252.042969 225.800781 254.003906 223.777344 254.851562 C 223.058594 255.113281 222.339844 255.3125 221.6875 255.3125 C 220.3125 255.3125 218.941406 254.789062 217.898438 253.675781 L 211.167969 246.949219 C 210.121094 245.902344 209.601562 244.53125 209.601562 243.09375 C 209.601562 241.65625 210.1875 240.285156 211.167969 239.238281 L 217.898438 232.511719 C 219.464844 230.941406 221.75 230.484375 223.84375 231.335938 C 225.933594 232.183594 227.175781 234.144531 227.175781 236.363281 L 227.175781 240.808594 C 242.789062 239.695312 255.136719 226.632812 255.136719 210.757812 C 255.003906 194.097656 241.414062 180.574219 224.820312 180.574219 Z M 284.664062 147.058594 L 100.238281 147.058594 L 100.238281 267.332031 C 100.238281 271.1875 103.375 274.320312 107.230469 274.320312 L 277.671875 274.320312 C 281.527344 274.320312 284.664062 271.1875 284.664062 267.332031 Z M 271.140625 266.15625 C 269.964844 266.15625 268.984375 265.175781 268.984375 264 L 268.984375 157.445312 C 268.984375 156.269531 269.964844 155.292969 271.140625 155.292969 C 272.316406 155.292969 273.296875 156.269531 273.296875 157.445312 L 273.296875 263.933594 C 273.363281 265.175781 272.382812 266.15625 271.140625 266.15625 Z M 115.917969 157.445312 L 115.917969 263.933594 C 115.917969 265.109375 114.9375 266.089844 113.761719 266.089844 C 112.585938 266.089844 111.605469 265.109375 111.605469 263.933594 L 111.605469 157.445312 C 111.605469 156.269531 112.585938 155.292969 113.761719 155.292969 C 115.003906 155.292969 115.917969 156.269531 115.917969 157.445312 Z M 115.917969 157.445312 " fill-opacity="1" fill-rule="evenodd"/><g clip-path="url(#05a7550ef2)"><path fill="#ffbf00" d="M 192.351562 347.554688 C 170.730469 347.554688 149.757812 343.308594 130.027344 334.945312 C 110.953125 326.910156 93.835938 315.347656 79.136719 300.648438 C 64.4375 285.949219 52.875 268.832031 44.839844 249.757812 C 36.542969 230.09375 32.296875 209.121094 32.296875 187.5 C 32.296875 165.875 36.542969 144.902344 44.90625 125.175781 C 52.941406 106.097656 64.503906 88.980469 79.203125 74.28125 C 93.902344 59.582031 111.019531 48.019531 130.09375 39.984375 C 149.757812 31.6875 170.730469 27.441406 192.351562 27.441406 C 213.976562 27.441406 234.949219 31.6875 254.675781 40.050781 C 273.753906 48.085938 290.871094 59.648438 305.570312 74.347656 C 320.269531 89.046875 331.832031 106.164062 339.867188 125.238281 C 348.230469 144.96875 352.476562 165.941406 352.476562 187.5625 C 352.476562 209.1875 348.230469 230.160156 339.867188 249.886719 C 331.832031 268.964844 320.269531 286.082031 305.570312 300.78125 C 290.871094 315.480469 273.753906 327.042969 254.675781 335.078125 C 234.816406 343.308594 213.847656 347.554688 192.351562 347.554688 Z M 192.351562 31.621094 C 106.445312 31.621094 36.476562 101.589844 36.476562 187.5 C 36.476562 273.40625 106.378906 343.308594 192.351562 343.308594 C 278.328125 343.308594 348.164062 273.40625 348.164062 187.5 C 348.164062 101.589844 278.132812 31.621094 192.351562 31.621094 Z M 192.351562 31.621094 " fill-opacity="1" fill-rule="nonzero"/></g></svg>