<svg width="1440" height="1173" viewBox="0 0 1440 1173" fill="none" xmlns="http://www.w3.org/2000/svg">
<g clip-path="url(#clip0_446_10555)">
<rect width="1440" height="1173" fill="#1A1A1A"/>
<mask id="mask0_446_10555" style="mask-type:alpha" maskUnits="userSpaceOnUse" x="-230" y="83" width="1901" height="1882">
<mask id="path-1-inside-1_446_10555" fill="white">
<path d="M860.721 1773.2L942.943 1890.74C1004.61 1875.03 1064.34 1852.82 1120.9 1824.58L1105.81 1682.03L1120.19 1673.21C1171.99 1641.35 1220.06 1603.24 1262.96 1559.93L1274.82 1547.97L1410.51 1594.73C1451.31 1545.64 1486.7 1492.62 1515.89 1436.65L1419.77 1330.04L1426.19 1314.54C1449.53 1258.1 1465.97 1199.1 1475.09 1139.2L1477.63 1122.56L1614.83 1080.75C1616.96 1047.93 1617.36 1016.68 1616.02 985.653C1614.68 954.674 1611.59 923.576 1606.64 891.056L1466.35 861.27L1462.39 844.904C1448.15 785.919 1426.69 728.555 1398.62 674.433L1390.84 659.445L1477.42 544.997C1443.51 491.757 1403.69 441.974 1358.81 396.579L1227.66 454.853L1214.81 443.963C1168.39 404.551 1117.26 370.677 1062.82 343.395L1047.78 335.848L1050.48 192.527C991.702 169.264 930.278 152.273 867.539 141.934L795.698 266.124L778.892 264.861C747.522 262.48 716.765 261.964 687.542 263.224C657.932 264.502 628.204 267.578 596.673 272.721L580.039 275.427L497.768 157.885C436.153 173.588 376.468 195.803 319.86 224.043L334.945 366.597L320.565 375.413C268.726 407.279 220.7 445.382 177.803 488.696L165.938 500.652L30.2546 453.888C-10.5482 502.979 -45.8888 556.005 -75.1307 611.968L20.9893 718.535L14.5737 734.136C-8.77712 790.475 -25.2157 849.475 -34.3286 909.468L-36.8634 926.114L-174.069 967.87C-176.161 1000.4 -176.531 1032.33 -175.211 1062.92C-173.889 1093.56 -170.771 1125.33 -165.884 1157.57L-25.5922 1187.35L-21.633 1203.72C-7.38683 1262.7 14.0724 1320.07 42.189 1374.19L49.9224 1389.13L-36.6598 1503.63C-2.70642 1556.86 37.0701 1606.65 81.9494 1652.04L213.101 1593.77L225.952 1604.66C272.42 1644.12 323.549 1677.94 377.94 1705.23L393.026 1712.77L390.276 1856.1C449.058 1879.36 510.433 1896.35 573.221 1906.69L645.062 1782.5L661.867 1783.76C725.58 1788.53 780.973 1786.14 844.087 1775.9L860.721 1773.2ZM601.37 1964.93L583.438 1962.31C503.899 1950.85 426.31 1929.42 352.782 1898.59L336.067 1891.56L338.833 1745.23C291.234 1720.07 246.054 1690.21 204.238 1656.18L70.4205 1715.68L57.3954 1703C-0.326368 1646.91 -50.6225 1584 -91.9596 1516.05L-101.416 1500.55L-13.0423 1383.7C-36.8838 1335.26 -55.8192 1284.63 -69.5182 1232.7L-212.751 1202.26L-215.804 1184.4C-222.701 1143.82 -227.052 1103.76 -228.714 1065.23C-230.375 1026.75 -229.489 986.506 -226.114 945.431L-224.612 927.375L-84.5319 884.719C-75.3564 831.803 -60.8526 779.725 -41.2716 729.416L-139.382 620.607L-131.295 604.352C-95.9643 533.093 -51.2736 466.086 1.40052 405.184L13.2874 391.48L151.731 439.192C190.462 401.732 232.854 368.091 278.158 338.932L262.799 193.383L278.845 184.932C349.494 147.89 424.949 119.854 503.157 101.593L520.796 97.4372L604.775 217.427C632.326 213.426 658.778 210.976 685.239 209.834C711.263 208.712 738.415 208.947 766.058 210.47L839.39 83.6942L857.37 86.3132C936.812 97.7742 1014.45 119.206 1087.98 150.029L1104.74 157.065L1101.93 303.397C1149.58 328.596 1194.71 358.413 1236.52 392.447L1370.39 332.94L1383.36 345.619C1441.14 401.757 1491.38 464.669 1532.77 532.571L1542.18 548.071L1453.8 664.924C1477.64 713.36 1496.58 763.996 1510.33 815.922L1653.51 846.359L1656.61 864.265C1663.59 905.524 1667.84 944.476 1669.52 983.345C1671.2 1022.21 1670.32 1061.43 1666.92 1103.19L1665.37 1121.25L1525.34 1163.9C1516.16 1216.77 1501.61 1268.9 1481.98 1319.21L1580.09 1428.02L1572.05 1444.27C1536.72 1515.53 1492.08 1582.53 1439.36 1643.44L1427.52 1657.14L1288.98 1609.38C1250.25 1646.89 1207.86 1680.53 1162.6 1709.69L1178.01 1855.24L1161.91 1863.69C1091.31 1900.73 1015.81 1928.77 937.603 1947.03L919.915 1951.19L835.985 1831.2C780.83 1839.1 730.284 1841.28 674.701 1838.15L601.37 1964.93Z"/>
</mask>
<path d="M860.721 1773.2L942.943 1890.74C1004.61 1875.03 1064.34 1852.82 1120.9 1824.58L1105.81 1682.03L1120.19 1673.21C1171.99 1641.35 1220.06 1603.24 1262.96 1559.93L1274.82 1547.97L1410.51 1594.73C1451.31 1545.64 1486.7 1492.62 1515.89 1436.65L1419.77 1330.04L1426.19 1314.54C1449.53 1258.1 1465.97 1199.1 1475.09 1139.2L1477.63 1122.56L1614.83 1080.75C1616.96 1047.93 1617.36 1016.68 1616.02 985.653C1614.68 954.674 1611.59 923.576 1606.64 891.056L1466.35 861.27L1462.39 844.904C1448.15 785.919 1426.69 728.555 1398.62 674.433L1390.84 659.445L1477.42 544.997C1443.51 491.757 1403.69 441.974 1358.81 396.579L1227.66 454.853L1214.81 443.963C1168.39 404.551 1117.26 370.677 1062.82 343.395L1047.78 335.848L1050.48 192.527C991.702 169.264 930.278 152.273 867.539 141.934L795.698 266.124L778.892 264.861C747.522 262.48 716.765 261.964 687.542 263.224C657.932 264.502 628.204 267.578 596.673 272.721L580.039 275.427L497.768 157.885C436.153 173.588 376.468 195.803 319.86 224.043L334.945 366.597L320.565 375.413C268.726 407.279 220.7 445.382 177.803 488.696L165.938 500.652L30.2546 453.888C-10.5482 502.979 -45.8888 556.005 -75.1307 611.968L20.9893 718.535L14.5737 734.136C-8.77712 790.475 -25.2157 849.475 -34.3286 909.468L-36.8634 926.114L-174.069 967.87C-176.161 1000.4 -176.531 1032.33 -175.211 1062.92C-173.889 1093.56 -170.771 1125.33 -165.884 1157.57L-25.5922 1187.35L-21.633 1203.72C-7.38683 1262.7 14.0724 1320.07 42.189 1374.19L49.9224 1389.13L-36.6598 1503.63C-2.70642 1556.86 37.0701 1606.65 81.9494 1652.04L213.101 1593.77L225.952 1604.66C272.42 1644.12 323.549 1677.94 377.94 1705.23L393.026 1712.77L390.276 1856.1C449.058 1879.36 510.433 1896.35 573.221 1906.69L645.062 1782.5L661.867 1783.76C725.58 1788.53 780.973 1786.14 844.087 1775.9L860.721 1773.2ZM601.37 1964.93L583.438 1962.31C503.899 1950.85 426.31 1929.42 352.782 1898.59L336.067 1891.56L338.833 1745.23C291.234 1720.07 246.054 1690.21 204.238 1656.18L70.4205 1715.68L57.3954 1703C-0.326368 1646.91 -50.6225 1584 -91.9596 1516.05L-101.416 1500.55L-13.0423 1383.7C-36.8838 1335.26 -55.8192 1284.63 -69.5182 1232.7L-212.751 1202.26L-215.804 1184.4C-222.701 1143.82 -227.052 1103.76 -228.714 1065.23C-230.375 1026.75 -229.489 986.506 -226.114 945.431L-224.612 927.375L-84.5319 884.719C-75.3564 831.803 -60.8526 779.725 -41.2716 729.416L-139.382 620.607L-131.295 604.352C-95.9643 533.093 -51.2736 466.086 1.40052 405.184L13.2874 391.48L151.731 439.192C190.462 401.732 232.854 368.091 278.158 338.932L262.799 193.383L278.845 184.932C349.494 147.89 424.949 119.854 503.157 101.593L520.796 97.4372L604.775 217.427C632.326 213.426 658.778 210.976 685.239 209.834C711.263 208.712 738.415 208.947 766.058 210.47L839.39 83.6942L857.37 86.3132C936.812 97.7742 1014.45 119.206 1087.98 150.029L1104.74 157.065L1101.93 303.397C1149.58 328.596 1194.71 358.413 1236.52 392.447L1370.39 332.94L1383.36 345.619C1441.14 401.757 1491.38 464.669 1532.77 532.571L1542.18 548.071L1453.8 664.924C1477.64 713.36 1496.58 763.996 1510.33 815.922L1653.51 846.359L1656.61 864.265C1663.59 905.524 1667.84 944.476 1669.52 983.345C1671.2 1022.21 1670.32 1061.43 1666.92 1103.19L1665.37 1121.25L1525.34 1163.9C1516.16 1216.77 1501.61 1268.9 1481.98 1319.21L1580.09 1428.02L1572.05 1444.27C1536.72 1515.53 1492.08 1582.53 1439.36 1643.44L1427.52 1657.14L1288.98 1609.38C1250.25 1646.89 1207.86 1680.53 1162.6 1709.69L1178.01 1855.24L1161.91 1863.69C1091.31 1900.73 1015.81 1928.77 937.603 1947.03L919.915 1951.19L835.985 1831.2C780.83 1839.1 730.284 1841.28 674.701 1838.15L601.37 1964.93Z" fill="url(#paint0_radial_446_10555)" fill-opacity="0.101961" stroke="url(#paint1_radial_446_10555)" stroke-width="2" mask="url(#path-1-inside-1_446_10555)"/>
</mask>
<g mask="url(#mask0_446_10555)">
<rect width="1440" height="1173" fill="white"/>
<rect y="566" width="301" height="302" fill="#1A1A1A"/>
<rect x="1139" y="575" width="301" height="302" fill="#1A1A1A"/>
</g>
</g>
<defs>
<radialGradient id="paint0_radial_446_10555" cx="0" cy="0" r="1" gradientUnits="userSpaceOnUse" gradientTransform="translate(-417.063 670.816) rotate(-4.16623) scale(1944.13 1976.14)">
<stop stop-color="#1A1A1A" stop-opacity="0.1"/>
<stop offset="1" stop-color="#1A1A1A" stop-opacity="0.09"/>
</radialGradient>
<radialGradient id="paint1_radial_446_10555" cx="0" cy="0" r="1" gradientUnits="userSpaceOnUse" gradientTransform="translate(672.006 390.131) rotate(84.5209) scale(1068.41 1086)">
<stop stop-color="white" stop-opacity="0.3"/>
<stop offset="1" stop-opacity="0"/>
</radialGradient>
<clipPath id="clip0_446_10555">
<rect width="1440" height="1173" fill="white"/>
</clipPath>
</defs>
</svg>
