<svg xmlns="http://www.w3.org/2000/svg" xmlns:xlink="http://www.w3.org/1999/xlink" width="250" zoomAndPan="magnify" viewBox="0 0 187.5 187.499992" height="250" preserveAspectRatio="xMidYMid meet" version="1.0"><defs><clipPath id="920ae05ce8"><path d="M 47.828125 23.902344 L 139.085938 23.902344 L 139.085938 163 L 47.828125 163 Z M 47.828125 23.902344 " clip-rule="nonzero"/></clipPath></defs><path fill="#ffbf00" d="M 93.5 187 C 41.84375 187 0 144.867188 0 93.5 C 0 42.132812 41.84375 0 93.5 0 C 145.15625 0 187 41.84375 187 93.5 C 187 145.15625 144.867188 187 93.5 187 Z M 93.5 5.773438 C 45.019531 5.773438 5.773438 45.019531 5.773438 93.5 C 5.773438 141.984375 45.019531 181.230469 93.5 181.230469 C 141.984375 181.230469 181.230469 141.984375 181.230469 93.5 C 181.230469 45.019531 141.695312 5.773438 93.5 5.773438 Z M 93.5 5.773438 " fill-opacity="1" fill-rule="nonzero"/><g clip-path="url(#920ae05ce8)"><path fill="#ffbf00" d="M 57.921875 151.679688 C 55.703125 150.226562 54.558594 147.464844 55.28125 144.761719 L 75.851562 68 C 78.425781 71.851562 82.222656 74.816406 86.691406 76.332031 L 67.480469 148.03125 C 66.753906 150.730469 64.382812 152.554688 61.734375 152.699219 C 61.722656 152.804688 61.703125 152.90625 61.675781 153.011719 L 59.433594 161.382812 C 59.148438 162.445312 58.050781 163.078125 56.988281 162.792969 C 55.921875 162.507812 55.289062 161.414062 55.574219 160.347656 L 57.816406 151.976562 C 57.84375 151.875 57.882812 151.773438 57.921875 151.679688 Z M 125.261719 152.699219 C 122.609375 152.554688 120.238281 150.730469 119.515625 148.03125 L 100.300781 76.332031 C 104.769531 74.816406 108.570312 71.851562 111.144531 68 L 131.710938 144.761719 C 132.433594 147.464844 131.292969 150.226562 129.070312 151.679688 C 129.113281 151.773438 129.148438 151.875 129.175781 151.976562 L 131.417969 160.347656 C 131.703125 161.414062 131.070312 162.507812 130.007812 162.792969 C 128.941406 163.078125 127.847656 162.445312 127.558594 161.382812 L 125.316406 153.011719 C 125.289062 152.90625 125.269531 152.804688 125.261719 152.699219 Z M 88.296875 35.683594 L 88.296875 29.105469 C 88.296875 27.726562 88.84375 26.402344 89.820312 25.425781 C 90.792969 24.453125 92.117188 23.902344 93.496094 23.902344 C 94.875 23.902344 96.199219 24.453125 97.175781 25.425781 C 98.152344 26.402344 98.699219 27.726562 98.699219 29.105469 L 98.699219 35.683594 C 97.035156 35.261719 95.292969 35.039062 93.496094 35.039062 C 91.703125 35.039062 89.960938 35.261719 88.296875 35.683594 Z M 58.550781 117.136719 L 51.40625 117.136719 C 49.4375 117.136719 47.84375 115.542969 47.84375 113.574219 C 47.84375 111.605469 49.4375 110.007812 51.40625 110.007812 L 60.460938 110.007812 Z M 81.804688 110.007812 L 86.28125 110.007812 C 87.59375 107.351562 90.335938 105.523438 93.496094 105.523438 C 96.660156 105.523438 99.398438 107.351562 100.714844 110.007812 L 105.191406 110.007812 L 107.101562 117.136719 L 100.714844 117.136719 C 99.398438 119.792969 96.660156 121.621094 93.496094 121.621094 C 90.335938 121.621094 87.59375 119.792969 86.28125 117.136719 L 79.894531 117.136719 Z M 126.535156 110.007812 L 135.585938 110.007812 C 137.554688 110.007812 139.152344 111.605469 139.152344 113.574219 C 139.152344 115.542969 137.554688 117.136719 135.585938 117.136719 L 128.445312 117.136719 Z M 93.496094 39.035156 C 102.996094 39.035156 110.707031 46.746094 110.707031 56.242188 C 110.707031 65.742188 102.996094 73.453125 93.496094 73.453125 C 84 73.453125 76.289062 65.742188 76.289062 56.242188 C 76.289062 46.746094 84 39.035156 93.496094 39.035156 Z M 93.496094 49.679688 C 89.875 49.679688 86.933594 52.621094 86.933594 56.242188 C 86.933594 59.867188 89.875 62.804688 93.496094 62.804688 C 97.117188 62.804688 100.058594 59.867188 100.058594 56.242188 C 100.058594 52.621094 97.117188 49.679688 93.496094 49.679688 Z M 93.496094 49.679688 " fill-opacity="1" fill-rule="evenodd"/></g></svg>