<svg width="98" height="96" viewBox="0 0 98 96" fill="none" xmlns="http://www.w3.org/2000/svg">
<rect width="97.099" height="96" rx="48" fill="url(#paint0_linear_242_967)" fill-opacity="0.05"/>
<rect x="12" y="12" width="73.099" height="72" rx="36" fill="url(#paint1_linear_242_967)" fill-opacity="0.1"/>
<rect x="12.5" y="12.5" width="72.099" height="71" rx="35.5" stroke="url(#paint2_linear_242_967)" stroke-opacity="0.2"/>
<g clip-path="url(#clip0_242_967)">
<mask id="mask0_242_967" style="mask-type:luminance" maskUnits="userSpaceOnUse" x="32" y="32" width="33" height="32">
<path d="M32.594 32.1646H64.4001V63.9706H32.594V32.1646Z" fill="white"/>
</mask>
<g mask="url(#mask0_242_967)">
<path d="M48.497 63.9706C39.7112 63.9706 32.594 56.805 32.594 48.0676C32.594 39.3312 39.7112 32.1646 48.497 32.1646C57.2829 32.1646 64.4001 39.2817 64.4001 48.0676C64.4001 56.8534 57.2334 63.9706 48.497 63.9706ZM48.497 33.1464C40.2506 33.1464 33.5758 39.8221 33.5758 48.0676C33.5758 56.314 40.2506 62.9888 48.497 62.9888C56.7425 62.9888 63.4182 56.314 63.4182 48.0676C63.4182 39.8221 56.694 33.1464 48.497 33.1464Z" fill="#0D9BBF"/>
</g>
<mask id="mask1_242_967" style="mask-type:luminance" maskUnits="userSpaceOnUse" x="33" y="43" width="31" height="16">
<path d="M33.293 43.1191H63.2889V58.6343H33.293V43.1191Z" fill="white"/>
</mask>
<g mask="url(#mask1_242_967)">
<mask id="mask2_242_967" style="mask-type:luminance" maskUnits="userSpaceOnUse" x="32" y="41" width="32" height="19">
<path d="M32.9111 43.3627L62.7334 41.7344L63.6101 57.8081L33.7879 59.4354L32.9111 43.3627Z" fill="white"/>
</mask>
<g mask="url(#mask2_242_967)">
<mask id="mask3_242_967" style="mask-type:luminance" maskUnits="userSpaceOnUse" x="32" y="41" width="32" height="19">
<path d="M32.9111 43.3627L62.7334 41.7344L63.6101 57.8081L33.7879 59.4354L32.9111 43.3627Z" fill="white"/>
</mask>
<g mask="url(#mask3_242_967)">
<path fill-rule="evenodd" clip-rule="evenodd" d="M46.7929 57.3991C46.9656 57.1071 47.2222 56.6223 47.802 56.8728C48.3869 57.2172 47.9677 58.1819 47.6959 58.3849C47.4283 58.6829 46.9535 58.6142 46.7495 58.3425C46.4525 58.0768 46.5252 57.696 46.7929 57.3991ZM35.8273 43.2112L39.098 44.3516L39.1394 45.1031L41.4434 45.8243C41.8293 45.992 41.8444 46.2738 41.6768 46.6597L39.7475 52.792C39.5798 53.1778 39.4959 53.3708 38.8222 53.1253L36.5232 52.497L33.3313 51.0698L35.8273 43.2112ZM55.397 45.6284L59.5232 43.4253L63.2818 51.79L59.8778 53.3879C58.9626 53.9092 57.8444 54.1587 56.7838 53.7455C56.7788 53.6516 56.9566 53.4536 56.8363 52.989C56.4576 51.2203 55.3323 47.892 54.3404 47.0041L55.5374 46.4677L55.397 45.6284ZM42.3353 46.6233L40.4848 52.4688C40.8818 52.8243 41.1788 53.091 41.5707 53.3516C43.3757 51.8405 44.2151 53.396 44.1566 54.0576C44.9929 53.8243 45.6828 54.3516 45.7182 55.0092C46.7333 54.5768 47.6202 55.2819 47.5778 56.2253C48.4293 56.2738 48.8464 57.0041 48.705 57.8597C49.7707 58.3667 50.2353 58.2465 50.299 57.6778C51.6363 57.9819 52.2747 57.5708 52.0454 56.8294C53.2 57.2374 54.303 56.7061 53.6879 55.7981C54.7273 55.8354 55.3707 55.5183 55.4242 54.7617L55.3343 54.8607L52.3737 52.4799C50.9273 51.8991 49.3656 50.9486 48.902 49.3728L48.0555 49.4193C46.7394 52.9758 43.1515 51.193 45.1081 49.0152C45.3747 48.7172 44.5353 47.1627 46.104 46.5122C44.9697 46.4799 43.5586 46.5566 42.3353 46.6233ZM45.5101 49.4637C45.7818 49.2607 45.7616 48.8849 45.7 47.7587C45.7838 47.5657 45.9566 47.2738 46.3232 47.0647L48.8172 46.0809C49.1879 45.9667 49.4707 45.9516 49.9454 46.0193C51.006 46.4324 51.9727 46.8506 53.1172 47.0708C53.5919 47.1395 53.8848 47.3112 54.198 47.8597C55.0323 49.3213 55.7828 50.9748 56.1525 52.5556C56.397 53.5789 56.199 53.4011 55.2939 54.1092C54.4111 53.4981 53.5182 52.7001 52.7202 51.896C50.797 51.2475 49.602 50.0879 49.3414 48.7839L47.6485 48.8758C47.4071 49.6425 47.0616 50.2263 46.4283 50.7324C46.0626 50.9405 45.498 50.9708 45.2899 50.6061C44.9869 50.2455 45.1444 49.6718 45.5101 49.4637ZM41.8838 53.9001C42.2444 53.597 42.7788 53.0031 43.3737 53.5354C43.9687 54.0688 43.2515 54.7667 42.9848 55.0637C42.6192 55.2718 42.1485 55.2981 41.8464 54.9374C41.6424 54.6657 41.6172 54.197 41.8838 53.9001ZM43.3717 55.2314C43.7323 54.9284 44.4495 54.2304 44.9505 54.7677C45.4464 55.2122 44.8394 56.1869 44.4788 56.489C44.2111 56.7859 43.6414 56.7233 43.3394 56.3627C43.0363 56.0031 43.105 55.5284 43.3717 55.2314ZM45.1313 56.3597C45.4929 56.0566 46.1 55.0819 46.6949 55.6152C47.3848 56.1425 46.4949 57.1324 46.1343 57.4344C45.8667 57.7314 45.3919 57.6637 45.0939 57.397C44.8848 57.0324 44.8646 56.6566 45.1313 56.3597Z" fill="#0D9BBF"/>
</g>
</g>
</g>
</g>
<defs>
<linearGradient id="paint0_linear_242_967" x1="48.5495" y1="0" x2="48.5495" y2="96" gradientUnits="userSpaceOnUse">
<stop stop-color="white"/>
<stop offset="1" stop-color="white" stop-opacity="0"/>
</linearGradient>
<linearGradient id="paint1_linear_242_967" x1="48.5495" y1="-35.6757" x2="48.5495" y2="197.838" gradientUnits="userSpaceOnUse">
<stop stop-color="white"/>
<stop offset="0.467671" stop-color="white" stop-opacity="0"/>
</linearGradient>
<linearGradient id="paint2_linear_242_967" x1="48.5495" y1="-113.027" x2="48.5495" y2="149.189" gradientUnits="userSpaceOnUse">
<stop stop-color="white"/>
<stop offset="0.716291" stop-color="white" stop-opacity="0"/>
</linearGradient>
<clipPath id="clip0_242_967">
<rect width="33.099" height="32" fill="white" transform="translate(32 32)"/>
</clipPath>
</defs>
</svg>
