<svg xmlns="http://www.w3.org/2000/svg" xmlns:xlink="http://www.w3.org/1999/xlink" width="250" zoomAndPan="magnify" viewBox="0 0 187.5 187.499992" height="250" preserveAspectRatio="xMidYMid meet" version="1.0"><path fill="#ffbf00" d="M 93.5 180.929688 C 45.292969 180.929688 6.074219 141.707031 6.074219 93.5 C 6.074219 45.289062 45.292969 6.074219 93.5 6.074219 C 141.707031 6.074219 180.929688 45.289062 180.929688 93.5 C 180.929688 141.707031 141.707031 180.929688 93.5 180.929688 Z M 93.5 0 C 41.945312 0 0 41.945312 0 93.5 C 0 145.058594 41.945312 187 93.5 187 C 145.058594 187 187 145.058594 187 93.5 C 187 41.945312 145.058594 0 93.5 0 " fill-opacity="1" fill-rule="nonzero"/><path fill="#ffbf00" d="M 129.917969 99.257812 C 129.113281 98.652344 129.722656 97.609375 128.988281 96.859375 C 127.8125 98.667969 127.53125 101.449219 126.167969 102.511719 C 125.042969 101.609375 124.648438 100.394531 124.070312 99.316406 C 123.464844 98.183594 122.992188 96.996094 122.757812 95.597656 C 121.828125 96.265625 121.410156 95.851562 121.03125 95.050781 C 120.625 94.203125 120.386719 93.273438 119.957031 92.4375 C 119.628906 91.800781 118.785156 91.644531 118.253906 92.128906 C 116.679688 93.570312 115.652344 95.898438 115.792969 98.117188 C 115.96875 100.886719 117.441406 102.980469 119.316406 105.007812 C 119.539062 105.257812 119.945312 105.183594 120.070312 104.882812 C 120.230469 104.511719 120.359375 104.210938 120.484375 103.90625 C 120.753906 105.753906 120.804688 107.417969 121.851562 108.941406 C 123.734375 111.675781 126.050781 114.148438 126.769531 117.582031 C 128.226562 116.460938 129.648438 113.785156 129.9375 111.8125 C 130.183594 110.117188 130.09375 108.402344 130.199219 106.699219 C 130.261719 105.773438 130.230469 104.796875 130.882812 103.960938 C 131.042969 104.574219 131.140625 104.984375 131.25 105.460938 C 131.375 105.960938 131.457031 106.542969 131.976562 106.710938 C 132.59375 106.917969 132.847656 106.304688 133.097656 105.894531 C 134.191406 104.082031 135.210938 102.222656 135.84375 100.191406 C 136.941406 96.695312 135.515625 92.945312 132.453125 91.226562 C 132.386719 91.183594 132.296875 91.148438 132.207031 91.125 C 131.597656 90.964844 131.042969 91.539062 131.242188 92.136719 C 131.25 92.160156 131.257812 92.179688 131.265625 92.195312 C 132.058594 93.9375 131.898438 95.90625 131.191406 97.726562 C 130.953125 98.339844 130.671875 99.003906 129.917969 99.257812 " fill-opacity="1" fill-rule="nonzero"/><path fill="#ffbf00" d="M 158.253906 112.070312 C 156.8125 109.570312 154.421875 108.839844 151.492188 110.09375 C 150.050781 110.699219 131.734375 119.929688 124.515625 123.523438 C 123.292969 124.132812 122.109375 124.824219 120.953125 125.550781 C 119.164062 126.664062 117.351562 127.308594 115.175781 127.3125 C 108.535156 127.316406 90.199219 127.355469 87.675781 127.371094 C 86.589844 127.371094 85.347656 127.28125 85.324219 125.972656 C 85.296875 124.554688 86.472656 124.519531 87.542969 124.519531 C 88.011719 124.519531 106.722656 124.589844 115.609375 124.515625 C 119.226562 124.488281 121.628906 122.242188 121.527344 119.050781 C 121.429688 116.007812 119.042969 114.046875 115.511719 114.015625 C 111.398438 113.972656 107.277344 113.925781 103.167969 114.046875 C 101.269531 114.101562 99.820312 113.570312 98.355469 112.335938 C 93.433594 108.203125 87.890625 105.089844 81.492188 104.019531 C 74.058594 102.777344 66.554688 103.519531 58.882812 103.402344 L 58.882812 134.03125 C 63.4375 136.59375 81.5 146.578125 91.882812 149.550781 C 94.410156 150.277344 97.265625 150.761719 99.460938 150.160156 C 103.972656 148.933594 108.4375 147.289062 112.722656 145.238281 C 125.355469 139.1875 154.03125 120.746094 156.527344 118.9375 C 159.019531 117.125 159.632812 114.441406 158.253906 112.070312 " fill-opacity="1" fill-rule="nonzero"/><path fill="#ffbf00" d="M 48.402344 133.027344 L 43.808594 135.679688 L 39.214844 133.027344 L 39.214844 127.726562 L 43.808594 125.078125 L 48.402344 127.726562 Z M 53.183594 99.519531 L 34.429688 99.519531 C 33.644531 99.519531 33.011719 100.152344 33.011719 100.9375 L 33.011719 138.433594 C 33.011719 139.214844 33.644531 139.851562 34.429688 139.851562 L 53.183594 139.851562 C 53.96875 139.851562 54.601562 139.214844 54.601562 138.433594 L 54.601562 100.9375 C 54.601562 100.152344 53.96875 99.519531 53.183594 99.519531 " fill-opacity="1" fill-rule="nonzero"/><path fill="#ffbf00" d="M 125.996094 47.578125 C 129.164062 47.578125 131.730469 50.144531 131.730469 53.308594 C 131.730469 56.476562 129.164062 59.042969 125.996094 59.042969 C 122.832031 59.042969 120.265625 56.476562 120.265625 53.308594 C 120.265625 50.144531 122.832031 47.578125 125.996094 47.578125 Z M 107.125 93.894531 C 107.359375 93.910156 107.597656 93.847656 107.796875 93.726562 C 107.824219 93.707031 107.847656 93.6875 107.871094 93.671875 C 107.886719 93.65625 108.296875 93.339844 108.484375 93.179688 C 110.359375 91.597656 112.25 90.039062 114.105469 88.4375 C 114.65625 87.957031 115.207031 87.777344 115.9375 87.785156 C 119.292969 87.796875 132.707031 87.796875 136.0625 87.785156 C 136.796875 87.777344 137.347656 87.957031 137.898438 88.4375 C 139.75 90.039062 141.640625 91.597656 143.515625 93.179688 C 143.714844 93.351562 144.175781 93.675781 144.207031 93.695312 C 144.238281 93.714844 144.273438 93.734375 144.308594 93.753906 C 144.453125 93.828125 144.613281 93.855469 144.78125 93.855469 C 145.398438 93.867188 145.832031 93.621094 146.035156 93.101562 C 146.074219 93 146.105469 92.886719 146.128906 92.761719 C 146.164062 92.566406 146.164062 92.367188 146.144531 92.171875 C 146.132812 92.039062 146.117188 91.914062 146.101562 91.761719 C 146.023438 91.082031 145.628906 89.273438 145.582031 89.070312 C 144.246094 83.226562 141.613281 77.976562 137.601562 73.378906 C 137.085938 72.789062 136.855469 72.21875 136.863281 71.441406 C 136.882812 66.988281 136.832031 53.335938 136.835938 52.863281 C 137.003906 51.089844 136.632812 49.4375 135.777344 47.878906 C 133.074219 42.945312 130.371094 38.007812 127.667969 33.074219 C 127.316406 32.441406 127.0625 31.683594 126.230469 31.601562 C 125.96875 31.574219 126.015625 31.574219 125.769531 31.601562 C 124.941406 31.6875 124.683594 32.441406 124.332031 33.074219 C 121.628906 38.007812 118.929688 42.945312 116.222656 47.878906 C 115.367188 49.4375 114.996094 51.089844 115.160156 52.863281 C 115.171875 53.335938 115.132812 70.394531 115.136719 71.441406 C 115.140625 72.21875 114.914062 72.789062 114.402344 73.378906 C 110.382812 77.976562 107.753906 83.226562 106.414062 89.070312 C 106.371094 89.273438 106.007812 91.085938 105.898438 91.761719 C 105.871094 91.960938 105.839844 92.167969 105.835938 92.359375 C 105.839844 92.648438 105.882812 92.898438 105.960938 93.101562 C 106.15625 93.597656 106.550781 93.875 107.125 93.894531 " fill-opacity="1" fill-rule="nonzero"/></svg>