<svg xmlns="http://www.w3.org/2000/svg" xmlns:xlink="http://www.w3.org/1999/xlink" width="250" zoomAndPan="magnify" viewBox="0 0 187.5 187.499992" height="250" preserveAspectRatio="xMidYMid meet" version="1.0"><defs><clipPath id="8a7d144171"><path d="M 87 151 L 100 151 L 100 163.9375 L 87 163.9375 Z M 87 151 " clip-rule="nonzero"/></clipPath><clipPath id="9b1d61d1b1"><path d="M 131 46.5 L 145 46.5 L 145 67 L 131 67 Z M 131 46.5 " clip-rule="nonzero"/></clipPath><clipPath id="e8277f793a"><path d="M 106 139 L 134 139 L 134 163.9375 L 106 163.9375 Z M 106 139 " clip-rule="nonzero"/></clipPath><clipPath id="ea3576e293"><path d="M 42 46.5 L 56 46.5 L 56 67 L 42 67 Z M 42 46.5 " clip-rule="nonzero"/></clipPath><clipPath id="aa8bd5501e"><path d="M 53 139 L 82 139 L 82 163.9375 L 53 163.9375 Z M 53 139 " clip-rule="nonzero"/></clipPath></defs><path fill="#ffbf00" d="M 96.84375 66.683594 L 104.625 82.699219 L 122.375 85.316406 C 127.257812 86.03125 127.550781 88.15625 124.054688 91.59375 L 111.492188 102.917969 L 114.355469 121.042969 C 115.308594 126.597656 113.589844 127.921875 109.660156 125.832031 L 93.566406 117.265625 L 77.472656 125.832031 C 73.527344 127.921875 71.824219 126.597656 72.773438 121.042969 L 75.652344 102.917969 L 63.0625 91.59375 C 59.570312 88.15625 59.871094 86.03125 64.753906 85.316406 L 82.5 82.699219 L 90.28125 66.683594 C 92.113281 62.894531 95.386719 63.699219 96.84375 66.683594 Z M 96.84375 66.683594 " fill-opacity="1" fill-rule="nonzero"/><path fill="#ffbf00" d="M 152.453125 58.097656 C 157.375 62.722656 159.695312 68.011719 159.433594 72.832031 C 159.160156 77.617188 156.304688 81.832031 151.871094 83.777344 C 147.429688 85.714844 143.5 85.082031 140.628906 82.652344 C 137.730469 80.214844 135.859375 76.066406 135.878906 70.816406 C 135.878906 69.75 136.679688 69.617188 137.277344 69.84375 C 141.222656 71.328125 144.492188 72.601562 147.222656 75.152344 C 146.042969 69.125 148.933594 62.996094 150.800781 58.453125 C 151.121094 57.640625 151.945312 57.617188 152.453125 58.097656 Z M 152.453125 58.097656 " fill-opacity="1" fill-rule="nonzero"/><path fill="#ffbf00" d="M 163.042969 109.238281 C 164.5625 115.820312 163.542969 121.507812 160.640625 125.371094 C 157.761719 129.195312 153.039062 131.113281 148.28125 130.253906 C 143.507812 129.394531 140.589844 126.683594 139.554688 123.074219 C 138.503906 119.4375 139.25 114.941406 142.191406 110.601562 C 142.785156 109.71875 143.527344 110.050781 143.898438 110.570312 C 146.34375 113.988281 148.355469 116.871094 149.214844 120.503906 C 151.574219 114.839844 157.386719 111.355469 161.464844 108.613281 C 162.191406 108.125 162.878906 108.558594 163.042969 109.238281 Z M 163.042969 109.238281 " fill-opacity="1" fill-rule="nonzero"/><path fill="#ffbf00" d="M 152.539062 135.46875 C 151.09375 142.066406 147.742188 146.761719 143.460938 149.011719 C 139.222656 151.238281 134.132812 150.945312 130.195312 148.125 C 126.253906 145.308594 124.78125 141.617188 125.394531 137.90625 C 126 134.175781 128.605469 130.433594 133.125 127.757812 C 134.039062 127.214844 134.566406 127.835938 134.679688 128.457031 C 135.429688 132.605469 136.003906 136.070312 135.21875 139.71875 C 139.78125 135.605469 146.527344 134.957031 151.386719 134.21875 C 152.246094 134.097656 152.6875 134.777344 152.539062 135.46875 Z M 152.539062 135.46875 " fill-opacity="1" fill-rule="nonzero"/><g clip-path="url(#8a7d144171)"><path fill="#ffbf00" d="M 99.761719 157.292969 C 99.761719 157.699219 99.722656 158.105469 99.644531 158.503906 C 99.5625 158.902344 99.445312 159.292969 99.289062 159.667969 C 99.132812 160.042969 98.941406 160.402344 98.714844 160.742188 C 98.488281 161.078125 98.234375 161.394531 97.945312 161.679688 C 97.65625 161.96875 97.34375 162.226562 97.003906 162.453125 C 96.664062 162.679688 96.308594 162.871094 95.929688 163.027344 C 95.554688 163.183594 95.167969 163.300781 94.765625 163.378906 C 94.367188 163.460938 93.964844 163.5 93.558594 163.5 C 93.148438 163.5 92.746094 163.460938 92.347656 163.378906 C 91.945312 163.300781 91.558594 163.183594 91.183594 163.027344 C 90.804688 162.871094 90.449219 162.679688 90.109375 162.453125 C 89.769531 162.226562 89.457031 161.96875 89.167969 161.679688 C 88.878906 161.394531 88.625 161.078125 88.398438 160.742188 C 88.171875 160.402344 87.980469 160.042969 87.824219 159.667969 C 87.667969 159.292969 87.550781 158.902344 87.46875 158.503906 C 87.390625 158.105469 87.351562 157.699219 87.351562 157.292969 C 87.351562 156.886719 87.390625 156.484375 87.46875 156.082031 C 87.550781 155.683594 87.667969 155.296875 87.824219 154.917969 C 87.980469 154.542969 88.171875 154.183594 88.398438 153.847656 C 88.625 153.507812 88.878906 153.195312 89.167969 152.90625 C 89.457031 152.617188 89.769531 152.359375 90.109375 152.132812 C 90.449219 151.90625 90.804688 151.714844 91.183594 151.558594 C 91.558594 151.40625 91.945312 151.285156 92.347656 151.207031 C 92.746094 151.128906 93.148438 151.089844 93.558594 151.089844 C 93.964844 151.089844 94.367188 151.128906 94.765625 151.207031 C 95.167969 151.285156 95.554688 151.40625 95.929688 151.558594 C 96.308594 151.714844 96.664062 151.90625 97.003906 152.132812 C 97.34375 152.359375 97.65625 152.617188 97.945312 152.90625 C 98.234375 153.195312 98.488281 153.507812 98.714844 153.847656 C 98.941406 154.183594 99.132812 154.542969 99.289062 154.917969 C 99.445312 155.296875 99.5625 155.683594 99.644531 156.082031 C 99.722656 156.484375 99.761719 156.886719 99.761719 157.292969 Z M 99.761719 157.292969 " fill-opacity="1" fill-rule="nonzero"/></g><g clip-path="url(#9b1d61d1b1)"><path fill="#ffbf00" d="M 140.890625 66.652344 C 132.101562 63.875 131.324219 58 131.324219 48.566406 C 131.324219 46.621094 131.648438 46.421875 133.136719 46.734375 C 143.046875 48.828125 147.035156 57.953125 143.386719 65.777344 C 142.78125 67.058594 142.046875 67.019531 140.890625 66.652344 Z M 140.890625 66.652344 " fill-opacity="1" fill-rule="nonzero"/></g><path fill="#ffbf00" d="M 161.640625 81.921875 C 165.433594 87.523438 166.535156 93.191406 165.214844 97.839844 C 163.910156 102.449219 160.199219 105.933594 155.4375 106.851562 C 150.675781 107.765625 146.988281 106.28125 144.71875 103.300781 C 142.433594 100.277344 141.507812 95.820312 142.679688 90.710938 C 142.925781 89.671875 143.726562 89.707031 144.265625 90.058594 C 147.78125 92.375 150.6875 94.335938 152.804688 97.414062 C 152.964844 91.285156 157.128906 85.941406 159.953125 81.917969 C 160.453125 81.195312 161.257812 81.347656 161.640625 81.921875 Z M 161.640625 81.921875 " fill-opacity="1" fill-rule="nonzero"/><g clip-path="url(#e8277f793a)"><path fill="#ffbf00" d="M 133.113281 155.78125 C 128.738281 160.941406 123.578125 163.515625 118.746094 163.5 C 113.957031 163.480469 109.601562 160.835938 107.441406 156.5 C 105.277344 152.164062 105.714844 148.207031 107.980469 145.222656 C 110.273438 142.210938 114.324219 140.125 119.558594 139.878906 C 120.628906 139.828125 120.804688 140.625 120.605469 141.230469 C 119.332031 145.242188 118.21875 148.566406 115.816406 151.429688 C 121.765625 149.9375 128.039062 152.515625 132.675781 154.148438 C 133.5 154.433594 133.5625 155.25 133.113281 155.78125 Z M 133.113281 155.78125 " fill-opacity="1" fill-rule="nonzero"/></g><path fill="#ffbf00" d="M 34.65625 58.097656 C 29.738281 62.722656 27.425781 68.011719 27.6875 72.832031 C 27.953125 77.617188 30.804688 81.832031 35.253906 83.777344 C 39.691406 85.714844 43.621094 85.082031 46.484375 82.652344 C 49.382812 80.214844 51.261719 76.066406 51.234375 70.816406 C 51.234375 69.75 50.429688 69.617188 49.835938 69.84375 C 45.894531 71.328125 42.628906 72.601562 39.890625 75.152344 C 41.078125 69.125 38.179688 62.996094 36.316406 58.453125 C 35.992188 57.640625 35.167969 57.617188 34.65625 58.097656 Z M 34.65625 58.097656 " fill-opacity="1" fill-rule="nonzero"/><path fill="#ffbf00" d="M 24.070312 109.238281 C 22.5625 115.820312 23.570312 121.507812 26.46875 125.371094 C 29.351562 129.195312 34.074219 131.113281 38.839844 130.253906 C 43.613281 129.394531 46.519531 126.683594 47.558594 123.074219 C 48.609375 119.4375 47.863281 114.941406 44.925781 110.601562 C 44.332031 109.71875 43.59375 110.050781 43.21875 110.570312 C 40.769531 113.988281 38.761719 116.871094 37.910156 120.503906 C 35.546875 114.839844 29.730469 111.355469 25.648438 108.613281 C 24.933594 108.125 24.230469 108.558594 24.070312 109.238281 Z M 24.070312 109.238281 " fill-opacity="1" fill-rule="nonzero"/><path fill="#ffbf00" d="M 34.574219 135.46875 C 36.027344 142.066406 39.382812 146.761719 43.652344 149.011719 C 47.902344 151.238281 52.980469 150.945312 56.921875 148.125 C 60.867188 145.308594 62.332031 141.617188 61.726562 137.90625 C 61.113281 134.175781 58.515625 130.433594 54.003906 127.757812 C 53.085938 127.214844 52.558594 127.835938 52.445312 128.457031 C 51.699219 132.605469 51.113281 136.070312 51.894531 139.71875 C 47.332031 135.605469 40.589844 134.957031 35.734375 134.21875 C 34.878906 134.097656 34.421875 134.777344 34.574219 135.46875 Z M 34.574219 135.46875 " fill-opacity="1" fill-rule="nonzero"/><g clip-path="url(#ea3576e293)"><path fill="#ffbf00" d="M 46.21875 66.652344 C 55.011719 63.875 55.796875 58 55.796875 48.566406 C 55.796875 46.621094 55.464844 46.421875 53.984375 46.734375 C 44.066406 48.828125 40.082031 57.953125 43.734375 65.777344 C 44.332031 67.058594 45.070312 67.019531 46.21875 66.652344 Z M 46.21875 66.652344 " fill-opacity="1" fill-rule="nonzero"/></g><path fill="#ffbf00" d="M 25.46875 81.921875 C 21.679688 87.523438 20.589844 93.191406 21.902344 97.839844 C 23.214844 102.449219 26.925781 105.933594 31.683594 106.851562 C 36.433594 107.765625 40.132812 106.28125 42.40625 103.300781 C 44.691406 100.277344 45.605469 95.820312 44.4375 90.710938 C 44.199219 89.671875 43.386719 89.707031 42.859375 90.058594 C 39.335938 92.375 36.425781 94.335938 34.320312 97.414062 C 34.148438 91.285156 29.984375 85.941406 27.167969 81.917969 C 26.667969 81.195312 25.867188 81.347656 25.46875 81.921875 Z M 25.46875 81.921875 " fill-opacity="1" fill-rule="nonzero"/><g clip-path="url(#aa8bd5501e)"><path fill="#ffbf00" d="M 54 155.78125 C 58.375 160.941406 63.539062 163.515625 68.367188 163.5 C 73.15625 163.480469 77.519531 160.835938 79.679688 156.5 C 81.84375 152.164062 81.398438 148.207031 79.132812 145.222656 C 76.835938 142.210938 72.792969 140.125 67.550781 139.878906 C 66.484375 139.828125 66.316406 140.625 66.503906 141.230469 C 67.789062 145.242188 68.894531 148.566406 71.304688 151.429688 C 65.34375 149.9375 59.082031 152.515625 54.445312 154.148438 C 53.625 154.433594 53.546875 155.25 54 155.78125 Z M 54 155.78125 " fill-opacity="1" fill-rule="nonzero"/></g><path fill="#ffbf00" d="M 93.5 187 C 41.84375 187 0 144.867188 0 93.5 C 0 42.132812 41.84375 0 93.5 0 C 145.15625 0 187 41.84375 187 93.5 C 187 145.15625 144.867188 187 93.5 187 Z M 93.5 5.773438 C 45.019531 5.773438 5.773438 45.019531 5.773438 93.5 C 5.773438 141.984375 45.019531 181.230469 93.5 181.230469 C 141.984375 181.230469 181.230469 141.984375 181.230469 93.5 C 181.230469 45.019531 141.695312 5.773438 93.5 5.773438 Z M 93.5 5.773438 " fill-opacity="1" fill-rule="nonzero"/></svg>