<svg width="131" height="40" viewBox="0 0 131 40" fill="none" xmlns="http://www.w3.org/2000/svg">
<g opacity="0.7" clip-path="url(#clip0_438_6978)">
<path d="M33.3087 32.3695C33.3087 31.9257 33.7525 31.4819 35.0809 31.4819C36.1904 31.4819 36.6488 31.9257 36.7802 32.1476C36.9875 32.5155 37.224 32.7374 37.6678 32.7374H39.513C39.8838 32.7374 40.1057 32.5155 40.1057 32.1476C40.1057 30.6702 38.4795 29.0439 35.0809 29.0439C31.4605 29.0439 29.9101 30.5972 29.9101 32.3695C29.9101 36.5067 37.0751 35.1023 37.0751 36.5797C37.0751 37.0235 36.5583 37.5403 35.0809 37.5403C33.6036 37.5403 33.1598 37.0965 32.9379 36.7286C32.7335 36.3724 32.497 36.1359 32.0532 36.1359H30.205C29.8371 36.1359 29.6152 36.3578 29.6152 36.7286C29.6152 38.352 31.2415 39.9783 35.0809 39.9783C38.8474 39.9783 40.4736 38.352 40.4736 36.5797C40.4736 32.4425 33.3087 33.8469 33.3087 32.3695Z" fill="white"/>
<path d="M51.3321 29.8586C51.3321 29.5608 51.1102 29.3418 50.8153 29.3418H41.3613C41.0635 29.3418 40.8445 29.5608 40.8445 29.8586V31.336C40.8445 31.6308 41.0635 31.8527 41.3613 31.8527H44.462V39.1637C44.462 39.4615 44.6839 39.6834 44.9788 39.6834H47.1948C47.4927 39.6834 47.7116 39.4615 47.7116 39.1637V31.8527H50.8153C51.1102 31.8527 51.3321 31.6308 51.3321 31.336V29.8586Z" fill="white"/>
<path d="M59.7992 39.1637C59.916 39.4615 60.1671 39.6834 60.462 39.6834H62.9729C63.2707 39.6834 63.478 39.4615 63.3437 39.1637L59.2065 29.844C59.0751 29.5462 58.8386 29.3418 58.5408 29.3418H55.513C55.2182 29.3418 54.9817 29.5608 54.8474 29.8586L50.713 39.1637C50.5787 39.4615 50.786 39.6834 51.0809 39.6834H53.4459C53.7408 39.6834 53.9919 39.4615 54.1087 39.1637L54.6284 37.8352H59.2795L59.7992 39.1637ZM56.9174 32.4425H57.0634L58.2459 35.3973H55.662L56.9174 32.4425Z" fill="white"/>
<path d="M70.9963 29.8586C70.9963 29.5608 70.7744 29.3418 70.4795 29.3418H64.4211C64.1262 29.3418 63.9043 29.5608 63.9043 29.8586V31.336C63.9043 31.6308 64.1262 31.8527 64.4211 31.8527H65.8255V37.1695H64.4211C64.1262 37.1695 63.9043 37.3914 63.9043 37.6863V39.1637C63.9043 39.4615 64.1262 39.6834 64.4211 39.6834H70.4795C70.7744 39.6834 70.9963 39.4615 70.9963 39.1637V37.6863C70.9963 37.3914 70.7744 37.1695 70.4795 37.1695H69.0751V31.8527H70.4795C70.7744 31.8527 70.9963 31.6308 70.9963 31.336V29.8586Z" fill="white"/>
<path d="M73.1393 39.6834H77.7934C81.7817 39.6834 83.8488 37.6133 83.8488 34.5126C83.8488 31.409 81.7817 29.3418 77.7934 29.3418H73.1393C72.8445 29.3418 72.6226 29.5608 72.6226 29.8586V39.1637C72.6226 39.4615 72.8445 39.6834 73.1393 39.6834ZM75.8722 37.3184V31.7038H77.7934C79.4926 31.7038 80.4503 32.6644 80.4503 34.5126C80.4503 36.3579 79.4926 37.3184 77.7934 37.3184H75.8722Z" fill="white"/>
<path d="M94.3393 35.1024C94.3393 35.1024 96.3335 34.6586 96.3335 32.7374C96.3335 30.8922 94.7831 29.3418 91.5306 29.3418H86.1408C85.843 29.3418 85.6211 29.5608 85.6211 29.8586V39.1637C85.6211 39.4615 85.843 39.6834 86.1408 39.6834H88.3569C88.6517 39.6834 88.8736 39.4615 88.8736 39.1637V36.136H90.7919C91.6065 36.136 91.8868 36.4308 92.1233 36.8746L93.3788 39.1637C93.5423 39.4615 93.7466 39.6834 94.3393 39.6834H96.6284C96.9992 39.6834 97.116 39.3856 96.9992 39.1637L95.7437 36.8746C95.005 35.5462 94.3393 35.2513 94.3393 35.2513V35.1024ZM88.8736 33.7739V31.7038H91.5306C92.4912 31.7038 92.935 32.1476 92.935 32.7374C92.935 33.3301 92.4912 33.7739 91.5306 33.7739H88.8736Z" fill="white"/>
<path d="M104.874 29.8586C104.874 29.5608 104.652 29.3418 104.357 29.3418H98.2985C98.0036 29.3418 97.7817 29.5608 97.7817 29.8586V31.336C97.7817 31.6308 98.0036 31.8527 98.2985 31.8527H99.7028V37.1695H98.2985C98.0036 37.1695 97.7817 37.3914 97.7817 37.6863V39.1637C97.7817 39.4615 98.0036 39.6834 98.2985 39.6834H104.357C104.652 39.6834 104.874 39.4615 104.874 39.1637V37.6863C104.874 37.3914 104.652 37.1695 104.357 37.1695H102.952V31.8527H104.357C104.652 31.8527 104.874 31.6308 104.874 31.336V29.8586Z" fill="white"/>
<path d="M112.112 29.0439C108.196 29.0439 106.053 31.187 106.053 34.5126C106.053 37.8352 108.196 39.9783 112.112 39.9783C115.656 39.9783 117.577 38.0571 117.577 36.2848C117.577 35.914 117.355 35.6921 116.988 35.6921H115.139C114.698 35.6921 114.462 35.914 114.255 36.2848C113.884 36.9476 113.294 37.5403 112.112 37.5403C110.485 37.5403 109.452 36.5067 109.452 34.5126C109.452 32.5155 110.485 31.4819 112.112 31.4819C113.221 31.4819 113.738 31.9987 114.106 32.5914C114.328 32.9593 114.55 33.1812 114.993 33.1812H116.839C117.209 33.1812 117.431 32.9593 117.431 32.5914C117.431 30.8921 115.583 29.0439 112.112 29.0439Z" fill="white"/>
<path d="M129.989 29.8586C129.989 29.5608 129.767 29.3418 129.472 29.3418H127.256C126.958 29.3418 126.736 29.5608 126.736 29.8586V33.3301H122.453V29.8586C122.453 29.5608 122.231 29.3418 121.936 29.3418H119.72C119.425 29.3418 119.204 29.5608 119.204 29.8586V39.1637C119.204 39.4615 119.425 39.6834 119.72 39.6834H121.936C122.231 39.6834 122.453 39.4615 122.453 39.1637V35.8411H126.736V39.1637C126.736 39.4615 126.958 39.6834 127.256 39.6834H129.472C129.767 39.6834 129.989 39.4615 129.989 39.1637V29.8586Z" fill="white"/>
<path fill-rule="evenodd" clip-rule="evenodd" d="M0.917847 11.2669C0.917847 10.0199 1.91483 9.00904 3.16775 9.00904H7.67463V13.5136H5.42237V31.5382H23.4404V29.2794H27.945V33.7862C27.945 35.0288 26.9185 36.0362 25.6871 36.0362H3.17567C1.92871 36.0362 0.917847 35.0097 0.917847 33.7783V11.2669ZM9.92688 2.25783C9.92688 1.01086 10.9534 0 12.1847 0H34.6962C35.9431 0 36.954 1.02649 36.954 2.25783V24.7693C36.954 26.0163 35.9275 27.0271 34.6962 27.0271H12.1847C10.9377 27.0271 9.92688 26.0006 9.92688 24.7693V2.25783ZM14.4314 4.50452H32.4495V22.5226H14.4314V4.50452Z" fill="white"/>
<path fill-rule="evenodd" clip-rule="evenodd" d="M20.6443 12.4173C19.2152 10.4769 17.2764 9.22453 16.4723 8.75804C16.4515 8.74615 16.4302 8.73673 16.4085 8.73001C16.2392 8.67685 16.0504 8.778 16.0138 8.95989C15.6143 10.9595 15.4177 13.0706 15.8642 15.0803C16.3295 17.1737 17.5463 18.8528 19.4725 19.8298C18.4195 18.2776 17.7091 16.6644 17.2449 14.8574C17.1895 14.6412 17.4178 14.7031 17.4825 14.8392C18.1796 16.3154 19.0076 17.6025 20.1098 18.8194C20.1917 18.9098 20.2768 18.9961 20.3621 19.0805C19.9201 17.6435 19.5831 15.4345 20.4336 12.969C20.4977 12.7833 20.569 12.5996 20.6443 12.4173ZM23.3315 20.0177C25.0176 19.5286 26.606 18.5519 27.8476 17.3275C29.7692 15.4331 30.8874 12.8966 31.4385 10.2963C31.8139 8.52479 31.9576 6.68979 31.863 4.88146C31.8535 4.69778 31.7284 4.55627 31.5688 4.50648C31.4792 4.47822 31.3787 4.47912 31.2816 4.51769C18.2056 9.7112 20.3843 17.544 21.3515 19.8103C21.4742 19.7055 21.6091 19.5844 21.7573 19.4499C22.19 19.0417 22.6046 18.6149 23.0027 18.1733C25.9187 14.9393 28.161 11.1791 30.2834 7.40612C30.3151 7.3496 30.3839 7.33031 30.4384 7.36014C30.49 7.38862 30.5104 7.45142 30.4868 7.5039C29.7156 9.23373 28.5971 12.0495 27.1567 14.5098C25.4084 17.4955 23.3748 20.0052 23.3315 20.0177Z" fill="white"/>
</g>
<defs>
<clipPath id="clip0_438_6978">
<rect width="129.343" height="40" fill="white" transform="translate(0.703491)"/>
</clipPath>
</defs>
</svg>
